/* XPM */
static char *addGeo_xpm[] = {
/* width height num_colors chars_per_pixel */
"    25    22      256            2",
/* colors */
"`` c #042624",
"`. c #349a24",
"`# c #8c9e94",
"`a c #ec1a08",
"`b c #145e1c",
"`c c #4c9a44",
"`d c #b4cacc",
"`e c #445e6c",
"`f c #0c8e90",
"`g c #dce6e4",
"`h c #24ae9c",
"`i c #2c8e9c",
"`j c #4caecc",
"`k c #147674",
"`l c #448624",
"`m c #e4fefc",
"`n c #fc8e78",
"`o c #044a1c",
"`p c #149e94",
"`q c #fc5234",
"`r c #4cbec6",
"`s c #347a34",
"`t c #44768c",
"`u c #f4f8ec",
"`v c #647684",
"`w c #14626c",
"`x c #4c8e94",
"`y c #a4b6b4",
"`z c #1c8e97",
"`A c #2c9ea0",
"`B c #f4f6fc",
"`C c #fc3614",
"`D c #748e84",
"`E c #e4d6e4",
"`F c #f4ae9c",
"`G c #446a6c",
"`H c #fceaf4",
"`I c #2c4e4c",
"`J c #4cb6bc",
"`K c #247674",
"`L c #043614",
"`M c #dc2e24",
"`N c #1c423c",
"`O c #448694",
"`P c #549eac",
"`Q c #3ca6b4",
"`R c #fc1e2c",
"`S c #2c6674",
"`T c #1c9694",
"`U c #f4fef9",
"`V c #2c867c",
"`W c #043e4c",
"`X c #acaebc",
"`Y c #fc1e08",
"`Z c #2c5e44",
"`0 c #fca69c",
"`1 c #54c8d4",
"`2 c #bcc2c4",
"`3 c #2ca6a4",
"`4 c #0c9a94",
"`5 c #34c6d4",
"`6 c #048684",
"`7 c #54766c",
"`8 c #f4feec",
".` c #748a90",
".. c #fccecc",
".# c #546e74",
".a c #5ca6b4",
".b c #8caab4",
".c c #d4d2e4",
".d c #eceae8",
".e c #fc8ea4",
".f c #144e4c",
".g c #f4766c",
".h c #5cbedc",
".i c #acc6cc",
".j c #f4f2f7",
".k c #5cbac4",
".l c #347a84",
".m c #14361c",
".n c #3c6e77",
".o c #44a83c",
".p c #fc1608",
".q c #1c5a54",
".r c #5c5e84",
".s c #148e91",
".t c #3c9ab4",
".u c #54aebc",
".v c #145634",
".w c #249e9c",
".x c #54bec4",
".y c #fcf6fb",
".z c #dce0e4",
".A c #ecc2cc",
".B c #1c8690",
".C c #246a34",
".D c #c4cedc",
".E c #4c6664",
".F c #3cb2bc",
".G c #f49284",
".H c #144a28",
".I c #acbec4",
".J c #1c92a4",
".K c #4c6a74",
".L c #4cbacc",
".M c #043e1c",
".N c #1c523c",
".O c #4caab0",
".P c #2496a0",
".Q c #2ca6bc",
".R c #5c769c",
".S c #fcf2f0",
".T c #3c7e88",
".U c #ece2ec",
".V c #94a2a4",
".W c #245a34",
".X c #4c626f",
".Y c #e4eef4",
".Z c #ec624c",
".0 c #4cc0d4",
".1 c #fcf8ec",
".2 c #6c7e74",
".3 c #5496a4",
".4 c #a4b6c4",
".5 c #1c9298",
".6 c #349eb4",
".7 c #fc4a3c",
".8 c #849e9c",
"#` c #0c3a1f",
"#. c #84967c",
"## c #f48a7c",
"#a c #24728c",
"#b c #fce2e4",
"#c c #44566c",
"#d c #f4260c",
"#e c #5c827c",
"#f c #a4b2b4",
"#g c #44a22c",
"#h c #3c829c",
"#i c #fc6e54",
"#j c #fcbebc",
"#k c #3c6654",
"#l c #fc7e8c",
"#m c #3cbac4",
"#n c #bca6b4",
"#o c #44bfcc",
"#p c #f45e3c",
"#q c #ccdedc",
"#r c #2c9aa6",
"#s c #3c666c",
"#t c #449ac4",
"#u c #1c4a34",
"#v c #5c9e3c",
"#w c #246674",
"#x c #0c7e84",
"#y c #044a34",
"#z c #4c8eac",
"#A c #54767c",
"#B c #3c7694",
"#C c #548694",
"#D c #4c7e84",
"#E c #f43e1c",
"#F c #94b2ac",
"#G c #14a694",
"#H c #3caab4",
"#I c #fc9694",
"#J c #44ae2c",
"#K c #749298",
"#L c #449e44",
"#M c #e4eaf4",
"#N c #2c7a84",
"#O c #1496a4",
"#P c #0c8a94",
"#Q c #7c8694",
"#R c #4496a4",
"#S c #24564c",
"#T c #54a6b4",
"#U c #143e14",
"#V c #24a69c",
"#W c #fcc6b8",
"#X c #145e34",
"#Y c #24424c",
"#Z c #c4c2d4",
"#0 c #fcfee1",
"#1 c #0c4e24",
"#2 c #4c7a84",
"#3 c #acbabc",
"#4 c #346a7c",
"#5 c #0c3c44",
"#6 c #34a6ac",
"#7 c #5c727c",
"#8 c #64a8b8",
"a` c #3c767c",
"a. c #e4e2e8",
"a# c #44aeb4",
"aa c #fc9088",
"ab c #acbacc",
"ac c #5492a4",
"ad c #5c7a84",
"ae c #0c2a24",
"af c #8ca0a4",
"ag c #bccecc",
"ah c #dceaf4",
"ai c #ecfdfc",
"aj c #1ca294",
"ak c #fcb29c",
"al c #446e7c",
"am c #44a2b4",
"an c #2c8a8c",
"ao c #fcaaac",
"ap c #74869c",
"aq c #b4c2cc",
"ar c #5cb6d4",
"as c #14929c",
"at c #54b2cc",
"au c #1c8a9c",
"av c #fc4e4c",
"aw c #3c6a7c",
"ax c #f41a04",
"ay c #3c7a38",
"az c #6c767c",
"aA c #fcfefc",
"aB c #345e4c",
"aC c #54bacd",
"aD c #34a6b4",
"aE c #4c8694",
"aF c #fc1614",
"aG c #54bed4",
"aH c #fcf2fc",
"aI c #4c627c",
"aJ c #6c7e84",
"aK c #44bac4",
"aL c #fcfeec",
"aM c #4cb2c4",
"aN c #2ca29c",
"aO c #f4faf4",
"aP c #fceeec",
"aQ c #4cbac4",
"aR c #043a1c",
"aS c #1c9a9c",
"aT c #fc2204",
"aU c #2caaac",
"aV c #54727c",
"aW c #eceeec",
"aX c #3c727c",
"aY c #14928c",
"aZ c #54b2c1",
"a0 c #24a2a4",
"a1 c #fcfafb",
"a2 c #1c8a94",
"a3 c #c4d2d8",
"a4 c #4c6e78",
"a5 c #249a9c",
"a6 c #245e2c",
"a7 c #547a84",
"a8 c #54aabc",
/* pixels */
"#q#7.X`yaOaAaAaA.yaAaA`UaAaAaAaAaAaAaAaAaAaAaAaAaA",
"#ua6ay#`afaAa3`v.za1aAaAaAaAaAaAaAaAaAaAaAaAaAaAaA",
".v#L#J`saeaJa7#B`e.iaA.jaAa1aAaAaAaAaAaAaAa1aAaAaA",
"aR#L.o`b`Z``#w`j`P`S.``Ua1aAaAaAaAaAaAaAaAaAaAaAaA",
"`D.M#1`o`Z.q`V#PaCa8.T`7.zaA.yaAaAaAaAaAaAaAaAaAaA",
"`Bab#Y#S#y`V#6`4.s.F.x`O#s.Ia1aAaAaAaAaAaAaAaAaAaA",
"aAaAa3#5`w`A.waja5.s`QaC#T#4#KaOa1aAaAaAa1aAaAaAaA",
"aAaL#.a4#t#Paj#V#r.P.J.Qat#8#D.#a.a1aAaAaAaAaAaAaA",
"a1#3.na#`1.t`zas#G`h`pas#6.LaM.t#c.4aAaAaAa1aAaAaA",
"aA.D.KaE.O.x#m#OaY.waSa5.5#raCaM#8.n.``BaAaAaAaAaA",
"a1aA`E#Qaw.uaCaG#r.B.P#6a5`z`A`raKaZ.T#7.caAaWaAaA",
"aA.yaAaA`#.n#zaCaG.6.J.sa0a0.s.P#o#o.uac`e`XaAaAaA",
"aAa1.1`0#I#naI`OataGaK`f`f`h`T`TauaK.0aZ#C.Xa.aAaA",
".SaAaLav`R..#M#e#N#TaM`1`3`6`3.P`iau#o.ua`afaA.1aA",
"aL`U#0`q`a#WaA#0af`G.3aZ.L.F#xa5#r.P.B.ladaA.jaAaA",
"ao.e.G`CaT.g#l.GaP`2a4#har.L.L.5.s.w`k#5#Za1aA`UaA",
"#p.pax#d`Y`Y.p#d.AaAa.aJal#T.L`5`Q#a`W#k.m`d.Da.aA",
"`Faa`n#E`a#i`n##`H.yaAai.baw#RaC.O`K.f.H.W.M.N#`#f",
"aAaA.1.Z`M#WaAaAa1aAaAaAaAaq.##2.Rapah`v#Uay#v`l`I",
"a1aA.1.7aF#jaA`8aAaAaAaA.yaA.Uaz.raWaA`U`L`c#g`.`N",
"a1aA`Uakaa#b`UaL`UaAaAaAa1.SaAaA.daLaAaA.E#1.C`bap",
"aAa1`m`U.yaAaAaAaA`uaAaAaAaAai`maAa1aAaA.Y#F`7.8`U"
};
