/* XPM */
static char *addPlane_xpm[] = {
/* width height num_colors chars_per_pixel */
"    32    32      256            2",
/* colors */
"`` c #1c2224",
"`. c #949294",
"`# c #945644",
"`a c #5c5e5c",
"`b c #5c3e34",
"`c c #cccacc",
"`d c #34423c",
"`e c #945a44",
"`f c #cc9a8c",
"`g c #3c322c",
"`h c #ec666c",
"`i c #e4e6e4",
"`j c #9c7674",
"`k c #444e4c",
"`l c #ccb6ac",
"`m c #7c4234",
"`n c #b45a44",
"`o c #4c3e3c",
"`p c #f4f6e4",
"`q c #24322c",
"`r c #747e74",
"`s c #a45a44",
"`t c #4c362c",
"`u c #b4b2b4",
"`v c #3c4644",
"`w c #f4b6a4",
"`x c #5c4e54",
"`y c #ec968c",
"`z c #a46244",
"`A c #ece2dc",
"`B c #3c3a34",
"`C c #7c4e3c",
"`D c #343224",
"`E c #f4fef4",
"`F c #b49a94",
"`G c #6c4234",
"`H c #443e3c",
"`I c #f4e6e4",
"`J c #b46244",
"`K c #6c6e64",
"`L c #4c463c",
"`M c #848a84",
"`N c #a45a4c",
"`O c #2c222c",
"`P c #f4222c",
"`Q c #e4dacc",
"`R c #f4f6f4",
"`S c #ecc2bc",
"`T c #443234",
"`U c #ccbebc",
"`V c #eca28c",
"`W c #8c4e44",
"`X c #34323c",
"`Y c #fcf6f4",
"`Z c #a4a6a4",
"`0 c #a4524c",
"`1 c #d4a694",
"`2 c #84827c",
"`3 c #f4eedc",
"`4 c #c4664c",
"`5 c #9c523c",
"`6 c #5c6664",
"`7 c #5c423c",
"`8 c #f47274",
".` c #948e8c",
".. c #8c4a44",
".# c #2c3a34",
".a c #444644",
".b c #fcba9c",
".c c #3c3a3c",
".d c #844e3c",
".e c #744234",
".f c #443e4c",
".g c #bc624c",
".h c #544a4c",
".i c #ac5a54",
".j c #2c2a24",
".k c #f4a694",
".l c #f4f2f4",
".m c #9c9a9c",
".n c #3c3e3c",
".o c #3c363c",
".p c #545254",
".q c #7c4a3c",
".r c #2c3634",
".s c #b4c2bc",
".t c #ac6244",
".u c #fce2d4",
".v c #343a34",
".w c #bcaaa4",
".x c #4c464c",
".y c #e4e2e4",
".z c #e4aa94",
".A c #9c564c",
".B c #444a54",
".C c #342e34",
".D c #643a2c",
".E c #dcd2d4",
".F c #dc9a84",
".G c #3c362c",
".H c #fc626c",
".I c #e4f2f4",
".J c #b47e6c",
".K c #d4bab4",
".L c #b45e44",
".M c #543e34",
".N c #7c7a7c",
".O c #ac5a44",
".P c #4c3a2c",
".Q c #fcb2a4",
".R c #f4e2e4",
".S c #343234",
".T c #fcfef4",
".U c #c49e8c",
".V c #44423c",
".W c #b46654",
".X c #7c7674",
".Y c #dcdadc",
".Z c #f4faf4",
".0 c #ccc6cc",
".1 c #fcfaf4",
".2 c #f4f2dc",
".3 c #9c563c",
".4 c #6c666c",
".5 c #444a44",
".6 c #2c2e34",
".7 c #242224",
".8 c #9c969c",
"#` c #9c5a44",
"#. c #b48e7c",
"## c #fc2e34",
"#a c #fcc2cc",
"#b c #c4beb4",
"#c c #d4a28c",
"#d c #947e7c",
"#e c #bcbabc",
"#f c #d4b29c",
"#g c #bc9684",
"#h c #747274",
"#i c #dcaaa4",
"#j c #e4cec4",
"#k c #5c564c",
"#l c #343a3c",
"#m c #ec9e8c",
"#n c #8c5644",
"#o c #ecaaa4",
"#p c #646264",
"#q c #f46a74",
"#r c #eceaec",
"#s c #84423c",
"#t c #8c8a8c",
"#u c #f4bec4",
"#v c #acaaac",
"#w c #646664",
"#x c #7c524c",
"#y c #6c7274",
"#z c #eca69c",
"#A c #84524c",
"#B c #744644",
"#C c #bcbebc",
"#D c #ac6254",
"#E c #643e3c",
"#F c #eceef4",
"#G c #d4b6ac",
"#H c #d49a84",
"#I c #4c4e4c",
"#J c #2c3224",
"#K c #443a2c",
"#L c #8c8284",
"#M c #644234",
"#N c #443a44",
"#O c #ece2ec",
"#P c #fcf2f4",
"#Q c #c49e9c",
"#R c #7c463c",
"#S c #4c4234",
"#T c #a45e3c",
"#U c #6c463c",
"#V c #b4664c",
"#W c #4c4a44",
"#X c #a45e4c",
"#Y c #443634",
"#Z c #ccc2bc",
"#0 c #eca694",
"#1 c #d4aa9c",
"#2 c #74463c",
"#3 c #ac5e4c",
"#4 c #2c2e2c",
"#5 c #3c423c",
"#6 c #fc6674",
"#7 c #7c7e80",
"#8 c #fcb6a0",
"a` c #dcdee0",
"a. c #646a6c",
"a# c #949694",
"aa c #cccecc",
"ab c #44424c",
"ac c #bc664c",
"ad c #9c9e9c",
"ae c #545654",
"af c #ac6644",
"ag c #4c4a4c",
"ah c #ac5e44",
"ai c #343634",
"aj c #242624",
"ak c #9c5e44",
"al c #8c8e8c",
"am c #344244",
"an c #3c3234",
"ao c #444e54",
"ap c #b45a4c",
"aq c #4c3634",
"ar c #a4624c",
"as c #ece2e4",
"at c #7c4e44",
"au c #34322c",
"av c #f4fefc",
"aw c #6c423c",
"ax c #443e44",
"ay c #b4624c",
"az c #4c4644",
"aA c #f4f6fc",
"aB c #fcf6fc",
"aC c #848284",
"aD c #f4eee4",
"aE c #9c5244",
"aF c #f4727c",
"aG c #44464c",
"aH c #fcbaa4",
"aI c #3c3a44",
"aJ c #844e44",
"aK c #2c2a2c",
"aL c #7c4a44",
"aM c #2c363c",
"aN c #643a34",
"aO c #3c3634",
"aP c #b47e74",
"aQ c #b45e4c",
"aR c #543e3c",
"aS c #4c3a34",
"aT c #fcfefc",
"aU c #444244",
"aV c #f4fafc",
"aW c #fcfafc",
"aX c #f4f2e4",
"aY c #9c5644",
"aZ c #444a4c",
"a0 c #5c5654",
"a1 c #343a44",
"a2 c #2c322c",
"a3 c #443a34",
"a4 c #a45e54",
"a5 c #44363c",
"a6 c #ccc2c4",
"a7 c #ac5e54",
"a8 c #3c4244",
/* pixels */
"aTaTaTaTaTaTaTaTaTaTaTaTaTaTaTaTaTaTaTaTaTaTaTaTaTaTaTaTaTaTaTaT",
"aTaTaTaTaTaTaTaTaTaTaTaTaTaTaTaTaTaTaTaTaTaTaTaTaTaTaTaTaTaTaTaT",
"aTaTaTaTaTaTaTaTaTaTaTaTaTaTaTaTaTaTaTaTaTaTaTaTaTaTaTaTaTaTaTaT",
"aTaTaTaTaTaTaTaTaTaTaTaTaTaTaTaTaTaTaTaTaTaTaTaTaTaTaTaWaTaTaTaT",
"aTaTaTaTaTaTaTaTaTaTaTaT.l.Y#v#7.``u.Y.laTaTaTaTaTaTaTaTaTaTaTaT",
"aWaTaTaWaTaTaTaTaW.y#C.`#paU.c.c#l.nag`aaC`Z`c#raWaTaTaTaBaTaTaT",
"aTaTaWaTaT.l`cad#h.pai.ca8.a.a.aazaZ.aaU.c.caU#I#h.m#e.yaTaTaTaT",
"aTaTaTaT.8.a.c.caxaUagag.a.aagag.a.x.a.aag.5.aag.caj.7#paTaTaTaT",
"aTaTaTaT#y.7aK.S.c.V.aaZagag.aazaZ#W.xagagag.n.c#4a2#J`K`YaTaWaT",
"aTaWaWaT`M`d.x`Laiai.SaO.n.a.x#I.a.a.5aU`B.Sa2.6axaxai.NaTaTaTaT",
"aTaTaWaT`.aI.5.5agaGaU.cai.SaO.c.aaxai#4.6.caU.aaIaU.S#7aTaTaTaT",
"aTaTaTaT.8.oaGaG#WaG#WagagaU.naiaj#4.o.naUaU.n.n`H#5.S#taTavaTaW",
"aTaD#j.K#da5.h.aag.a.a.a.aagaZagai.caU.V.n.naUaU.V#5ai.`aTaTaTaW",
"#f#c`V`w#.a3.aaGaUaZagag.a.a.aag.S.n.na8aUaU.n.naxamai#L.RaTaTaT",
"#..z#8.b.F#Ma5aZ.aaz.aaUaZaz.a.a#4aOa8.V.n.naUa8ax`vai`j#i#G`QaT",
"#O.w`faH.ka4#xaSaU.5aG.a.a.aaGag#4.caUaU.nax#5axax`d`DaP.Q#0`1#1",
"aTaW#b.U.FayayaY`7`oaUaZaZ.aaz#W#4.cax`H.V#5a8amaO`o`m`yaH#8.z#g",
"aTaTaT`A`FaJ.iay#XaJ`b`HaGaZ`v#W.Sai#5aU.faI#YaS#2`eah#m.k#Q`U.l",
"aTaTaTaW#F`x.D#`.g`J#X`C`oaU.BaZa2anabam.#aS.eaEaQaQaQ.J`l#raVaT",
"aTaWaWaTaAa.ai#Y.qarac.LaEaw`oaU.Ca1.caq.eaYah`J.t..`b#baW.1aTaW",
"aWaWaTaT.Z`r`d.aan`baJayacah#n#E`O`T`G`5aQaQahaY#U.G.va`aTaWaBaT",
"aTaTaTaTaT#h.Sag.BaUan`Gakay#V.i#R`#`zaf`n`0aJ#Y`gaK`6.IaTaBaTaV",
"aTaTaTaTaTa6a0ai.naZ`k`H#Y.q#Day#T`saQ.i`W.M#4`X.c`2.YaTaWaTaTaW",
"aTaTaTaTaTaT#F#v#kaO.n.BaU#Y.D`e`n.O.A.D.G.raiae.saTaTaW#u#u.TaT",
"aTaTaTaTaTaTaTaT#ra##Iai.aaZ.naO`m#BaqaiaM#laC#OaTaWaVaD#6.H.2aB",
"aTaTaTaTaTaTaTaTaTaT`iad.p.o.naG`Dauai.S#pa6aWaT.T`E.u`8`P##`h`I",
"aTaTaTaTaTaTaTaTaTaTaTaT`i.m.p.c`qa2a8.8.laTaTaTaTaW.1`3`8#6`paW",
"aTaTaTaTaTaTaTaTaTaWaTaTaTaT.ya##N.4.EaTaTaTaTaTaTaWaWaT#a#aaTaW",
"aTaTaTaTaTaTaTaTaTaTaTaTaTaWaTaT.y.laTaTaTaWaTaT.TaWaVaTaT.T.TaT",
"aTaTaTaTaTaTaTaTaTaTaTaWaTaTaTaTaTaTaTaTaWaTaTaBaTaTaWaTaTaWavaW",
"aTaTaTaTaTaTaTaTaTaTaTaTaTaTaTaTaTaTaTaTaTaTaTaTaTaWaWaTaTaTaTaT",
"aTaTaTaTaTaTaTaTaTaTaTaTaTaTaTaTaTaTaWaTaTaTaTaTaTaTaTaTaTaTaTaT"
};
