/* XPM */
static char *connectSel_xpm[] = {
/* width height num_colors chars_per_pixel */
"    26    14      256            2",
/* colors */
"`` c #14467c",
"`. c #449e44",
"`# c #c48e7c",
"`a c #942204",
"`b c #b4ce9c",
"`c c #bceeac",
"`d c #3c6a94",
"`e c #74b66c",
"`f c #ece6d4",
"`g c #a4524c",
"`h c #e4f6fc",
"`i c #547294",
"`j c #74a264",
"`k c #8c3a1c",
"`l c #a4bac4",
"`m c #f4fedc",
"`n c #1c5a94",
"`o c #9c1a04",
"`p c #3c7ab4",
"`q c #dce2ec",
"`r c #548ecc",
"`s c #7496bc",
"`t c #f4f6f4",
"`u c #b4cad4",
"`v c #fce6dc",
"`w c #a42a04",
"`x c #5482ac",
"`y c #dcb2a4",
"`z c #7caad4",
"`A c #6c9acc",
"`B c #f4fef4",
"`C c #ccdadc",
"`D c #8cb2dc",
"`E c #345a84",
"`F c #4c7eb4",
"`G c #fceee4",
"`H c #648294",
"`I c #1c568c",
"`J c #dc9a8c",
"`K c #4c6e8c",
"`L c #c46e44",
"`M c #6c8ea4",
"`N c #a4360c",
"`O c #ccbec4",
"`P c #fcf6f4",
"`Q c #c4d6e4",
"`R c #ac2a1c",
"`S c #8ca6bc",
"`T c #f4f2f4",
"`U c #244674",
"`V c #acc2dc",
"`W c #9c2604",
"`X c #4482bc",
"`Y c #cceefc",
"`Z c #3472a4",
"`0 c #447aac",
"`1 c #9c2a24",
"`2 c #5486bc",
"`3 c #9cc2dc",
"`4 c #34628c",
"`5 c #c47e6c",
"`6 c #84320c",
"`7 c #b4faa4",
"`8 c #74c274",
".` c #dceed4",
".. c #e4fefc",
".# c #2c62ac",
".a c #5c8ebc",
".b c #84a2cc",
".c c #bcd2ec",
".d c #e4c2bc",
".e c #9cb6d4",
".f c #dcaa94",
".g c #a44224",
".h c #fceef4",
".i c #3c668c",
".j c #44aa44",
".k c #bc9e8c",
".l c #94221c",
".m c #fcfae4",
".n c #ac1a14",
".o c #749acc",
".p c #f4faf4",
".q c #bccadc",
".r c #84aedc",
".s c #fcfef4",
".t c #cce2d4",
".u c #4c82c4",
".v c #6c8a9c",
".w c #648ebc",
".x c #fcfaf4",
".y c #94aed4",
".z c #244a8c",
".A c #b4c2d4",
".B c #3c72a4",
".C c #34629c",
".D c #dc7e5c",
".E c #ecfeec",
".F c #5c92cc",
".G c #1c4e84",
".H c #549a5c",
".I c #b4deb4",
".J c #cceebc",
".K c #e4eaf4",
".L c #ac6234",
".M c #547a94",
".N c #849e7c",
".O c #94422c",
".P c #a4bedc",
".Q c #2c5ea4",
".R c #3c7ebc",
".S c #9c320c",
".T c #5c82a4",
".U c #84a6d4",
".V c #6c9ecc",
".W c #d4daec",
".X c #94b6d4",
".Y c #4c82b4",
".Z c #fcf2ec",
".0 c #6c82a4",
".1 c #4476ac",
".2 c #ccd2e4",
".3 c #8caacc",
".4 c #244e74",
".5 c #a4261c",
".6 c #3472b4",
".7 c #447abc",
".8 c #9c3224",
"#` c #548ac4",
"#. c #94ce94",
"## c #fce2dc",
"#a c #ccfac4",
"#b c #dc868c",
"#c c #ecf2f4",
"#d c #f4beac",
"#e c #b44a34",
"#f c #b4aa94",
"#g c #ecaaa4",
"#h c #bc6644",
"#i c #2c567c",
"#j c #9c3624",
"#k c #b43614",
"#l c #6496cc",
"#m c #7c9e7c",
"#n c #942a14",
"#o c #d4a28c",
"#p c #6c92cc",
"#q c #ac321c",
"#r c #e4b294",
"#s c #7cb274",
"#t c #ac462c",
"#u c #bce2bc",
"#v c #5c7e9c",
"#w c #1c4a7c",
"#x c #245e94",
"#y c #fceaec",
"#z c #a42e24",
"#A c #e4a694",
"#B c #b4c6e4",
"#C c #5c9e5c",
"#D c #cceacc",
"#E c #acbed4",
"#F c #a43204",
"#G c #2c4e6c",
"#H c #f4feec",
"#I c #6482a4",
"#J c #a42604",
"#K c #dc7e6c",
"#L c #ecfefc",
"#M c #eceaf4",
"#N c #5c82b4",
"#O c #94b6e4",
"#P c #3c6e9c",
"#Q c #fcf2dc",
"#R c #c4724c",
"#S c #34668c",
"#T c #2c66a4",
"#U c #5c92c4",
"#V c #9cbadc",
"#W c #fcf2f4",
"#X c #942624",
"#Y c #fcfeec",
"#Z c #ac1e0c",
"#0 c #bccee4",
"#1 c #b4c6dc",
"#2 c #ccd6ec",
"#3 c #c4927c",
"#4 c #9c1e04",
"#5 c #4c728c",
"#6 c #e4c6bc",
"#7 c #84aad4",
"#8 c #d4deec",
"a` c #3476b4",
"a. c #447ebc",
"a# c #3c7abc",
"aa c #7496c4",
"ab c #f4f6fc",
"ac c #f4fefc",
"ad c #fcf6fc",
"ae c #f4f2fc",
"af c #5486c4",
"ag c #5c8ec4",
"ah c #749ad4",
"ai c #f4fafc",
"aj c #bccae4",
"ak c #fcfefc",
"al c #fcfafc",
"am c #ecfef4",
"an c #6c9ed4",
"ao c #4c82bc",
"ap c #8caad4",
"aq c #94ce9c",
"ar c #346694",
"as c #fcf2fc",
"at c #000000",
"au c #000000",
"av c #000000",
"aw c #000000",
"ax c #000000",
"ay c #000000",
"az c #000000",
"aA c #000000",
"aB c #000000",
"aC c #000000",
"aD c #000000",
"aE c #000000",
"aF c #000000",
"aG c #000000",
"aH c #000000",
"aI c #000000",
"aJ c #000000",
"aK c #000000",
"aL c #000000",
"aM c #000000",
"aN c #000000",
"aO c #000000",
"aP c #000000",
"aQ c #000000",
"aR c #000000",
"aS c #000000",
"aT c #000000",
"aU c #000000",
"aV c #000000",
"aW c #000000",
"aX c #000000",
"aY c #000000",
"aZ c #000000",
"a0 c #000000",
"a1 c #000000",
"a2 c #000000",
"a3 c #000000",
"a4 c #000000",
"a5 c #000000",
"a6 c #000000",
"a7 c #000000",
"a8 c #000000",
/* pixels */
"`L#q`w#z#yacakamakak.xalakak.xak`Y#v#w.Q.#``.i`3ak.x",
"#j`o#J.S#oakakakakak.sakasaiak.W.4`d`F.7af#`#P#i`Hak",
"`5`N`w#4.O`Galakakakakalakak`h#G.B`2#l#p`Aan.aa.`I#E",
".f#n.g#t`g##alakakak.Eakakak`S`4.u#l.U.X#V`D`A#la#`E",
"#K.l.f`v`Pakak.xak#m#uamakab`i`Zaf.U.P.q`Q#0#Oahao`I",
"#h#X#6#cak#Lac`m`B#a.H.Iakak`i.R#p.U.A`q#M`Q.e.b#N#T",
".L`1#6alad.taq#s.N`e`.#C.`ak`Ka#.aap`V#8.K#2.P.b.a#x",
".D.5.k.s.x#D#.`c.J`7.j`8#Hak#I.6`2.U#V#1.q#E.y`sa..G",
"#g#Z.gakak.hak#Lak`b`jamabak#0.z`F#U#7.3ap.ran`ra`.0",
"`B`k#F#3alakakacal.E.Eacak.sac.v.C.1.w`A.o`A`x.1`U#c",
"ak#d`a`a#r#Yakakakak`takalakakak`xar#T`0.Y.B`4ar`Cal",
"ak#W#b.n#4#R`y`T.Zakadakakaladakak`u`M`i#5#v`lacak.s",
"al..ae`J`6`a`R`1#f`Pakalakakakal`Palakakalasalalakak",
"adak.m.s`f`##e`W`Oakakakalakakai.sakacacacakak.sacal"
};
