/* XPM */
static char *copySdk_xpm[] = {
/* width height num_colors chars_per_pixel */
"    30    30      256            2",
/* colors */
"`` c #040204",
"`. c #7c8284",
"`# c #3c4244",
"`a c #bcc2c4",
"`b c #1c2224",
"`c c #dce2dc",
"`d c #5c6264",
"`e c #a4a2a4",
"`f c #ecf2ec",
"`g c #2c3234",
"`h c #4c5254",
"`i c #0c1214",
"`j c #8c928c",
"`k c #ece6e4",
"`l c #242a2c",
"`m c #6c7274",
"`n c #b4b2b4",
"`o c #d4d2cc",
"`p c #444a4c",
"`q c #f4fafc",
"`r c #949a9c",
"`s c #343a3c",
"`t c #040a0c",
"`u c #cccacc",
"`v c #e4eae4",
"`w c #141a1c",
"`x c #a4aaac",
"`y c #fcf6fc",
"`z c #545a5c",
"`A c #eceee4",
"`B c #2c2a2c",
"`C c #747a7c",
"`D c #242224",
"`E c #6c6a6c",
"`F c #f4f2ec",
"`G c #b4babc",
"`H c #8c8a8c",
"`I c #444244",
"`J c #c4cacc",
"`K c #343234",
"`L c #4c4a4c",
"`M c #9c9a9c",
"`N c #c4c2bc",
"`O c #e4e2e4",
"`P c #141214",
"`Q c #949294",
"`R c #dcdadc",
"`S c #0c0a0c",
"`T c #5c5a5c",
"`U c #2c2e3c",
"`V c #0c060c",
"`W c #848284",
"`X c #646264",
"`Y c #a4a6b4",
"`Z c #eceaf4",
"`0 c #747274",
"`1 c #fcfaf4",
"`2 c #3c3a3c",
"`3 c #e4eef4",
"`4 c #1c1a1c",
"`5 c #b4aeac",
"`6 c #f4eeec",
"`7 c #2c2e2c",
"`8 c #7c7a7c",
".` c #242624",
".. c #f4f6fc",
".# c #bcbabc",
".a c #343644",
".b c #0c0e0c",
".c c #040604",
".d c #3c464c",
".e c #1c262c",
".f c #a4a6a4",
".g c #ecf6fc",
".h c #545254",
".i c #eceae4",
".j c #242e34",
".k c #b4b6b4",
".l c #d4d6d4",
".m c #444e54",
".n c #949e9c",
".o c #d4cecc",
".p c #e4eeec",
".q c #acaaac",
".r c #eceef4",
".s c #6c6e6c",
".t c #f4f6f4",
".u c #444644",
".v c #343634",
".w c #4c4e4c",
".x c #9c9e9c",
".y c #c4c6c4",
".z c #e4e6e4",
".A c #141614",
".B c #949694",
".C c #5c5e5c",
".D c #848684",
".E c #646664",
".F c #747674",
".G c #fcfefc",
".H c #3c3e3c",
".I c #1c1e1c",
".J c #7c7e7c",
".K c #bcbebc",
".L c #3c424c",
".M c #bcc6c4",
".N c #1c222c",
".O c #dce2e4",
".P c #ecf2f4",
".Q c #2c363c",
".R c #0c161c",
".S c #8c9294",
".T c #242a34",
".U c #d4d2d4",
".V c #444a54",
".W c #cccecc",
".X c #e4eaec",
".Y c #545a64",
".Z c #eceeec",
".0 c #2c2a34",
".1 c #24222c",
".2 c #f4f2f4",
".3 c #8c8e8c",
".4 c #c4c2c4",
".5 c #dcdedc",
".6 c #0c0a14",
".7 c #fcfafc",
".8 c #2c2e34",
"#` c #24262c",
"#. c #54565c",
"## c #acaeac",
"#a c #0c0e14",
"#b c #04060c",
"#c c #a4a6ac",
"#d c #eceaec",
"#e c #b4b6bc",
"#f c #949ea4",
"#g c #6c6e74",
"#h c #44464c",
"#i c #34363c",
"#j c #4c4e54",
"#k c #9c9ea4",
"#l c #e4e6ec",
"#m c #14161c",
"#n c #94969c",
"#o c #5c5e64",
"#p c #84868c",
"#q c #64666c",
"#r c #74767c",
"#s c #3c3e44",
"#t c #1c1e24",
"#u c #7c7e84",
"#v c #bcbec4",
"#w c #000000",
"#x c #000000",
"#y c #000000",
"#z c #000000",
"#A c #000000",
"#B c #000000",
"#C c #000000",
"#D c #000000",
"#E c #000000",
"#F c #000000",
"#G c #000000",
"#H c #000000",
"#I c #000000",
"#J c #000000",
"#K c #000000",
"#L c #000000",
"#M c #000000",
"#N c #000000",
"#O c #000000",
"#P c #000000",
"#Q c #000000",
"#R c #000000",
"#S c #000000",
"#T c #000000",
"#U c #000000",
"#V c #000000",
"#W c #000000",
"#X c #000000",
"#Y c #000000",
"#Z c #000000",
"#0 c #000000",
"#1 c #000000",
"#2 c #000000",
"#3 c #000000",
"#4 c #000000",
"#5 c #000000",
"#6 c #000000",
"#7 c #000000",
"#8 c #000000",
"a` c #000000",
"a. c #000000",
"a# c #000000",
"aa c #000000",
"ab c #000000",
"ac c #000000",
"ad c #000000",
"ae c #000000",
"af c #000000",
"ag c #000000",
"ah c #000000",
"ai c #000000",
"aj c #000000",
"ak c #000000",
"al c #000000",
"am c #000000",
"an c #000000",
"ao c #000000",
"ap c #000000",
"aq c #000000",
"ar c #000000",
"as c #000000",
"at c #000000",
"au c #000000",
"av c #000000",
"aw c #000000",
"ax c #000000",
"ay c #000000",
"az c #000000",
"aA c #000000",
"aB c #000000",
"aC c #000000",
"aD c #000000",
"aE c #000000",
"aF c #000000",
"aG c #000000",
"aH c #000000",
"aI c #000000",
"aJ c #000000",
"aK c #000000",
"aL c #000000",
"aM c #000000",
"aN c #000000",
"aO c #000000",
"aP c #000000",
"aQ c #000000",
"aR c #000000",
"aS c #000000",
"aT c #000000",
"aU c #000000",
"aV c #000000",
"aW c #000000",
"aX c #000000",
"aY c #000000",
"aZ c #000000",
"a0 c #000000",
"a1 c #000000",
"a2 c #000000",
"a3 c #000000",
"a4 c #000000",
"a5 c #000000",
"a6 c #000000",
"a7 c #000000",
"a8 c #000000",
/* pixels */
"#d.2.Z#d.2.Z.Z.2.Z.2#d.t#d#d.2.Z.r.t`6..#d...r.r`f.Z.Z.t.Z.t",
".2`f`O.t#d#d#d#d`H.3.y`E.Z.2`v#d#d.Z.r#d`G.S`m`m`M.Z.i`f.Z`O",
".Z.z.Z#d.Z.2.z.Z`.`8##`K.t`R.7.z`6#l`6`r#s.8.h#j`p.h#c#l.7#l",
"#d`y.K###d.Z`u.#.D`8##`L.Z.l.k..`6.P.##s`D`I#t`w#`#.#.#c.r`Z",
".Z`Q`#`8`F`e`K.B`4`W.k`2.k`K.k.Z.r.7`E`S#o`s#p`h#t.6.L`z#e..",
".2`0.I.J.l.H`e.Z.J`8`x`D`2.W.Z`6.Z`R#i`K`s#c#l..#n`t`w.h`C.X",
"#d`R.J`4`W.u#n`k.J`H.q`B.``Q.Z#l`O.y`P#s`d.2.X`Z.P.S#b`g#i#v",
".Z.f`..h`M`e`g`e.I.F.k`2.K.A`Q`F`6`e#b.H`T`Z.g.r`f`a`g`i`#`.",
".Z.5`n`u.i`1.###`o.o.l`u.i.U`G.2#d`a`V#i#.`Z`1.z.2.z.s#a.v`H",
".Z#d#d.Z.7.5`F#d.z`F.t`O.Z.2.z.Z`f.i.N.1.0`X.Z.t.Z.2.S`S`K.E",
".Z.z.t#d`O.Z.2.z#d`k#d#d.Z`O.2#l#l.n#t.6.V.Q.S.p.r.z.f`t`g`h",
".2.Z.Z#d.P.2.Z.2`v.t.2#d.Z.P.Z#f#s.N.Q.e#`.e.S...r.r.3`t`B#g",
".Z...r.P.i#q.x.X`y`6.Z.t.X.q#g`w.j.L`s`i`i.j.V`Y.Z..`d#m`g`e",
".X#d.X.Z#v`g`d.r#d.r.X`n`d`w#``p`2.N#j`.#a`4#h.a`m.Y`w.H`z`x",
"#c#g.s#r`z`2`s##.X`n`m`w#t.H.j#``U#e.O.t.S`b.N#s.d`h#j.d#u..",
"`a.w`g.0#i`7`g`p`X`P`b`K#i`w.T`x`y#l`y`A`A.q`I.1#m`b`##n.P`3",
".P#f.v`l`g.j`K.R`b`l`g`4.e.B#v.P.Z.2.i#d.Z.2.2.#.f.f.t`6.X`1",
".r.X`C.8.T#m.R.T`B#`#``h`J.O.r#l.Z#d.Z.2.z.2.z.i.X`6#l.2.2.z",
"`v.M#r`b.R`B#`#t`4#.`G.2.O..`v.Z#d.z.r.i#l.Z`O.2.Z#d.z#d.Z.Z",
".t#h`w.I#``b#m.Y.x`q.Z..`F.r#l.2.Z`y`f.Z.7.i.G#d.Z#d.t.t`6.2",
".X.w.``b.A`h#c.r.t.2.z#d.X.t.t.r.t.z#d.2.Z#d.P.Z`6`q.2#d.Z.Z",
".2`r.A.8#e.r#d.X`k.O.7.5`n.f#d#d.y`n`R.Z`u.W.q.K#d`n.l.2.l.o",
".i.z.q.##d.X.r#d.Z.Z.4.``M.J`Q.J`T##.u`Q`W.``M`2`M`E.s.Z`E.B",
".2`f.2.2.Z#d.Z#d#l`6.J.s`6#l.i``.5#d`M.u`8`E.Z##`I`J.`.2.H.r",
".2.Z`F.P.Z.Z.Z#d.Z#d.J`0`v.t`k```R#d.x`2`C`W`k.x.H`F`I.C`H.2",
"#d#d.Z#d.Z#d.Z#d.P#d.W`D.B`0`..s`X##`7`e`W`D.x`7#k.Z`H.c.z.Z",
".Z#d#d#d#d.Z#d.Z.i#d.Z`R`5.4#d.Z`u.f.U.z`W.E##.o.z`6`u`8`O.i",
".Z.Z.Z.Z.Z#d.Z#d.Z`k.P.Z#d.z.Z.Z.2#d.z`F.F.J#d.2#d.X`E.y.t.G",
".2`6.r.Z#d.Z#d.Z.r#d.z.z.2.r.Z.Z`O.2.X.Z`Q.B#d#d#d.U.C.Z#d#d",
"#d.Z#d#d#d.Z#d.Z.z.2.t#d.z`6#d.z.t`O`O.t#d.z.2.Z.Z#d.z`k...t"
};
