/* XPM */
static char *cutPlaneDone_xpm[] = {
/* width height num_colors chars_per_pixel */
"    32    32      256            2",
/* colors */
"`` c #fdfdfd",
"`. c #ffffff",
"`# c #fefefe",
"`a c #fcfcfc",
"`b c #fafafa",
"`c c #fbfbfb",
"`d c #f9f9f9",
"`e c #f8f8f8",
"`f c #c9c9c9",
"`g c #7e7e7e",
"`h c #494949",
"`i c #3c3c3c",
"`j c #6e6e6e",
"`k c #aeaeae",
"`l c #e9e9e9",
"`m c #eeeeee",
"`n c #868686",
"`o c #393939",
"`p c #3a3a3a",
"`q c #4b4b4b",
"`r c #5b5b5b",
"`s c #676767",
"`t c #6f6f6f",
"`u c #6a6a6a",
"`v c #4c4c4c",
"`w c #464646",
"`x c #3e3e3e",
"`y c #434343",
"`z c #e0e0e0",
"`A c #ececec",
"`B c #9e9e9e",
"`C c #5f5f5f",
"`D c #505050",
"`E c #525252",
"`F c #626262",
"`G c #686868",
"`H c #666666",
"`I c #646464",
"`J c #6c6c6c",
"`K c #6d6d6d",
"`L c #656565",
"`M c #575757",
"`N c #4e4e4e",
"`O c #444444",
"`P c #474747",
"`Q c #dcdcdc",
"`R c #d2d2d2",
"`S c #000000",
"`T c #060606",
"`U c #181818",
"`V c #717171",
"`W c #696969",
"`X c #6b6b6b",
"`Y c #616161",
"`Z c #5d5d5d",
"`0 c #3d3d3d",
"`1 c #1b1b1b",
"`2 c #090909",
"`3 c #010101",
"`4 c #777777",
"`5 c #2f2f2f",
"`6 c #161616",
"`7 c #1f1f1f",
"`8 c #2b2b2b",
".` c #4a4a4a",
".. c #5e5e5e",
".# c #5c5c5c",
".a c #424242",
".b c #272727",
".c c #0b0b0b",
".d c #111111",
".e c #282828",
".f c #3b3b3b",
".g c #232323",
".h c #7c7c7c",
".i c #414141",
".j c #848484",
".k c #818181",
".l c #7f7f7f",
".m c #595959",
".n c #202020",
".o c #131313",
".p c #5a5a5a",
".q c #262626",
".r c #0f0f0f",
".s c #1e1e1e",
".t c #353535",
".u c #8c8c8c",
".v c #7d7d7d",
".w c #7b7b7b",
".x c #808080",
".y c #898989",
".z c #151515",
".A c #0d0d0d",
".B c #1a1a1a",
".C c #333333",
".D c #383838",
".E c #373737",
".F c #989898",
".G c #404040",
".H c #797979",
".I c #7a7a7a",
".J c #838383",
".K c #828282",
".L c #585858",
".M c #0a0a0a",
".N c #313131",
".O c #171717",
".P c #bdbdbd",
".Q c #454545",
".R c #787878",
".S c #030303",
".T c #191919",
".U c #c0c0c0",
".V c #888888",
".W c #767676",
".X c #323232",
".Y c #e2e2e2",
".Z c #f7f7f7",
".0 c #535353",
".1 c #737373",
".2 c #050505",
".3 c #363636",
".4 c #e5e5e5",
".5 c #f2f2f2",
".6 c #515151",
".7 c #303030",
".8 c #2e2e2e",
"#` c #1c1c1c",
"#. c #3f3f3f",
"## c #c7c7c7",
"#a c #a6a6a6",
"#b c #343434",
"#c c #a5a5a5",
"#d c #020202",
"#e c #c1c1c1",
"#f c #4f4f4f",
"#g c #858585",
"#h c #2c2c2c",
"#i c #252525",
"#j c #d0d0d0",
"#k c #636363",
"#l c #141414",
"#m c #c4c4c4",
"#n c #a1a1a1",
"#o c #242424",
"#p c #1d1d1d",
"#q c #bfbfbf",
"#r c #212121",
"#s c #747474",
"#t c #979797",
"#u c #a3a3a3",
"#v c #484848",
"#w c #2a2a2a",
"#x c #222222",
"#y c #757575",
"#z c #101010",
"#A c #cdcdcd",
"#B c #cbcbcb",
"#C c #949494",
"#D c #0e0e0e",
"#E c #555555",
"#F c #909090",
"#G c #292929",
"#H c #919191",
"#I c #ededed",
"#J c #cacaca",
"#K c #000000",
"#L c #000000",
"#M c #000000",
"#N c #000000",
"#O c #000000",
"#P c #000000",
"#Q c #000000",
"#R c #000000",
"#S c #000000",
"#T c #000000",
"#U c #000000",
"#V c #000000",
"#W c #000000",
"#X c #000000",
"#Y c #000000",
"#Z c #000000",
"#0 c #000000",
"#1 c #000000",
"#2 c #000000",
"#3 c #000000",
"#4 c #000000",
"#5 c #000000",
"#6 c #000000",
"#7 c #000000",
"#8 c #000000",
"a` c #000000",
"a. c #000000",
"a# c #000000",
"aa c #000000",
"ab c #000000",
"ac c #000000",
"ad c #000000",
"ae c #000000",
"af c #000000",
"ag c #000000",
"ah c #000000",
"ai c #000000",
"aj c #000000",
"ak c #000000",
"al c #000000",
"am c #000000",
"an c #000000",
"ao c #000000",
"ap c #000000",
"aq c #000000",
"ar c #000000",
"as c #000000",
"at c #000000",
"au c #000000",
"av c #000000",
"aw c #000000",
"ax c #000000",
"ay c #000000",
"az c #000000",
"aA c #000000",
"aB c #000000",
"aC c #000000",
"aD c #000000",
"aE c #000000",
"aF c #000000",
"aG c #000000",
"aH c #000000",
"aI c #000000",
"aJ c #000000",
"aK c #000000",
"aL c #000000",
"aM c #000000",
"aN c #000000",
"aO c #000000",
"aP c #000000",
"aQ c #000000",
"aR c #000000",
"aS c #000000",
"aT c #000000",
"aU c #000000",
"aV c #000000",
"aW c #000000",
"aX c #000000",
"aY c #000000",
"aZ c #000000",
"a0 c #000000",
"a1 c #000000",
"a2 c #000000",
"a3 c #000000",
"a4 c #000000",
"a5 c #000000",
"a6 c #000000",
"a7 c #000000",
"a8 c #000000",
/* pixels */
"```.```#`#`a```#```.```#```.`#`.`.`#`.`.`a`#`.```#`.```.`.`.`.`#",
"`.`b`.`.`.`#`.`a`````.`.```.`.```#`#`#`.`.`#```.`.`b`#`.```a`.`#",
"```.```.`a`.`b`.`.`#```.`#`.`#`#`#`.`.```#`.`#`````.`.`.`c`.`d`.",
"`#`.`#`.```.`.`````.`#`#```.`#`.`.`c```.`#`#`.`.`.`.`e`.`.`c`.``",
"`.`.`b`.`.`c`.`.`.`c`.`#`f`g`h`i`h`j`k`l`.`#`b`.`.`.`.```.```.`.",
"`#`#`.`a`.`b`.`c`m`n`o`p`q`r`s`t`u`r`v`w`x`y`n`z`a```.`.`c`.`.`a",
"`.```.`a`A`B`C`D`q`E`F`t`u`u`G`H`I`J`K`u`u`L`M`N`w`O`P`Q`.`.`d`.",
"`a`.```R`S`T`U`i`E`u`V`K`W`G`I`X`u`Y`I`J`j`t`Z`0`1`2`3`O```.```#",
"`#`.`a`m`y`4`q`5`6`7`8.`..`t`t`u`W`J`K.#.a.b.c.d.e.f.g.h`.`.`.`#",
"`.`a`.`..i.j.k.l`4.m.f.n.o.g.f.p`H`P.q.r`2.s`5`x`i.t`7.u```c`.`.",
"`.```.`a`0.v.l.w.x.l.y.l`G`P.e.z.c.A.B.C.f`i.D.E.D`o`1.F`.`.`c`.",
"`a`.`.`..G.k.H.H.h.w.I.w.J.K.k.L.M.N`i`i`0`i.D.D`p.D.O.P`.```.`#",
"`.`c`c`..Q.R.h.l.h.h.v.h.h.h.y...S.D`x.E`p`p.D`p`o.C.T.U`#`.`#`.",
"`.`.`.`#`O`G.V.I.x.W.w.w.R`4`g`C.c.X.D`p`i`o`o`0`o`x.o.Y```.`.``",
"```..Z`.`..0.E.1.k.v.R.H.v.x.x`r.2.N`i.D.3`p`p.t`i`p`S.4`a`.`a`.",
"`.`.`.`#.5.f`i.G.6.w.l.l.H.H.j...2.7`i`o`o`p`p.G.8#`.y```.`c`.`.",
"```.```.`K.s`y`H`N.3...J.H.h.K.#.S.7`0.t`0`i`5.s#.`N##`.`#`.```.",
"`.`c`.``#a`r.##b.#`V`q.X`L`g.k`Y.2#b.D.i`8.B`o`n#c.##d```.`.`#``",
"`c`.`#`.#e#f#g.R`i.N.j.y.i#..k`I.2.t.3#`#h.y`f.l#i.b`U`.`.`b`.`#",
"`.`c`.`.#j`v.K.x`g#k`5...u`N`y.E`3#l.s`C#m#n.f#o.X.f#p`a`.`.`.``",
"`a`.```.`A`v.l.H.R.l.x.0.e.R.P`X#o.v#q`X.8#r.t.E`p#b#i`#`.```c`.",
"`.`#`#`#`#`P.h.H.W.k.H.l#s.a`O#t#e#u#v.g#h.f.t`o`x#w.f`.`.`.`.`.",
"`#`#```.`a`y.J.v.h.R.w.h.x.x`F.C.7`7.q`x`p.D.f`o#b#x.b`c`a`.`#`a",
"`#`#`.`c`.#v`w#y`g.w`g.I.w.h`n`K.2.N`x.f.D`o`p.X#z`q`.`.`.`#`.`.",
"`.`.```.`c`.#A#v`N.l`g.I.l.W.l`J`T.N`o.C.f.G`7`1#B`a`.`c`.`#`.`#",
"```.```#`#`#`.``#C.i.p`g.l.H.l`K#D.N`o`x.X#z`O`#`a`.`a`.`.`c`.`.",
"`#`.`.```.`.`c`.`.`..F`i#E.v`n`K.M.7`i#p.s.P`b`.`.`a`c`.`.```.``",
"`.`c`#`a```.`#`#`.`.`a`.#F`o.L`W.M#G.o#y`.`d`.`#`c`.`.`````.`.`.",
"`#`.`.`.`.`c```.`.`.`.`c`.`.#H.t`3.q#I```#`.`.`a`.`.`.```.`.`c`.",
"```.`a```.`.`.`c`#`a`.`.```a`.`##J```.`a`.`a`.`#`#`c```.`.`.`#``",
"`.```.`.`a`b`.`.`.`a`.`.`.`.`.```.`.`d`.```.`a`.`.`.`.`.`c`#`.`.",
"```.`#`a`.`.`.`#`#`.`a`.```#`.`#`.`b`.`.`#`.`.`#`#`.```.`.```.`."
};
