/* XPM */
static char *grep_rename_xpm[] = {
/* width height num_colors chars_per_pixel */
"    27    20      256            2",
/* colors */
"`` c #ffffff",
"`. c #fefefe",
"`# c #bfbfbf",
"`a c #f0f0f0",
"`b c #e0e0e0",
"`c c #d0d0d0",
"`d c #c0c0c0",
"`e c #b1b1b1",
"`f c #dfdfdf",
"`g c #efefef",
"`h c #2f2f2f",
"`i c #818181",
"`j c #303030",
"`k c #202020",
"`l c #515151",
"`m c #1f1f1f",
"`n c #f1f1f1",
"`o c #808080",
"`p c #101010",
"`q c #404040",
"`r c #616161",
"`s c #8f8f8f",
"`t c #a1a1a1",
"`u c #606060",
"`v c #505050",
"`w c #b0b0b0",
"`x c #7f7f7f",
"`y c #909090",
"`z c #9f9f9f",
"`A c #000000",
"`B c #919191",
"`C c #717171",
"`D c #cfcfcf",
"`E c #414141",
"`F c #707070",
"`G c #313131",
"`H c #a0a0a0",
"`I c #4f4f4f",
"`J c #6f6f6f",
"`K c #d1d1d1",
"`L c #111111",
"`M c #3f3f3f",
"`N c #e1e1e1",
"`O c #000000",
"`P c #000000",
"`Q c #000000",
"`R c #000000",
"`S c #000000",
"`T c #000000",
"`U c #000000",
"`V c #000000",
"`W c #000000",
"`X c #000000",
"`Y c #000000",
"`Z c #000000",
"`0 c #000000",
"`1 c #000000",
"`2 c #000000",
"`3 c #000000",
"`4 c #000000",
"`5 c #000000",
"`6 c #000000",
"`7 c #000000",
"`8 c #000000",
".` c #000000",
".. c #000000",
".# c #000000",
".a c #000000",
".b c #000000",
".c c #000000",
".d c #000000",
".e c #000000",
".f c #000000",
".g c #000000",
".h c #000000",
".i c #000000",
".j c #000000",
".k c #000000",
".l c #000000",
".m c #000000",
".n c #000000",
".o c #000000",
".p c #000000",
".q c #000000",
".r c #000000",
".s c #000000",
".t c #000000",
".u c #000000",
".v c #000000",
".w c #000000",
".x c #000000",
".y c #000000",
".z c #000000",
".A c #000000",
".B c #000000",
".C c #000000",
".D c #000000",
".E c #000000",
".F c #000000",
".G c #000000",
".H c #000000",
".I c #000000",
".J c #000000",
".K c #000000",
".L c #000000",
".M c #000000",
".N c #000000",
".O c #000000",
".P c #000000",
".Q c #000000",
".R c #000000",
".S c #000000",
".T c #000000",
".U c #000000",
".V c #000000",
".W c #000000",
".X c #000000",
".Y c #000000",
".Z c #000000",
".0 c #000000",
".1 c #000000",
".2 c #000000",
".3 c #000000",
".4 c #000000",
".5 c #000000",
".6 c #000000",
".7 c #000000",
".8 c #000000",
"#` c #000000",
"#. c #000000",
"## c #000000",
"#a c #000000",
"#b c #000000",
"#c c #000000",
"#d c #000000",
"#e c #000000",
"#f c #000000",
"#g c #000000",
"#h c #000000",
"#i c #000000",
"#j c #000000",
"#k c #000000",
"#l c #000000",
"#m c #000000",
"#n c #000000",
"#o c #000000",
"#p c #000000",
"#q c #000000",
"#r c #000000",
"#s c #000000",
"#t c #000000",
"#u c #000000",
"#v c #000000",
"#w c #000000",
"#x c #000000",
"#y c #000000",
"#z c #000000",
"#A c #000000",
"#B c #000000",
"#C c #000000",
"#D c #000000",
"#E c #000000",
"#F c #000000",
"#G c #000000",
"#H c #000000",
"#I c #000000",
"#J c #000000",
"#K c #000000",
"#L c #000000",
"#M c #000000",
"#N c #000000",
"#O c #000000",
"#P c #000000",
"#Q c #000000",
"#R c #000000",
"#S c #000000",
"#T c #000000",
"#U c #000000",
"#V c #000000",
"#W c #000000",
"#X c #000000",
"#Y c #000000",
"#Z c #000000",
"#0 c #000000",
"#1 c #000000",
"#2 c #000000",
"#3 c #000000",
"#4 c #000000",
"#5 c #000000",
"#6 c #000000",
"#7 c #000000",
"#8 c #000000",
"a` c #000000",
"a. c #000000",
"a# c #000000",
"aa c #000000",
"ab c #000000",
"ac c #000000",
"ad c #000000",
"ae c #000000",
"af c #000000",
"ag c #000000",
"ah c #000000",
"ai c #000000",
"aj c #000000",
"ak c #000000",
"al c #000000",
"am c #000000",
"an c #000000",
"ao c #000000",
"ap c #000000",
"aq c #000000",
"ar c #000000",
"as c #000000",
"at c #000000",
"au c #000000",
"av c #000000",
"aw c #000000",
"ax c #000000",
"ay c #000000",
"az c #000000",
"aA c #000000",
"aB c #000000",
"aC c #000000",
"aD c #000000",
"aE c #000000",
"aF c #000000",
"aG c #000000",
"aH c #000000",
"aI c #000000",
"aJ c #000000",
"aK c #000000",
"aL c #000000",
"aM c #000000",
"aN c #000000",
"aO c #000000",
"aP c #000000",
"aQ c #000000",
"aR c #000000",
"aS c #000000",
"aT c #000000",
"aU c #000000",
"aV c #000000",
"aW c #000000",
"aX c #000000",
"aY c #000000",
"aZ c #000000",
"a0 c #000000",
"a1 c #000000",
"a2 c #000000",
"a3 c #000000",
"a4 c #000000",
"a5 c #000000",
"a6 c #000000",
"a7 c #000000",
"a8 c #000000",
/* pixels */
"```.```.``````````````````````````````````````````````",
"`````.`````````````.`````````````````````.````````````",
"`````````````.`````````````````````.```````````.``````",
"```.```.```.```#`a```b`a`c`.`a`d`a```e`f`c```.````````",
"`````````.`g`h`i`j`.`k`l`m`n`j`o`p```q`r`q`c``````````",
"```.```````s`e```j```h```t`s`u`v`w```q```d`x``````````",
"```````````y`z`c`A```q```.`B`C```y`D`q`.`w`y``````````",
"```````````a`r`u`E```F`.```a`o`q`o```q`G`q`a```.``````",
"`````````.`````a`v```````````````````E````````````````",
"```````.```H`q`j`w```````````.```````q`````.``````````",
"```````````.```````.`````.```.`````````````````.`````.",
"`````````````.`````````````.`````````````````.````````",
"```````````.```.```.```````````````````````.```.``````",
"`H`e`I`e`D`v`v`c`c`z`u`o```c`l`u`a`C`o`F`r`J```K`v`v`c",
"`o`u`w`o`v`d`q`w`d`L`D`M`a`q`a`q```p`B`o`y`j```v`d`q`w",
"`i`#`````k`y`N`b`d`u```q`d`o```q```q```i`d`v`c`k`y`b`b",
"`o`d`````l`u`u`F`d`o```q`a`k`o`k`d`q```x`d`o`d`v`u`u`F",
"`b`a```````c`c`````N`.`c```a`d```b`c```d`b`b`a```c`c``",
"`.`````````````````.``````````````````````````````````",
"`````````````````````````````.````````````````````````"
};
