/* XPM */
static char *hashRename_xpm[] = {
/* width height num_colors chars_per_pixel */
"    28    20      256            2",
/* colors */
"`` c #ffffff",
"`. c #fefefe",
"`# c #e0e0e0",
"`a c #f0f0f0",
"`b c #f1f1f1",
"`c c #cfcfcf",
"`d c #e1e1e1",
"`e c #d0d0d0",
"`f c #606060",
"`g c #a0a0a0",
"`h c #616161",
"`i c #dfdfdf",
"`j c #414141",
"`k c #404040",
"`l c #313131",
"`m c #1f1f1f",
"`n c #202020",
"`o c #303030",
"`p c #707070",
"`q c #2f2f2f",
"`r c #0f0f0f",
"`s c #717171",
"`t c #101010",
"`u c #3f3f3f",
"`v c #4f4f4f",
"`w c #6f6f6f",
"`x c #919191",
"`y c #b0b0b0",
"`z c #909090",
"`A c #c0c0c0",
"`B c #9f9f9f",
"`C c #d1d1d1",
"`D c #c1c1c1",
"`E c #bfbfbf",
"`F c #505050",
"`G c #808080",
"`H c #5f5f5f",
"`I c #818181",
"`J c #7f7f7f",
"`K c #515151",
"`L c #b1b1b1",
"`M c #aeaeae",
"`N c #8f8f8f",
"`O c #afafaf",
"`P c #a1a1a1",
"`Q c #000000",
"`R c #000000",
"`S c #000000",
"`T c #000000",
"`U c #000000",
"`V c #000000",
"`W c #000000",
"`X c #000000",
"`Y c #000000",
"`Z c #000000",
"`0 c #000000",
"`1 c #000000",
"`2 c #000000",
"`3 c #000000",
"`4 c #000000",
"`5 c #000000",
"`6 c #000000",
"`7 c #000000",
"`8 c #000000",
".` c #000000",
".. c #000000",
".# c #000000",
".a c #000000",
".b c #000000",
".c c #000000",
".d c #000000",
".e c #000000",
".f c #000000",
".g c #000000",
".h c #000000",
".i c #000000",
".j c #000000",
".k c #000000",
".l c #000000",
".m c #000000",
".n c #000000",
".o c #000000",
".p c #000000",
".q c #000000",
".r c #000000",
".s c #000000",
".t c #000000",
".u c #000000",
".v c #000000",
".w c #000000",
".x c #000000",
".y c #000000",
".z c #000000",
".A c #000000",
".B c #000000",
".C c #000000",
".D c #000000",
".E c #000000",
".F c #000000",
".G c #000000",
".H c #000000",
".I c #000000",
".J c #000000",
".K c #000000",
".L c #000000",
".M c #000000",
".N c #000000",
".O c #000000",
".P c #000000",
".Q c #000000",
".R c #000000",
".S c #000000",
".T c #000000",
".U c #000000",
".V c #000000",
".W c #000000",
".X c #000000",
".Y c #000000",
".Z c #000000",
".0 c #000000",
".1 c #000000",
".2 c #000000",
".3 c #000000",
".4 c #000000",
".5 c #000000",
".6 c #000000",
".7 c #000000",
".8 c #000000",
"#` c #000000",
"#. c #000000",
"## c #000000",
"#a c #000000",
"#b c #000000",
"#c c #000000",
"#d c #000000",
"#e c #000000",
"#f c #000000",
"#g c #000000",
"#h c #000000",
"#i c #000000",
"#j c #000000",
"#k c #000000",
"#l c #000000",
"#m c #000000",
"#n c #000000",
"#o c #000000",
"#p c #000000",
"#q c #000000",
"#r c #000000",
"#s c #000000",
"#t c #000000",
"#u c #000000",
"#v c #000000",
"#w c #000000",
"#x c #000000",
"#y c #000000",
"#z c #000000",
"#A c #000000",
"#B c #000000",
"#C c #000000",
"#D c #000000",
"#E c #000000",
"#F c #000000",
"#G c #000000",
"#H c #000000",
"#I c #000000",
"#J c #000000",
"#K c #000000",
"#L c #000000",
"#M c #000000",
"#N c #000000",
"#O c #000000",
"#P c #000000",
"#Q c #000000",
"#R c #000000",
"#S c #000000",
"#T c #000000",
"#U c #000000",
"#V c #000000",
"#W c #000000",
"#X c #000000",
"#Y c #000000",
"#Z c #000000",
"#0 c #000000",
"#1 c #000000",
"#2 c #000000",
"#3 c #000000",
"#4 c #000000",
"#5 c #000000",
"#6 c #000000",
"#7 c #000000",
"#8 c #000000",
"a` c #000000",
"a. c #000000",
"a# c #000000",
"aa c #000000",
"ab c #000000",
"ac c #000000",
"ad c #000000",
"ae c #000000",
"af c #000000",
"ag c #000000",
"ah c #000000",
"ai c #000000",
"aj c #000000",
"ak c #000000",
"al c #000000",
"am c #000000",
"an c #000000",
"ao c #000000",
"ap c #000000",
"aq c #000000",
"ar c #000000",
"as c #000000",
"at c #000000",
"au c #000000",
"av c #000000",
"aw c #000000",
"ax c #000000",
"ay c #000000",
"az c #000000",
"aA c #000000",
"aB c #000000",
"aC c #000000",
"aD c #000000",
"aE c #000000",
"aF c #000000",
"aG c #000000",
"aH c #000000",
"aI c #000000",
"aJ c #000000",
"aK c #000000",
"aL c #000000",
"aM c #000000",
"aN c #000000",
"aO c #000000",
"aP c #000000",
"aQ c #000000",
"aR c #000000",
"aS c #000000",
"aT c #000000",
"aU c #000000",
"aV c #000000",
"aW c #000000",
"aX c #000000",
"aY c #000000",
"aZ c #000000",
"a0 c #000000",
"a1 c #000000",
"a2 c #000000",
"a3 c #000000",
"a4 c #000000",
"a5 c #000000",
"a6 c #000000",
"a7 c #000000",
"a8 c #000000",
/* pixels */
"```````````````````````````````````````````````.````````",
"```````#```a`#```````#```#`b`````a`a```c`````.`d`````e``",
"`````#`f`.`g`g`````g`g```h`#`````f`i```j`.`````k```#`f``",
"`e`k`l`m`j`n`o`p`k`n`q`k`r`k`s`k`t`j`k`r`s`u`k`t`k`o`n`g",
"`````v`a```k```````k```e`s`````e`w`.`x`y`````z`y```v`b``",
"`i`A`l`A`B`j`e`C`z`h`A`w`s`#`A`f`z`A`k`g`#`D`o`A`A`n`E``",
"`D`k`F`G`k`H`g`g`n`p`I`n`J`D`G`t`G`G`n`I`E`f`o`G`f`k`G``",
"```K`#```F`a`````o`````j`````e`f```A`G`````x`g```G`A````",
"````````````````````````````````````````````````````````",
"`````.`````.`````````.```````.``````````````````````````",
"`````````````.`````````.```````````````````.````````````",
"```````.`````````````````````````.`````````````.`.``````",
"```.```````.`````````````.```.``````````````````````````",
"```L`A`z```A`I`A```M`#`G`a```g`z`a`A`C`z`e`G`a```A`I`D`.",
"```t`J`o`i`k`B`t`.`j`k`N`x`p`z`f`O`G`q`P`r`p`G`#`k`g`t``",
"```k```c`G`f`p`#```k`e`A`G`u```G`A`G`y```j`A`f`G`f`p`#``",
"```k`````g`F`A`F`e`k```A`G`o`y`F`g`G`A```k```k`g`F`A`F`e",
"```P```````A`G`A```y```d`E`d`J`A`y`A`#```p```g```A`G`A``",
"```````````.`.```````````````.``````````````````````````",
"`````````.``````````````````````````````````````````````"
};
