/* XPM */
static char *ikStretch_xpm[] = {
/* width height num_colors chars_per_pixel */
"    23    26      256            2",
/* colors */
"`` c #fffeff",
"`. c #ffffff",
"`# c #feffff",
"`a c #fdffff",
"`b c #fffffe",
"`c c #fce3e0",
"`d c #ee8d82",
"`e c #e12819",
"`f c #f9d5d1",
"`g c #fdfffe",
"`h c #fff2f1",
"`i c #ee8e86",
"`j c #e34634",
"`k c #df1a06",
"`l c #dd1c08",
"`m c #df2a14",
"`n c #fffffd",
"`o c #b0b0b0",
"`p c #30302f",
"`q c #010000",
"`r c #0e0f10",
"`s c #616060",
"`t c #f1efee",
"`u c #fcd4d1",
"`v c #eb7164",
"`w c #dd1b08",
"`x c #df1b07",
"`y c #e55346",
"`z c #afb0af",
"`A c #0f0e10",
"`B c #9f9f9e",
"`C c #e1dfe1",
"`D c #4e4e4f",
"`E c #303232",
"`F c #ec7f71",
"`G c #df1a07",
"`H c #f08d83",
"`I c #fefffd",
"`J c #312f2f",
"`K c #a09ea1",
"`L c #1e1f1e",
"`M c #fffdff",
"`N c #f3aba0",
"`O c #e12916",
"`P c #fce4e1",
"`Q c #ea8074",
"`R c #f2aaa2",
"`S c #000000",
"`T c #fcfffe",
"`U c #7f7f7c",
"`V c #fefffe",
"`W c #f7c6c0",
"`X c #df1b0a",
"`Y c #f8d5cf",
"`Z c #fcf3ef",
"`0 c #100f12",
"`1 c #e0dee0",
"`2 c #fdfefd",
"`3 c #5e6060",
"`4 c #fffdfd",
"`5 c #fbd5d0",
"`6 c #df2917",
"`7 c #f3a9a4",
"`8 c #fdfefc",
".` c #605f60",
".. c #4e4f4c",
".# c #cecfcf",
".a c #000002",
".b c #faf5f4",
".c c #e44736",
".d c #ee8d81",
".e c #fffdfe",
".f c #c4dbc8",
".g c #05240e",
".h c #1d201d",
".i c #827e83",
".j c #615e5f",
".k c #000100",
".l c #a1a09e",
".m c #fffefe",
".n c #fcffff",
".o c #e95345",
".p c #e97165",
".q c #f1faf4",
".r c #219840",
".s c #a6d6b3",
".t c #b2aeb1",
".u c #817f85",
".v c #dfe1e2",
".w c #fefeff",
".x c #e34633",
".y c #fef1ef",
".z c #fffefd",
".A c #4ead65",
".B c #6db97f",
".C c #20211d",
".D c #ced0d0",
".E c #fffffc",
".F c #fdfeff",
".G c #f2aba2",
".H c #e02917",
".I c #fdf2f1",
".J c #8cc79a",
".K c #3ea55a",
".L c #f1faf2",
".M c #3e413f",
".N c #c0c0c0",
".O c #fffefc",
".P c #f8b8b3",
".Q c #e02817",
".R c #fbd4ce",
".S c #c6e5cd",
".T c #21983f",
".U c #d3ecd9",
".V c #726f70",
".W c #7f817f",
".X c #eb7e73",
".Y c #f7d5d0",
".Z c #df2a15",
".0 c #f3aaa2",
".1 c #f0f9f2",
".2 c #239841",
".3 c #a9d5b6",
".4 c #fefefe",
".5 c #81807f",
".6 c #6f706f",
".7 c #fbffff",
".8 c #df1b09",
"#` c #f29a94",
"#. c #e43925",
"## c #f19b91",
"#a c #fcfffd",
"#b c #4fac64",
"#c c #6dbb80",
"#d c #c1bfc0",
"#e c #423f42",
"#f c #fbe4e0",
"#g c #de1b07",
"#h c #dd1c06",
"#i c #e54634",
"#j c #fcfeff",
"#k c #89c896",
"#l c #3fa857",
"#m c #f1f7f2",
"#n c #d0cfcf",
"#o c #202122",
"#p c #f6b7b2",
"#q c #dc1c04",
"#r c #de1d04",
"#s c #e23825",
"#t c #f4a9a1",
"#u c #c6e3d0",
"#v c #239842",
"#w c #d4ead9",
"#x c #ed7f73",
"#y c #f19b92",
"#z c #fce4df",
"#A c #f1f8f5",
"#B c #329e4c",
"#C c #98cfa7",
"#D c #202020",
"#E c #d0d0d0",
"#F c #e97263",
"#G c #f8c7c2",
"#H c #5bb475",
"#I c #5fb474",
"#J c #404040",
"#K c #5fb473",
"#L c #86b692",
"#M c #100f11",
"#N c #568f68",
"#O c #32a04a",
"#P c #f4f7f2",
"#Q c #f0f0f0",
"#R c #313131",
"#S c #808080",
"#T c #b7d2bf",
"#U c #13872e",
"#V c #578562",
"#W c #f1eeef",
"#X c #a1bca5",
"#Y c #159132",
"#Z c #738b7b",
"#0 c #c1c0c4",
"#1 c #b0b0af",
"#2 c #7f807f",
"#3 c #72706f",
"#4 c #3f413f",
"#5 c #303030",
"#6 c #010101",
"#7 c #6f6f6f",
"#8 c #e1e1e1",
"a` c #91908d",
"a. c #425a4a",
"a# c #239740",
"aa c #96cfa8",
"ab c #339d4e",
"ac c #77af87",
"ad c #020100",
"ae c #000200",
"af c #2e3031",
"ag c #403f41",
"ah c #72716f",
"ai c #7f7f7f",
"aj c #b1afb1",
"ak c #7e7f7f",
"al c #706f70",
"am c #d1e9d7",
"an c #139331",
"ao c #329e4e",
"ap c #efeeef",
"aq c #c1c1c0",
"ar c #1e1f22",
"as c #89bf97",
"at c #319e4d",
"au c #40a458",
"av c #3e894f",
"aw c #404140",
"ax c #fffcff",
"ay c #fefefd",
"az c #566b59",
"aA c #149133",
"aB c #56695a",
"aC c #414941",
"aD c #0f762a",
"aE c #5baa6f",
"aF c #f2f9f2",
"aG c #f1f9f3",
"aH c #319f4e",
"aI c #909090",
"aJ c #e1e9e3",
"aK c #40a65b",
"aL c #b7ddc0",
"aM c #7ac28b",
"aN c #000000",
"aO c #000000",
"aP c #000000",
"aQ c #000000",
"aR c #000000",
"aS c #000000",
"aT c #000000",
"aU c #000000",
"aV c #000000",
"aW c #000000",
"aX c #000000",
"aY c #000000",
"aZ c #000000",
"a0 c #000000",
"a1 c #000000",
"a2 c #000000",
"a3 c #000000",
"a4 c #000000",
"a5 c #000000",
"a6 c #000000",
"a7 c #000000",
"a8 c #000000",
/* pixels */
"```.`.`.`.```.`#`a`#`b`.`c`d`e`f`.```#`.`g`.`#",
"`.`.`#`.`.`.`.`.```h`i`j`k`l`m`b`n`o`p`q`r`s`t",
"`.`#`#`.`.`````.`.`.`u`v`w`x`y`b`z`A`B`b`C`D`E",
"`.`.`.`.`.`.`.`.`b`#`.`F`j`G`H`I`J`K`.`b`#`.`L",
"`.`.`.`.`.`#`#`.`M`#`N`O`P`Q`R```S`.`T`.`a`.`U",
"```.```.`.`V`.`.`.`W`X`Y`M`Z`c```0`1`.`.`2`b`3",
"`.`.```.`#`.`.`4`5`6`7```.`8`n`b.`..`.`a`..#.a",
"`#`.`.`.`.`.`4.b.c.d`n`..e`#`M`V.f.g.h.i.j.k.l",
"`b```#.m`..m.n.o.p`.`b`b```#`..q.r.s.t.u`q.v`b",
".w`I`n`I```b.p.x.y`.`.`#`I`..z.A.B`b`V`n.C.D`.",
".E.F`n```g.G.H.I`.`.`g`#`#`I.J.K.L`.`#.E.M.N.O",
"`n.w`.`b.P.Q.R`#`n.m`#`n``.S.T.U`.`#`.`..V.W`.",
"`n.X.w.Y.Z.0`n.n`.`b```a.1.2.3`g`V`..4`#.5.6.7",
"`M.8#`#.##`.`.``#a`b`.``#b#c`````a`n`.``#d#e.z",
"#f#g#h#i`.#j`.`.`.`a`I#k#l#m`n`#`#`.```##n#o`V",
"#p#q#r`w#s#t```V`n`b#u#v#w`.```.`.`#```V`.`q`.",
"#x`G.c#y#z`#`.`#`V#A#B#C.w`I`.```.`..4`.`.#D#E",
"#F#G.4`.`a```.`b``#H#I```V`n`a`b.4`.`..4`.#J.N",
"`g`.`##K#L.M`S#M#N#O#P```g`#`.`a`..4#Q.N`o#R#S",
"`.`I``#T#U#V#W#X#Y#Z#Q#0#1#2#3#4#5#6`S#5#J#7#8",
"`````#a`a.a#aaabacadaeafagahaiaj.N#Q`..4`.`.`.",
"`#`.`Iakalamanaoap`S`V`b`.`V`..w`.`.`.`..4`.`.",
"`..E``aqarasatauavawax`n`a`b```.`.`.`.`.`..4`.",
"`#`n`.ayazaAaBaCaDaEaF.m`#```.`V.4`.`.`..4`.`.",
"`.`b`.aGaHac#SaIaJaK.U`V```V`.`.`.`.`.`.`.`.`.",
"`.`#`#aLaM`b`.`.`.`.`.`.`.`.`.`.`.`.`.`.`.`.`."
};
