/* XPM */
static char *makeRoll_xpm[] = {
/* width height num_colors chars_per_pixel */
"    25    22      256            2",
/* colors */
"`` c #040204",
"`. c #448a64",
"`# c #8cc2bc",
"`a c #844e3c",
"`b c #0c5a34",
"`c c #d4c2bc",
"`d c #a48674",
"`e c #0c221c",
"`f c #d4e6dc",
"`g c #9ca2a4",
"`h c #44423c",
"`i c #9cdacc",
"`j c #b46654",
"`k c #acc6bc",
"`l c #ecf2ec",
"`m c #7caaa4",
"`n c #3c2a1c",
"`o c #d48264",
"`p c #94cec4",
"`q c #7c7e7c",
"`r c #240e0c",
"`s c #0c6234",
"`t c #648284",
"`u c #ece2dc",
"`v c #bc968c",
"`w c #446264",
"`x c #9c5e54",
"`y c #243634",
"`z c #04120c",
"`A c #a4d2cc",
"`B c #b4b2b4",
"`C c #2c463c",
"`D c #64967c",
"`E c #5c6264",
"`F c #ecfaec",
"`G c #94d6c4",
"`H c #bc9a8c",
"`I c #d4dad4",
"`J c #2c220c",
"`K c #e47e64",
"`L c #eceee4",
"`M c #bc765c",
"`N c #accebc",
"`O c #542e24",
"`P c #ac624c",
"`Q c #1c120c",
"`R c #344e4c",
"`S c #84563c",
"`T c #d4eee4",
"`U c #9ccec4",
"`V c #bcbebc",
"`W c #749e84",
"`X c #6c6e6c",
"`Y c #fcfaf4",
"`Z c #140e0c",
"`0 c #9cc6bc",
"`1 c #e4e2dc",
"`2 c #94b2ac",
"`3 c #8cb6b4",
"`4 c #d48a6c",
"`5 c #2c624c",
"`6 c #c49284",
"`7 c #e4dedc",
"`8 c #242224",
".` c #54827c",
".. c #8ccabc",
".# c #9c9a9c",
".a c #c4dad4",
".b c #dc866c",
".c c #7c8284",
".d c #ece2e4",
".e c #44765c",
".f c #9c665c",
".g c #2c3234",
".h c #3c4244",
".i c #649e84",
".j c #c49a8c",
".k c #f4eaec",
".l c #c47e64",
".m c #bccebc",
".n c #141a1c",
".o c #040e0c",
".p c #24564c",
".q c #cccecc",
".r c #1c2214",
".s c #445a54",
".t c #b46e5c",
".u c #f4f2ec",
".v c #84b294",
".w c #3c3e3c",
".x c #ac6e74",
".y c #341a0c",
".z c #64625c",
".A c #9cd6cc",
".B c #dcdadc",
".C c #c4765c",
".D c #543624",
".E c #8c5a54",
".F c #9cd2c4",
".G c #c4babc",
".H c #fcfef4",
".I c #3c7e64",
".J c #c49694",
".K c #4c8a6c",
".L c #8c523c",
".M c #14563c",
".N c #142a24",
".O c #dce2dc",
".P c #a4a2a4",
".Q c #a4dad4",
".R c #c4c2c4",
".S c #d4866c",
".T c #94d2c4",
".U c #8c7e7c",
".V c #648a84",
".W c #ece6d4",
".X c #a46254",
".Y c #0c1214",
".Z c #a4d6cc",
".0 c #c4a69c",
".1 c #6c9684",
".2 c #f4fafc",
".3 c #342214",
".4 c #b4cec4",
".5 c #ac6654",
".6 c #34524c",
".7 c #845a3c",
".8 c #6c7674",
"#` c #e4e6e4",
"#. c #94929c",
"## c #a4beb4",
"#a c #2c6e54",
"#b c #2c2e34",
"#c c #c4eadc",
"#d c #547674",
"#e c #748e8c",
"#f c #2c3e3c",
"#g c #1c6244",
"#h c #3c625c",
"#i c #546664",
"#j c #342624",
"#k c #c4725c",
"#l c #c4d6cc",
"#m c #4c7a74",
"#n c #1c3e3c",
"#o c #3c1e1c",
"#p c #3c4a4c",
"#q c #142624",
"#r c #b4cac4",
"#s c #9cb6a4",
"#t c #5c8684",
"#u c #6c9a8c",
"#v c #d4cacc",
"#w c #4c5654",
"#x c #64928c",
"#y c #acd2cc",
"#z c #a49e9c",
"#A c #1c1a1c",
"#B c #bc725c",
"#C c #343a3c",
"#D c #847e84",
"#E c #7c9e8c",
"#F c #1c0e04",
"#G c #94cabc",
"#H c #0c0e14",
"#I c #443e44",
"#J c #0c0204",
"#K c #a4665c",
"#L c #c49a9c",
"#M c #84b2a4",
"#N c #5c3624",
"#O c #cca69c",
"#P c #9ca69c",
"#Q c #2c4a44",
"#R c #d4dedc",
"#S c #6c7274",
"#T c #c4968c",
"#U c #f4eeec",
"#V c #f4f6f4",
"#W c #341e14",
"#X c #c47a5c",
"#Y c #0c161c",
"#Z c #8cc6bc",
"#0 c #84523c",
"#1 c #9cdecc",
"#2 c #7caea4",
"#3 c #9c6254",
"#4 c #5c6664",
"#5 c #1c160c",
"#6 c #8cbab4",
"#7 c #9c9e9c",
"#8 c #ece6e4",
"a` c #3c4644",
"a. c #dcdedc",
"a# c #145a3c",
"aa c #648e84",
"ab c #f4fefc",
"ac c #1c1e1c",
"ad c #448a6c",
"ae c #d4826c",
"af c #bc9694",
"ag c #94d6cc",
"ah c #bc9a94",
"ai c #eceeec",
"aj c #542e2c",
"ak c #ac6254",
"al c #845644",
"am c #9ccecc",
"an c #bcbec4",
"ao c #fcfafc",
"ap c #e4e2e4",
"aq c #c4928c",
"ar c #e4dee4",
"as c #dc8674",
"at c #c49a94",
"au c #ccced4",
"av c #445a5c",
"aw c #f4f2f4",
"ax c #3c3e44",
"ay c #646264",
"az c #9cd6d4",
"aA c #c47664",
"aB c #9cd2cc",
"aC c #c4bac4",
"aD c #fcfefc",
"aE c #dce2e4",
"aF c #94d2cc",
"aG c #ece6dc",
"aH c #a4d6d4",
"aI c #34221c",
"aJ c #345254",
"aK c #94cac4",
"aL c #f4eef4",
"aM c #000000",
"aN c #000000",
"aO c #000000",
"aP c #000000",
"aQ c #000000",
"aR c #000000",
"aS c #000000",
"aT c #000000",
"aU c #000000",
"aV c #000000",
"aW c #000000",
"aX c #000000",
"aY c #000000",
"aZ c #000000",
"a0 c #000000",
"a1 c #000000",
"a2 c #000000",
"a3 c #000000",
"a4 c #000000",
"a5 c #000000",
"a6 c #000000",
"a7 c #000000",
"a8 c #000000",
/* pixels */
"abaDaD`N.K`..v#s#VaDaDaDaDaDaDaDaDaDaDaDaDaDaDaDaD",
"aoaoaoaD.1`b`b`5#RaDaDar.RaLaDaoaDaDaDaDaDaDaDaDaD",
"aDaDaDao`F`b`D`T#U#D#H.o#f``ac.PaDaDaDaDaDaDaDaDaD",
"aDaDaDaD.e`W`Y`l.g`y`m`i.TaB#e#Y#4aoaDaDaDaDaDaDaD",
"aDaoaD`k.IabaD.g.p`A.A.Aag.AaF#G#q#SaDaoaDaDaDaDaD",
"aDaDaD.I.m`Y`g.n`A.A.FaBaBaz.AaB`2`z.BaDaDaDaDaDaD",
"aDaDaia#`Y.H#I#t`G`iaFagazaF.Aag#yaJ`qaDaDaDaDaDaD",
"aDaD.a.I.HaD#H`3.Aam.Aagaz.A.AaB#m#d#waoaDaDaDaDaD",
"aDaD#ladaDaD#J#G.AaFag`iaB.A`AaB`##n.waoaDaDaDaDaD",
"aDabawa#aDaD#I#x`U.Q.AaB`p.AaBaJ#G.s#SaDaoaDaDaDaD",
"aoaDaD#a`f.H#D`C`i#M`w.T`##t`p#G`R`ean`YaDaDaDaDaD",
"aDaDaD#E.iaD.k#H`tag`m#h`p#t.VaF#p.haoaDaDaDaDaDaD",
"abaDaD`L.M#caD.q.Y#i.F#Mav`A#m.gacawaDaoaDaDaDaDaD",
"aDaDaDao`k#g.4aDau#I#H#f#Q#q```EaiaDaoaDaDaDaDaDaD",
"aDaDaoaD.H.4#u.HaDao#v#z`q`B`7aDaoaDaDaDaDaDaDaDaD",
"aDaDaDaDabaoaDaDaoaDaDaDaoaoabaDaDaDaDaDaDaoaDaDaD",
"aDaDaDaDaDaDab.WaG.dap#8`7#8#8`1.d.d#8`1.d#UaDaDaD",
"a.#`aoaD.BaEao.x.C.5ak`M#X`M`jak#X#k#B.5#K.0`Y`7#7",
"`qayaC.G.z`E.G.E#K`O`O.fak`xaj`O.X.X#K`O`O.U.R#..w",
".cac#Ia`.nac`h.y#W#F#5`J.3`n#F`ZaI#o.3#F`r#j.w#b.w",
".P.#aDab#P#z.H`d.b#0`Sae`Kae#0#0.S.b`4`aal.0aDau`X",
"aDaDaDao.HaDaDaqaq#Lah#T#T.J#Lat`H`6`v`Hah`caDaoaD"
};
