/* XPM */
static char *mergeSnap_xpm[] = {
/* width height num_colors chars_per_pixel */
"    30    30      256            2",
/* colors */
"`` c #040204",
"`. c #4c82bc",
"`# c #fc060c",
"`a c #c4c2c4",
"`b c #3c4244",
"`c c #dce2e4",
"`d c #acaaac",
"`e c #142234",
"`f c #f44a64",
"`g c #ecf2f4",
"`h c #546e8c",
"`i c #f4261c",
"`j c #848684",
"`k c #0c1214",
"`l c #ecfafc",
"`m c #6486ac",
"`n c #f41a0c",
"`o c #343234",
"`p c #54728c",
"`q c #ecc6cc",
"`r c #545254",
"`s c #f48e94",
"`t c #f4e2e4",
"`u c #4c8ac4",
"`v c #34526c",
"`w c #1c1a1c",
"`x c #fcfee4",
"`y c #f4220c",
"`z c #f4eee4",
"`A c #d4d2d4",
"`B c #242224",
"`C c #040a14",
"`D c #f43a44",
"`E c #747274",
"`F c #242a2c",
"`G c #b4b6b4",
"`H c #f4666c",
"`I c #fcf2f4",
"`J c #646264",
"`K c #9c9a9c",
"`L c #fc162c",
"`M c #fcb2bc",
"`N c #141a14",
"`O c #343a3c",
"`P c #547eb4",
"`Q c #fcfaf4",
"`R c #fceef4",
"`S c #2c2a24",
"`T c #6c6a6c",
"`U c #040614",
"`V c #5c82ac",
"`W c #ec0e0c",
"`X c #cccacc",
"`Y c #3c4e5c",
"`Z c #7c92ac",
"`0 c #648ebc",
"`1 c #fc1614",
"`2 c #647284",
"`3 c #f4dad4",
"`4 c #5c8ab4",
"`5 c #445a74",
"`6 c #040604",
"`7 c #f45a64",
"`8 c #fc2634",
".` c #141214",
".. c #f4fafc",
".# c #5c7a8c",
".a c #5c5a5c",
".b c #ec9e94",
".c c #fce6fc",
".d c #241e1c",
".e c #fceaec",
".f c #dcdadc",
".g c #f43e44",
".h c #c4bebc",
".i c #fcf2fc",
".j c #3c3e3c",
".k c #fcfef4",
".l c #fc0e0c",
".m c #5482ac",
".n c #eceeec",
".o c #b4b2b4",
".p c #f4f2f4",
".q c #74869c",
".r c #547694",
".s c #fcc2c4",
".t c #fce2dc",
".u c #548acc",
".v c #3c5264",
".w c #1c1e1c",
".x c #fc2224",
".y c #0c0e0c",
".z c #242e34",
".A c #bcbebc",
".B c #fc7e84",
".C c #6c6664",
".D c #fcbea4",
".E c #2c2e2c",
".F c #6c6e6c",
".G c #d4cecc",
".H c #4c4e4c",
".I c #949294",
".J c #fc1a1c",
".K c #fc2e44",
".L c #141614",
".M c #fca2a4",
".N c #fceee4",
".O c #04020c",
".P c #c4c6c4",
".Q c #444644",
".R c #e4e2e4",
".S c #acaeac",
".T c #fc4e5c",
".U c #8c8e8c",
".V c #ecfefc",
".W c #6c829c",
".X c #f41a1c",
".Y c #343634",
".Z c #547294",
".0 c #f4c6c4",
".1 c #545654",
".2 c #fcfeec",
".3 c #fc220c",
".4 c #d4d6dc",
".5 c #242624",
".6 c #fc363c",
".7 c #747674",
".8 c #242a34",
"#` c #bcb6b4",
"#. c #fc727c",
"## c #a4a6a4",
"#a c #ec122c",
"#b c #fcbabc",
"#c c #f4626c",
"#d c #6c92b4",
"#e c #fcdedc",
"#f c #645e5c",
"#g c #5486bc",
"#h c #3c5674",
"#i c #fc3e4c",
"#j c #fce2ec",
"#k c #fcf6ec",
"#l c #fc1a0c",
"#m c #445e7c",
"#n c #fc1214",
"#o c #548ec4",
"#p c #646664",
"#q c #fc1a2c",
"#r c #cccecc",
"#s c #fc2a34",
"#t c #f4fefc",
"#u c #dcdedc",
"#v c #fcf6fc",
"#w c #f4f6f4",
"#x c #949694",
"#y c #141a1c",
"#z c #343a44",
"#A c #fcfafc",
"#B c #fceefc",
"#C c #2c2a2c",
"#D c #5c82b4",
"#E c #5c8abc",
"#F c #04060c",
"#G c #3c3e44",
"#H c #fcfefc",
"#I c #1c1e24",
"#J c #0c0e14",
"#K c #6c6e74",
"#L c #4c4e54",
"#M c #14161c",
"#N c #fca2ac",
"#O c #fceeec",
"#P c #000000",
"#Q c #000000",
"#R c #000000",
"#S c #000000",
"#T c #000000",
"#U c #000000",
"#V c #000000",
"#W c #000000",
"#X c #000000",
"#Y c #000000",
"#Z c #000000",
"#0 c #000000",
"#1 c #000000",
"#2 c #000000",
"#3 c #000000",
"#4 c #000000",
"#5 c #000000",
"#6 c #000000",
"#7 c #000000",
"#8 c #000000",
"a` c #000000",
"a. c #000000",
"a# c #000000",
"aa c #000000",
"ab c #000000",
"ac c #000000",
"ad c #000000",
"ae c #000000",
"af c #000000",
"ag c #000000",
"ah c #000000",
"ai c #000000",
"aj c #000000",
"ak c #000000",
"al c #000000",
"am c #000000",
"an c #000000",
"ao c #000000",
"ap c #000000",
"aq c #000000",
"ar c #000000",
"as c #000000",
"at c #000000",
"au c #000000",
"av c #000000",
"aw c #000000",
"ax c #000000",
"ay c #000000",
"az c #000000",
"aA c #000000",
"aB c #000000",
"aC c #000000",
"aD c #000000",
"aE c #000000",
"aF c #000000",
"aG c #000000",
"aH c #000000",
"aI c #000000",
"aJ c #000000",
"aK c #000000",
"aL c #000000",
"aM c #000000",
"aN c #000000",
"aO c #000000",
"aP c #000000",
"aQ c #000000",
"aR c #000000",
"aS c #000000",
"aT c #000000",
"aU c #000000",
"aV c #000000",
"aW c #000000",
"aX c #000000",
"aY c #000000",
"aZ c #000000",
"a0 c #000000",
"a1 c #000000",
"a2 c #000000",
"a3 c #000000",
"a4 c #000000",
"a5 c #000000",
"a6 c #000000",
"a7 c #000000",
"a8 c #000000",
/* pixels */
"#H#H#H#w#H#A#H#H#H#w#H#H#H#A#H#H#v#H#H#H#H#t.V#H#t`Q#H#H#H#H",
"#A#A#H#H#H.G`a`A#A#H#H#A#H#H#H#H#H#H.V`Q#A#H.i.c#A#H#t#H#H#t",
"#H#H#H#H`j.5.y`B#x#H#H#H#H#H#H#H#A#H#H#H#H#t#t#H#H#H#H#t#t#H",
"#H#H#H#H`J`w.L`w.a#A#A#H#H#H#H#H#H#H#H#v#A#A#H.k#H..#H#H#H#H",
"#H#H#H#A`r.L#I.L`r#H#H#H#H#H#H#H`Q#H#H#H#H#H`x`x#O#H#v#H#H#v",
"#A#H#H#A`E.L`w.w.a#H#H#H#H#H#H#H#H#H#H#H.e#N`7#i#c.k.V#H#H.V",
"#H#H#A#A.I.w`w.L.U#H#A#H#H#H#H#A#H#A..#H#H#N.6#n`8.k#t#A#k#t",
"#H#A#H#H#x.`.w`w`K#H#H#H#H#A#H#H#H#H#A#H.t`H`W#l.x.t#H#H#H#H",
"#H#H#H#A`d.L.L`w#x#A#H#H#H#H#H#H#H#A#H#H.b`#.x`D.t`t#A#H#H#A",
"#H#H#H#H.A`w`w.L###H#A#H#H#H#H#H#H#H#H.0`8.3`L`M#H#v#H#H#H#H",
"#H#H#H#A`X.L.w`w.A#H#H#H#H#H#H#H.k.i#B.T.l`n#.#H#H#A#H#H#H#H",
"#H#H#A#H.f.``w.L.A#v#H#H#H#H#H#H.k#H`s`1.3#i`z#t#H#A#H#H#H#H",
"#H#H#H#H.p`w.L`w`A#w#H#H#H#H#H#H#H`3#q.3`n`M#H#v#H#H#H#H#H#H",
"#H#H#H#H#H.5.``w#A#H#H#H#H#H#H#H#B.T`1#n.B#H#A`Q#H#H#H#H#H#H",
"#H#H#A#A#H.Y`w`N#H#H#H#H#H#H#H#H`q#a`i.K#O#t#H#H#H#H#H#H#H#H",
"#H#H#H#H#H`r`w.L#H#A#H#H#H#H#H#H.2.D#s.s#A#A#H#H#H#H#H#A#A#H",
"#H#H#A#H#A`r`w.Q#H#H.i#H#H.k#k.k#H#v#H#H#H#A#H#H#H#H#H#H#H#H",
"#H#A#H#A#H.U`w.1#A#H#H#A#`#p.E#y`w#C#f#`#H#H#A#H#H#H#H#H#H#H",
"#H#H#H#A#A#x.w`r#H#H#A.S#G`````U.O````.j#`#H#v#H#H#H#H#H#H#H",
"#H#H#H#H#A`K.L`E#H#H`c#L```e#h.Z.W`2#z.O`J#H#H#H#H#H#H#H#H#H",
"#H#H#H#H#H`G.w`K#H#t`c.w``#h`V`0`m`Z`2```S#H#H#H#H#H#H#H#H#H",
"#H#H#H#A#H#H#`#u#H#H.n#J.O`h#D#g#E#d.W.O`w#H#H#H#H#H#H#H#H#H",
"#H#H#H#H#H#v#H#w..#H.p.L`C.Z`4`.#o.m`h#F.w#H.k#H#H#H#H#H#H#H",
"#H#A#H#A`A#p.1`T.4#H#H.d.O`v#g`u.u`P#m.O.w#H.k#H#H#H#H#H#H#H",
"#A#H#H#H.Q`w.`.w`O#H#A.C```F.v.#`p.v.z``.C`Q#H#H#H#H#H#H#H#H",
"#H#H#H#v.5.w.w#M#J#H#A.h.E````.O#F.O```o#`#H#A#H#H#H#H#H#H#H",
"#H#H#A#H.E`w.L`w.j.p#H#H.o#K.5#y#y.5#p.P..#H#H#H#H#H#H#H#H#H",
"#H#H#H#w`A.F`r`J.G#H#H#A#H#A#A`Q#H#A#w.p#H#H#A#H#H#H#H#H#H#H",
"#A#H#A#H#H#v#H#H#H#H#H#H#H#H#H#H`Q#H#H..#H#H#A#H#H#H#H#H#H#H",
"#H#H#H#H#A#H#H#H.p#H#H#H.p#H#H#H#H#H#H#H#H#A#H#H#H#H#H#H#H#H"
};
