/* XPM */
static char *mergeMult_xpm[] = {
/* width height num_colors chars_per_pixel */
"    30    30      256            2",
/* colors */
"`` c #040204",
"`. c #5c8254",
"`# c #941e4c",
"`a c #24423c",
"`b c #64c654",
"`c c #4c1a2c",
"`d c #042634",
"`e c #5c6254",
"`f c #8c8e8c",
"`g c #240e1c",
"`h c #bcc2bc",
"`i c #547294",
"`j c #041204",
"`k c #f4e2ec",
"`l c #242224",
"`m c #6ca25c",
"`n c #bc265c",
"`o c #4c7a3c",
"`p c #acaaac",
"`q c #243614",
"`r c #f4f2f4",
"`s c #5486b4",
"`t c #4c4e4c",
"`u c #64625c",
"`v c #ecfefc",
"`w c #141214",
"`x c #dc266c",
"`y c #140204",
"`z c #b4b6ac",
"`A c #040a04",
"`B c #34222c",
"`C c #6482a4",
"`D c #141a14",
"`E c #646a64",
"`F c #b4beb4",
"`G c #242a24",
"`H c #bc3264",
"`I c #343634",
"`J c #8c3254",
"`K c #ac969c",
"`L c #241a1c",
"`M c #ccd2d4",
"`N c #644a54",
"`O c #fcfaf4",
"`P c #040614",
"`Q c #245664",
"`R c #acc6bc",
"`S c #547aa4",
"`T c #6cb25c",
"`U c #fcf2f4",
"`V c #74c64c",
"`W c #bcb6bc",
"`X c #1c1a14",
"`Y c #0c0204",
"`Z c #4c6274",
"`0 c #949694",
"`1 c #341224",
"`2 c #747274",
"`3 c #548ab4",
"`4 c #545654",
"`5 c #6c6664",
"`6 c #2c2a24",
"`7 c #cc326c",
"`8 c #74b25c",
".` c #6c9a64",
".. c #1c3234",
".# c #547694",
".a c #648ec4",
".b c #343e2c",
".c c #a4325c",
".d c #74c264",
".e c #6c2a3c",
".f c #241624",
".g c #cccac4",
".h c #547e44",
".i c #243e1c",
".j c #f4f2fc",
".k c #64666c",
".l c #f4faf4",
".m c #1c1614",
".n c #ec266c",
".o c #bcb6b4",
".p c #746a74",
".q c #dcdadc",
".r c #fcfafc",
".s c #3c526c",
".t c #1c1e24",
".u c #5c565c",
".v c #040604",
".w c #ac2e5c",
".x c #444244",
".y c #1c2214",
".z c #4c6a44",
".A c #9c8e9c",
".B c #0c161c",
".C c #2c2224",
".D c #cc2e64",
".E c #24362c",
".F c #5c82c4",
".G c #64665c",
".H c #14161c",
".I c #0c0e0c",
".J c #6486c4",
".K c #6c6a6c",
".L c #bcbeb4",
".M c #242e34",
".N c #fcf6f4",
".O c #7cc65c",
".P c #1c1e14",
".Q c #d43a74",
".R c #74ba5c",
".S c #7c9a6c",
".T c #3c3e3c",
".U c #643644",
".V c #f4fef4",
".W c #445e6c",
".X c #942e54",
".Y c #546ea4",
".Z c #0c120c",
".0 c #fceeec",
".1 c #242624",
".2 c #547644",
".3 c #f4f6ec",
".4 c #14160c",
".5 c #dc2e6c",
".6 c #b4baac",
".7 c #040e04",
".8 c #6c86ac",
"#` c #141e14",
"#. c #848684",
"## c #645e64",
"#a c #9c365c",
"#b c #b43e64",
"#c c #546e64",
"#d c #3c2e34",
"#e c #a4a2a4",
"#f c #341e2c",
"#g c #647aa4",
"#h c #64ba4c",
"#i c #74324c",
"#j c #b43264",
"#k c #b4b2b4",
"#l c #bc3a6c",
"#m c #8c264c",
"#n c #843a54",
"#o c #dcdedc",
"#p c #6cc264",
"#q c #5c8abc",
"#r c #44567c",
"#s c #ec2e74",
"#t c #742a4c",
"#u c #949294",
"#v c #545254",
"#w c #9c9a9c",
"#x c #d43674",
"#y c #749e64",
"#z c #547eb4",
"#A c #3c1624",
"#B c #1c2e44",
"#C c #6c8ac4",
"#D c #e4d6dc",
"#E c #546e44",
"#F c #2c3a2c",
"#G c #445a7c",
"#H c #c4c2c4",
"#I c #74a264",
"#J c #c4326c",
"#K c #3c363c",
"#L c #5c7694",
"#M c #2c161c",
"#N c #d42e6c",
"#O c #e42e74",
"#P c #c4265c",
"#Q c #1c0204",
"#R c #d4d2d4",
"#S c #74c65c",
"#T c #546274",
"#U c #1c2224",
"#V c #bcbec4",
"#W c #6c5e64",
"#X c #aca2a4",
"#Y c #6486ac",
"#Z c #242e24",
"#0 c #fcfeec",
"#1 c #bcbabc",
"#2 c #0c0604",
"#3 c #548eac",
"#4 c #2c2e2c",
"#5 c #74b65c",
"#6 c #74c66c",
"#7 c #cccecc",
"#8 c #bcbaac",
"a` c #5c5a5c",
"a. c #44463c",
"a# c #24121c",
"aa c #041604",
"ab c #646e64",
"ac c #747674",
"ad c #545a54",
"ae c #cc366c",
"af c #f4f6fc",
"ag c #fcfefc",
"ah c #5c86c4",
"ai c #6c6e6c",
"aj c #04020c",
"ak c #5c625c",
"al c #54729c",
"am c #24222c",
"an c #4c7a44",
"ao c #24361c",
"ap c #5486bc",
"aq c #646264",
"ar c #b4b6b4",
"as c #040a0c",
"at c #242a2c",
"au c #241a24",
"av c #04061c",
"aw c #6cb264",
"ax c #fcf2fc",
"ay c #74c654",
"az c #bcb6c4",
"aA c #1c1a1c",
"aB c #0c020c",
"aC c #94969c",
"aD c #6c666c",
"aE c #2c2a2c",
"aF c #343e34",
"aG c #cccacc",
"aH c #547e4c",
"aI c #f4fafc",
"aJ c #04060c",
"aK c #1c221c",
"aL c #9c8ea4",
"aM c #646664",
"aN c #bcbebc",
"aO c #fcf6fc",
"aP c #1c1e1c",
"aQ c #3c3e44",
"aR c #f4fefc",
"aS c #fceef4",
"aT c #f4f6f4",
"aU c #141614",
"aV c #141e1c",
"aW c #749e6c",
"aX c #5c769c",
"aY c #2c1624",
"aZ c #fcfef4",
"a0 c #74b664",
"a1 c #5c5a64",
"a2 c #444644",
"a3 c #000000",
"a4 c #000000",
"a5 c #000000",
"a6 c #000000",
"a7 c #000000",
"a8 c #000000",
/* pixels */
"agagagaTag.ragagagag.ragagaO.r.ragag`Oagagag.ragagagagagagag",
".r.ragagag#R#H#Ragagagagagag.r.r.ragagagaTagagagagagagagagag",
"agagagag#.`l.I`l#uagag#8.G`G`D`l#U`u.6aZagagag.ragagagagagag",
"agagagagaqaAaUaA#vag`z#F`A``aJ.v``.v.b.6ag.ragagagagagagagag",
"agagag.r`4aUaPaU.uag`e``#B#raX`i`Z...vabagag.ragagagagagagag",
".ragag.r`2`waAaP.u.3`G``#r.Yah.a.8.W``#4`ragagagagagagagagag",
"agag.r.r#uaPaAaU.Aag#`.v.#.Fap`3#C#Laj#`agagag`Oagagagagagag",
"ag.ragag`0`waKaAaL.raKaJ.##qap#3.Falav.HagaOagagagagagagagag",
"agagag.r`paU`waAaCagat```Z`C#zap#Y`Qaj.f.N.raR.ragag`vag.raR",
"agagagagaNaAaA`D#eaga`.v..`Z#L`S.s`daj##ag#H#cauaA`laP#W#Hag",
"agagag.raGaUaP.H`hag`Fa..v``ajajajaj#K#1`F.E`A`Y`Y`Y``aj`a`R",
"agag.rag.q`waA`X.gaZ#0`z`u`GaAaVamaMarag`E``#f#t`H#a#n`c``aD",
"agagagag`raAaUaA#H`ragagag`Oag.raTag`O.0.m`Y`J#J.n.D#j.X```1",
"agagagagag.1`waAaxagag.ragag.r.ragag.laSa##Q.c#s`x.Qae`HaB`g",
"agag.r.rag`IaA`D.ragafagagag.ragagagag#DaB`Y.w.5`x#N#O`n`YaY",
"agagagagag#vaAaUagagagag`vagagagagaOag`kaA``#mae#O`7#x`#.v.B",
"agag.rag.r#vaAa2aZagagag.ragaOagag.ragaga1`Y`1.U#P#b.e#M`Y#i",
"ag.rag.rag`faA`4agagag.razaD`G.PaP.taM#1#V#d`Y`Y`Y`````Y`B#X",
"agagag.r.r`0aP#vagaOag#1aQ`````j.7``.v`I#H#k##.m.B.ma#`N`KaO",
"agagagag.r#waUacagagag.k``.ian`m`m.h`q.vaqagagag`Uag`raZaTag",
"agagagagagaraP#w.NagaO#4``.h`T.d#p`Tan.v`LaO`ragaRaIagagagaI",
"agagag.ragag`W#oagag.r.y`A#I#5`V`b.d.````XagagaOagag.raO.rag",
"agagagagagaOagaTagagaxaP`j#y`T#h`b.d.``A`X`r.ragagagagagagag",
"ag.rag.r#R`E`4.K`Magagam```.#5#Say`T.h.v#`agagaRaIaRagag.rag",
".ragagag.xaA`waP`Iag.r.p``#F.zaW.S#Eao``aMagagaZagagagagagag",
"agagagaO`GaAaPaU.Bagag#k.T``.v.7.7.v``#4#kag`Oagagagagagagag",
"agag.ragaEaAaUaA.x`ragaOaN`E.1`D`j#`ad#1.Nagag.ragagagagagag",
"agagagaT#Rai`4aqaGagagagagaTag.r.r.r.r.Nagag.ragagagagagagag",
".rag.ragagaOagagagag.rag.ragagag.ragag.r.ragagagagagagagagag",
"agagagagagagagagafagagagaTagaZ.VagaZaTagagagagaIagagagagagag"
};
