/* XPM */
static char *pivot_snap_xpm[] = {
/* width height num_colors chars_per_pixel */
"    30    30      256            2",
/* colors */
"`` c #ffffff",
"`. c #eef4f7",
"`# c #bbd4dd",
"`a c #dde9ee",
"`b c #005c80",
"`c c #88b3c4",
"`d c #4487a2",
"`e c #337d99",
"`f c #77a8bb",
"`g c #ccdee6",
"`h c #227291",
"`i c #669db3",
"`j c #116788",
"`k c #99becc",
"`l c #aac9d5",
"`m c #5592aa",
"`n c #44c04a",
"`o c #00a908",
"`p c #88d78c",
"`q c #aae2ad",
"`r c #cceece",
"`s c #ddf4de",
"`t c #bbe8bd",
"`u c #11af18",
"`v c #55c65a",
"`w c #99dd9c",
"`x c #77d17b",
"`y c #eef9ef",
"`z c #000000",
"`A c #000000",
"`B c #000000",
"`C c #000000",
"`D c #000000",
"`E c #000000",
"`F c #000000",
"`G c #000000",
"`H c #000000",
"`I c #000000",
"`J c #000000",
"`K c #000000",
"`L c #000000",
"`M c #000000",
"`N c #000000",
"`O c #000000",
"`P c #000000",
"`Q c #000000",
"`R c #000000",
"`S c #000000",
"`T c #000000",
"`U c #000000",
"`V c #000000",
"`W c #000000",
"`X c #000000",
"`Y c #000000",
"`Z c #000000",
"`0 c #000000",
"`1 c #000000",
"`2 c #000000",
"`3 c #000000",
"`4 c #000000",
"`5 c #000000",
"`6 c #000000",
"`7 c #000000",
"`8 c #000000",
".` c #000000",
".. c #000000",
".# c #000000",
".a c #000000",
".b c #000000",
".c c #000000",
".d c #000000",
".e c #000000",
".f c #000000",
".g c #000000",
".h c #000000",
".i c #000000",
".j c #000000",
".k c #000000",
".l c #000000",
".m c #000000",
".n c #000000",
".o c #000000",
".p c #000000",
".q c #000000",
".r c #000000",
".s c #000000",
".t c #000000",
".u c #000000",
".v c #000000",
".w c #000000",
".x c #000000",
".y c #000000",
".z c #000000",
".A c #000000",
".B c #000000",
".C c #000000",
".D c #000000",
".E c #000000",
".F c #000000",
".G c #000000",
".H c #000000",
".I c #000000",
".J c #000000",
".K c #000000",
".L c #000000",
".M c #000000",
".N c #000000",
".O c #000000",
".P c #000000",
".Q c #000000",
".R c #000000",
".S c #000000",
".T c #000000",
".U c #000000",
".V c #000000",
".W c #000000",
".X c #000000",
".Y c #000000",
".Z c #000000",
".0 c #000000",
".1 c #000000",
".2 c #000000",
".3 c #000000",
".4 c #000000",
".5 c #000000",
".6 c #000000",
".7 c #000000",
".8 c #000000",
"#` c #000000",
"#. c #000000",
"## c #000000",
"#a c #000000",
"#b c #000000",
"#c c #000000",
"#d c #000000",
"#e c #000000",
"#f c #000000",
"#g c #000000",
"#h c #000000",
"#i c #000000",
"#j c #000000",
"#k c #000000",
"#l c #000000",
"#m c #000000",
"#n c #000000",
"#o c #000000",
"#p c #000000",
"#q c #000000",
"#r c #000000",
"#s c #000000",
"#t c #000000",
"#u c #000000",
"#v c #000000",
"#w c #000000",
"#x c #000000",
"#y c #000000",
"#z c #000000",
"#A c #000000",
"#B c #000000",
"#C c #000000",
"#D c #000000",
"#E c #000000",
"#F c #000000",
"#G c #000000",
"#H c #000000",
"#I c #000000",
"#J c #000000",
"#K c #000000",
"#L c #000000",
"#M c #000000",
"#N c #000000",
"#O c #000000",
"#P c #000000",
"#Q c #000000",
"#R c #000000",
"#S c #000000",
"#T c #000000",
"#U c #000000",
"#V c #000000",
"#W c #000000",
"#X c #000000",
"#Y c #000000",
"#Z c #000000",
"#0 c #000000",
"#1 c #000000",
"#2 c #000000",
"#3 c #000000",
"#4 c #000000",
"#5 c #000000",
"#6 c #000000",
"#7 c #000000",
"#8 c #000000",
"a` c #000000",
"a. c #000000",
"a# c #000000",
"aa c #000000",
"ab c #000000",
"ac c #000000",
"ad c #000000",
"ae c #000000",
"af c #000000",
"ag c #000000",
"ah c #000000",
"ai c #000000",
"aj c #000000",
"ak c #000000",
"al c #000000",
"am c #000000",
"an c #000000",
"ao c #000000",
"ap c #000000",
"aq c #000000",
"ar c #000000",
"as c #000000",
"at c #000000",
"au c #000000",
"av c #000000",
"aw c #000000",
"ax c #000000",
"ay c #000000",
"az c #000000",
"aA c #000000",
"aB c #000000",
"aC c #000000",
"aD c #000000",
"aE c #000000",
"aF c #000000",
"aG c #000000",
"aH c #000000",
"aI c #000000",
"aJ c #000000",
"aK c #000000",
"aL c #000000",
"aM c #000000",
"aN c #000000",
"aO c #000000",
"aP c #000000",
"aQ c #000000",
"aR c #000000",
"aS c #000000",
"aT c #000000",
"aU c #000000",
"aV c #000000",
"aW c #000000",
"aX c #000000",
"aY c #000000",
"aZ c #000000",
"a0 c #000000",
"a1 c #000000",
"a2 c #000000",
"a3 c #000000",
"a4 c #000000",
"a5 c #000000",
"a6 c #000000",
"a7 c #000000",
"a8 c #000000",
/* pixels */
"````````````````````````````````````````````````````````````",
"`````````````````````.`#`a``````````````````````````````````",
"`````````````````````#`b`c``````````````````````````````````",
"`````````````````````#`b`c``````````````````````````````````",
"`````````````````````#`b`c``````````````````````````````````",
"`````````````````````#`b`c``````````````````````````````````",
"```````````````.`c`d`b`b`b`e`f`a````````````````````````````",
"`````````````g`h`b`h`i`b`d`d`b`j`k``````````````````````````",
"```````````.`j`b`f```#`b`c```l`j`b`#````````````````````````",
"```````````i`b`i`````#`b`c`````l`b`h````````````````````````",
"```````````j`j`.`````#`b`c```````d`b`g``````````````````````",
"`````````#`b`m```````#`b`c```````c`b`c``````````````````````",
"`c`b`b`b`b`b`b`b`b`b`b`e`b`b`b`b`b`b`b`b`b`b`d``````````````",
"`a`#`#`#`c`b`d`#`#`#`c`b`i`#`#`#`f`b`i`#`#`#`g```n`o`o`p````",
"```````````b`h```````#`b`c```````i`b`l```````````o`o`o`q````",
"```````````m`b`c`````#`b`c`````g`b`j```````````r`o`o`o`s````",
"```````````g`b`j`#```#`b`c```g`h`b`c```````````t`o`o`u``````",
"`````````````k`b`b`i`c`b`i`c`j`b`i`````````````p`o`o`v``````",
"```````````````g`m`b`b`b`b`b`e`l```````````````p`o`o`p``````",
"`````````````````````c`b`i`.```````````````````p`o`o`r``````",
"`````````````````````#`b`c`````````````````````n`o`u````````",
"`````````````````````#`b`c`````````````````````n`o`v````````",
"`````````````````````#`b`c`````````````````````w`p`t````````",
"`````````````````````a`c`#```````````````````p`n`n`x````````",
"`````````````````````````````````````````````n`o`o`p````````",
"`````````````````````````````````````````````u`o`o`w````````",
"`````````````````````````````````````````````t`t`t`y````````",
"````````````````````````````````````````````````````````````",
"````````````````````````````````````````````````````````````",
"````````````````````````````````````````````````````````````"
};
