/* XPM */
static char *pivot_copy_xpm[] = {
/* width height num_colors chars_per_pixel */
"    25    31      256            2",
/* colors */
"`` c #feffff",
"`. c #ffffff",
"`# c #fffeff",
"`a c #fffffe",
"`b c #fefffe",
"`c c #fdffff",
"`d c #fefefe",
"`e c #fcfffe",
"`f c #eff2f2",
"`g c #bbd2d8",
"`h c #dce7e6",
"`i c #fdfffc",
"`j c #fffefe",
"`k c #fdfffe",
"`l c #fefffd",
"`m c #fefffc",
"`n c #bad4d4",
"`o c #105d7f",
"`p c #87b3c4",
"`q c #fefeff",
"`r c #fcffff",
"`s c #b8d3db",
"`t c #135c7e",
"`u c #88b3c4",
"`v c #fffefd",
"`w c #fefffb",
"`x c #bbd3d9",
"`y c #135d80",
"`z c #87b4c4",
"`A c #fdfeff",
"`B c #fefdff",
"`C c #bbd2d5",
"`D c #115e7e",
"`E c #88b2c6",
"`F c #eff2f5",
"`G c #88b2c5",
"`H c #4386a3",
"`I c #105c80",
"`J c #145d81",
"`K c #307c96",
"`L c #76a7bb",
"`M c #dee7e8",
"`N c #d1d8d9",
"`O c #227291",
"`P c #135e7f",
"`Q c #21728f",
"`R c #679db5",
"`S c #115e80",
"`T c #4186a1",
"`U c #4286a2",
"`V c #156886",
"`W c #98becc",
"`X c #fffefc",
"`Y c #fffdff",
"`Z c #fffffc",
"`0 c #f0f3f5",
"`1 c #166889",
"`2 c #135d81",
"`3 c #bbd2d9",
"`4 c #85b4c6",
"`5 c #fffffd",
"`6 c #aac9d4",
"`7 c #166987",
"`8 c #145c80",
".` c #bad2db",
".. c #fcfffd",
".# c #669db4",
".a c #105e7f",
".b c #649db4",
".c c #125d81",
".d c #8bb3c2",
".e c #aac9d2",
".f c #217391",
".g c #fdfffd",
".h c #196788",
".i c #176985",
".j c #eef3f2",
".k c #bbd4da",
".l c #105f7f",
".m c #87b2c5",
".n c #4286a1",
".o c #105e83",
".p c #cfdbdc",
".q c #bad3d9",
".r c #125d80",
".s c #5692ab",
".t c #bbd2d7",
".u c #88b4c4",
".v c #155c7d",
".w c #86b3c1",
".x c #88b5c2",
".y c #135d7e",
".z c #125c81",
".A c #115d80",
".B c #0e5f7e",
".C c #135e81",
".D c #115c7e",
".E c #135f80",
".F c #115b7f",
".G c #317e98",
".H c #125c7e",
".I c #115e81",
".J c #125c7f",
".K c #105e80",
".L c #125e7f",
".M c #105d7e",
".N c #125d7f",
".O c #dde7e5",
".P c #b9d3d8",
".Q c #bbd3d6",
".R c #b9d5d7",
".S c #87b4c7",
".T c #115d7f",
".U c #4285a0",
".V c #bad2d9",
".W c #b8d3d7",
".X c #86b3c6",
".Y c #125c80",
".Z c #659db4",
".0 c #bad3d4",
".1 c #bcd3d9",
".2 c #76a7b9",
".3 c #125d83",
".4 c #669eb6",
".5 c #bad2d8",
".6 c #bcd2d8",
".7 c #bad3d6",
".8 c #cbdbda",
"#` c #135d7f",
"#. c #217392",
"## c #bad2d7",
"#a c #85b4c5",
"#b c #679db4",
"#c c #125f7d",
"#d c #a9cad3",
"#e c #5492a9",
"#f c #85b4c3",
"#g c #bbd4d8",
"#h c #135c80",
"#i c #86b3c4",
"#j c #cbdbdd",
"#k c #176789",
"#l c #fdfefe",
"#m c #ccdbdd",
"#n c #176788",
"#o c #b8d4da",
"#p c #b9d3d9",
"#q c #115e7c",
"#r c #8ab2c5",
"#s c #ccdcde",
"#t c #207290",
"#u c #87b3c5",
"#v c #9abdcc",
"#w c #125e80",
"#x c #669cb5",
"#y c #89b3c4",
"#z c #135d82",
"#A c #649bb3",
"#B c #8ab3c5",
"#C c #135c81",
"#D c #679bb2",
"#E c #cddcdd",
"#F c #5692a8",
"#G c #135c82",
"#H c #115e83",
"#I c #307d99",
"#J c #a9c8d4",
"#K c #fdfffb",
"#L c #fffdfe",
"#M c #89b2c5",
"#N c #669db1",
"#O c #eff2f3",
"#P c #135b7e",
"#Q c #87b4c6",
"#R c #bbd3d5",
"#S c #87b3c3",
"#T c #86b3c5",
"#U c #d0cfd1",
"#V c #5e5f5e",
"#W c #3f3f40",
"#X c #cdcfcf",
"#Y c #90908e",
"#Z c #3f3f3e",
"#0 c #918f8e",
"#1 c #ced8d9",
"#2 c #525d5d",
"#3 c #b0afaf",
"#4 c #3e3e3f",
"#5 c #aeb0ae",
"#6 c #eef0f0",
"#7 c #605f5d",
"#8 c #615f5e",
"a` c #edf0f0",
"a. c #e0e0e0",
"a# c #303030",
"aa c #f0f0f0",
"ab c #707070",
"ac c #909090",
"ad c #606060",
"ae c #101010",
"af c #b0b0b0",
"ag c #202020",
"ah c #e1e1e1",
"ai c #404040",
"aj c #8f8f8f",
"ak c #808080",
"al c #000000",
"am c #a0a0a0",
"an c #313131",
"ao c #dfdfdf",
"ap c #2f2f2f",
"aq c #515151",
"ar c #3f3f3f",
"as c #818181",
"at c #cfcfcf",
"au c #414141",
"av c #bfbfbf",
"aw c #d0d0d0",
"ax c #505050",
"ay c #000000",
"az c #000000",
"aA c #000000",
"aB c #000000",
"aC c #000000",
"aD c #000000",
"aE c #000000",
"aF c #000000",
"aG c #000000",
"aH c #000000",
"aI c #000000",
"aJ c #000000",
"aK c #000000",
"aL c #000000",
"aM c #000000",
"aN c #000000",
"aO c #000000",
"aP c #000000",
"aQ c #000000",
"aR c #000000",
"aS c #000000",
"aT c #000000",
"aU c #000000",
"aV c #000000",
"aW c #000000",
"aX c #000000",
"aY c #000000",
"aZ c #000000",
"a0 c #000000",
"a1 c #000000",
"a2 c #000000",
"a3 c #000000",
"a4 c #000000",
"a5 c #000000",
"a6 c #000000",
"a7 c #000000",
"a8 c #000000",
/* pixels */
"`````.`.`.`.`#`#```a`#`.```.`b`.`.`.`.`#`.`c`.`#`.",
"```.`d`.`.```.`.`a`e`.`f`g`h`.`i`j`k```.`a```l`m`.",
"`.`d`.```````.`b`j`.`c`n`o`p`.`.`#`.`a`a```q`#`#`.",
"`.`.`````.`.`d`.`.`r`l`s`t`u`#```b`.`.`.```a`v```.",
"`.`.```.`j`.`.`.`w`.`.`x`y`z`d`e`.`#`#```.`d`.`A`.",
"`.`````.`.`.`B`.`#`b`a`C`D`E`.`#`l`.```b`a`#`d`a`.",
"`#`.`.`d`.`B```r`F`G`H`y`I`J`K`L`M`.`a```A`.`.`q`.",
"`#`.`d`.`.`.`r`N`O`P`Q`R`S`T`U`D`V`W```X`.```l```.",
"`#`.`b`Y`Z`q`0`1`2`L`a`3`P`4`5`6`7`8.````#`b..`Y`.",
"`5`d`.`.`A`..#.a.b`.`k`3.c.d`d`a.e`S.f`5`.```.`v`.",
"`#`..g`l```..h.i.j`a`Y.k.l.m`5`.`#.n.o.p`q`a`r`.`.",
"`a`q`#`#`#.q.r.s```#`a.t.c`p`.```..u.v.w`.`#```#`.",
"`..x.y.z.A.B`y.c.C.D.E.F.G.H.z.I.A.J.I.K.L.M.N`H`.",
"`..O.P.Q.R.S.T.U.V.k.W.X.Y.Z.P.0.1.2.3.4.5.6.7.8`.",
"```.`.```m`.#`#.`#`.`.##.r#a`#`.`##b#c#d`.`.`#`#`.",
"`.`5`c`c`.`b#e.r#f```.#g#h#i`Z`##j.c#k`5`.#l`a```.",
"`#`.`.`5```5#m.D#n#o`5#p#q#r`A#s#t#`#u.g`.`.`q`.`.",
"`...`.`Z`.`#`c#v#w.r#x#y#z#A#B`V#C#D`.`.`j`l`.`a`.",
"`d`.`.`a`#```j`r#E#F#G.A`D#H.c#I#J`5```b`q`.#K```.",
"`.`.#L`.`````.`5`.`c`.#M.A#N#O`.`.`5```a`b`.`Y`.`.",
"`a`c`.`...`a`.```j`.`j#p#P#Q`#`a.g`.`c`#`a`.`5`j`.",
"`a`````j`.`a`.`.`.`e`.#R.N#S```#`#`5`#`k`v.g```.`.",
"`.`j`.`#`b`.```v`.```l#p#z#T```.`.`j`.`.`.```.`a`.",
"```Z``#U#V#W#X`.#Y#Z#0#1`u#2#3#4#5#6#7`#`.#8a``a`.",
"`.`.a.a#a.`.aaabac`.acad`.aeafaaagahaia.a.ai`.`.`.",
"`.`.ajak`.`d`.ae`.`d`.ae`.al`.`dakajamabacam`.`.`.",
"`.`.afad`.`.`.ana.`.aoag`.alaa`.adaf`.apaqaa`.`.`.",
"`.`d`.aradasatafaiakauav`.alababai`.`.abad`d`.`d`.",
"`.`.`.`.a.at`.`d`.av`.`.`.al`.aw`.`.`.aia.`.`d`.`.",
"`.`.`.`d`.`.`.`.`.`.`.`d`.al`.`d`d`.axam`.`.`.`.`.",
"`.`.`.`.`.`d`.`.`.`d`.`d`.av`.`.`.`.aa`d`.`.`.`.`."
};
