/* XPM */
static char *pivot_vis_xpm[] = {
/* width height num_colors chars_per_pixel */
"    30    30      256            2",
/* colors */
"`` c #ffffff",
"`. c #aaaaaa",
"`# c #888888",
"`a c #555555",
"`b c #444444",
"`c c #eeeeee",
"`d c #111111",
"`e c #000000",
"`f c #222222",
"`g c #cccccc",
"`h c #666666",
"`i c #bbbbbb",
"`j c #777777",
"`k c #dddddd",
"`l c #333333",
"`m c #bbd4dd",
"`n c #4487a2",
"`o c #ccdee6",
"`p c #669db3",
"`q c #227291",
"`r c #99becc",
"`s c #eef4f7",
"`t c #77a8bb",
"`u c #337d99",
"`v c #116788",
"`w c #88b3c4",
"`x c #5592aa",
"`y c #005c80",
"`z c #dde9ee",
"`A c #000000",
"`B c #000000",
"`C c #000000",
"`D c #000000",
"`E c #000000",
"`F c #000000",
"`G c #000000",
"`H c #000000",
"`I c #000000",
"`J c #000000",
"`K c #000000",
"`L c #000000",
"`M c #000000",
"`N c #000000",
"`O c #000000",
"`P c #000000",
"`Q c #000000",
"`R c #000000",
"`S c #000000",
"`T c #000000",
"`U c #000000",
"`V c #000000",
"`W c #000000",
"`X c #000000",
"`Y c #000000",
"`Z c #000000",
"`0 c #000000",
"`1 c #000000",
"`2 c #000000",
"`3 c #000000",
"`4 c #000000",
"`5 c #000000",
"`6 c #000000",
"`7 c #000000",
"`8 c #000000",
".` c #000000",
".. c #000000",
".# c #000000",
".a c #000000",
".b c #000000",
".c c #000000",
".d c #000000",
".e c #000000",
".f c #000000",
".g c #000000",
".h c #000000",
".i c #000000",
".j c #000000",
".k c #000000",
".l c #000000",
".m c #000000",
".n c #000000",
".o c #000000",
".p c #000000",
".q c #000000",
".r c #000000",
".s c #000000",
".t c #000000",
".u c #000000",
".v c #000000",
".w c #000000",
".x c #000000",
".y c #000000",
".z c #000000",
".A c #000000",
".B c #000000",
".C c #000000",
".D c #000000",
".E c #000000",
".F c #000000",
".G c #000000",
".H c #000000",
".I c #000000",
".J c #000000",
".K c #000000",
".L c #000000",
".M c #000000",
".N c #000000",
".O c #000000",
".P c #000000",
".Q c #000000",
".R c #000000",
".S c #000000",
".T c #000000",
".U c #000000",
".V c #000000",
".W c #000000",
".X c #000000",
".Y c #000000",
".Z c #000000",
".0 c #000000",
".1 c #000000",
".2 c #000000",
".3 c #000000",
".4 c #000000",
".5 c #000000",
".6 c #000000",
".7 c #000000",
".8 c #000000",
"#` c #000000",
"#. c #000000",
"## c #000000",
"#a c #000000",
"#b c #000000",
"#c c #000000",
"#d c #000000",
"#e c #000000",
"#f c #000000",
"#g c #000000",
"#h c #000000",
"#i c #000000",
"#j c #000000",
"#k c #000000",
"#l c #000000",
"#m c #000000",
"#n c #000000",
"#o c #000000",
"#p c #000000",
"#q c #000000",
"#r c #000000",
"#s c #000000",
"#t c #000000",
"#u c #000000",
"#v c #000000",
"#w c #000000",
"#x c #000000",
"#y c #000000",
"#z c #000000",
"#A c #000000",
"#B c #000000",
"#C c #000000",
"#D c #000000",
"#E c #000000",
"#F c #000000",
"#G c #000000",
"#H c #000000",
"#I c #000000",
"#J c #000000",
"#K c #000000",
"#L c #000000",
"#M c #000000",
"#N c #000000",
"#O c #000000",
"#P c #000000",
"#Q c #000000",
"#R c #000000",
"#S c #000000",
"#T c #000000",
"#U c #000000",
"#V c #000000",
"#W c #000000",
"#X c #000000",
"#Y c #000000",
"#Z c #000000",
"#0 c #000000",
"#1 c #000000",
"#2 c #000000",
"#3 c #000000",
"#4 c #000000",
"#5 c #000000",
"#6 c #000000",
"#7 c #000000",
"#8 c #000000",
"a` c #000000",
"a. c #000000",
"a# c #000000",
"aa c #000000",
"ab c #000000",
"ac c #000000",
"ad c #000000",
"ae c #000000",
"af c #000000",
"ag c #000000",
"ah c #000000",
"ai c #000000",
"aj c #000000",
"ak c #000000",
"al c #000000",
"am c #000000",
"an c #000000",
"ao c #000000",
"ap c #000000",
"aq c #000000",
"ar c #000000",
"as c #000000",
"at c #000000",
"au c #000000",
"av c #000000",
"aw c #000000",
"ax c #000000",
"ay c #000000",
"az c #000000",
"aA c #000000",
"aB c #000000",
"aC c #000000",
"aD c #000000",
"aE c #000000",
"aF c #000000",
"aG c #000000",
"aH c #000000",
"aI c #000000",
"aJ c #000000",
"aK c #000000",
"aL c #000000",
"aM c #000000",
"aN c #000000",
"aO c #000000",
"aP c #000000",
"aQ c #000000",
"aR c #000000",
"aS c #000000",
"aT c #000000",
"aU c #000000",
"aV c #000000",
"aW c #000000",
"aX c #000000",
"aY c #000000",
"aZ c #000000",
"a0 c #000000",
"a1 c #000000",
"a2 c #000000",
"a3 c #000000",
"a4 c #000000",
"a5 c #000000",
"a6 c #000000",
"a7 c #000000",
"a8 c #000000",
/* pixels */
"````````````````````````````````````````````````````````````",
"````````````````````````````````````````````````````````````",
"`````````````````````.`#`a`b`b`b`#`.````````````````````````",
"```````````````c`#`d`e`f`d`e`e`e`d`e`d`#`c``````````````````",
"`````````````g`f`e`h`g```.`i`i`j`d`.`j`e`f`g````````````````",
"```````````g`d`d`g`````````a`a`.`g`d`c`g`f`d`g``````````````",
"`````````k`d`d`g```i`k`````h`e`e`.`j`#```c`d`d`k````````````",
"`````````b`e`.`````b`.`a`j`i`e`e`a`i`b`````i`e`b````````````",
"`````````b`e`i`````b`i`a`e`e`d`e`a`i`b`````i`e`b````````````",
"`````````k`d`d`c```j`j`i`e`e`e`e`.`j`#```c`d`d`k````````````",
"```````````g`d`f`g`k`f`g`.`a`a`.`g`d`c`g`l`d`g``````````````",
"`````````````g`l`e`#`.`d`j`i`i`j`d`.`#`e`f`g````````````````",
"`````````````````#`d`e`f`e`e`e`e`d`e`d`#`c``````````````````",
"`````````````````````.`#`a`b`b`b`#`.````````````````````````",
"````````````````````````````````````````````````````````````",
"```````````````````````````m`n``````````````````````````````",
"```````````````````````````m`n``````````````````````````````",
"`````````````````````````o`p`q`r`s``````````````````````````",
"```````````````````````p`q`t`u`p`v`o````````````````````````",
"`````````````````````w`u`s`m`n```m`v`s``````````````````````",
"`````````````````````q`m```m`n`````x`r``````````````````````",
"```````````````r`n`n`y`n`n`u`t`n`n`q`q`n`n``````````````````",
"`````````````````````v`z```m`n`````p`w``````````````````````",
"`````````````````````p`p```m`n```o`y`z``````````````````````",
"`````````````````````s`u`x`r`n`r`v`r````````````````````````",
"```````````````````````s`w`u`v`p`m``````````````````````````",
"```````````````````````````m`n``````````````````````````````",
"```````````````````````````m`n``````````````````````````````",
"```````````````````````````s`o``````````````````````````````",
"````````````````````````````````````````````````````````````"
};
