/* XPM */
static char *rotOrder_xpm[] = {
/* width height num_colors chars_per_pixel */
"    30    30      256            2",
/* colors */
"`` c #1c1624",
"`. c #149614",
"`# c #8c8a8c",
"`a c #94d69c",
"`b c #9c025c",
"`c c #ccc2b4",
"`d c #34461c",
"`e c #d4e4d4",
"`f c #e4e2e4",
"`g c #ecf2cc",
"`h c #444440",
"`i c #a44e1c",
"`j c #3cce4c",
"`k c #5442ac",
"`l c #1c02ac",
"`m c #dc847c",
"`n c #fcf5ea",
"`o c #44623c",
"`p c #a4a68c",
"`q c #54ce1c",
"`r c #2c2e94",
"`s c #c44e1c",
"`t c #f4fde9",
"`u c #e80a04",
"`v c #eccebc",
"`w c #88fe70",
"`x c #fce4cc",
"`y c #445244",
"`z c #646264",
"`A c #a4aafc",
"`B c #242a0c",
"`C c #748634",
"`D c #04f604",
"`E c #0404fc",
"`F c #f4fdfa",
"`G c #cc363c",
"`H c #b0fec0",
"`I c #24f028",
"`J c #44f24c",
"`K c #cc666c",
"`L c #a492d4",
"`M c #d4b2c4",
"`N c #1422d4",
"`O c #f4ebef",
"`P c #d4d2c4",
"`Q c #c8fecc",
"`R c #ecf3ec",
"`S c #6c7a6c",
"`T c #4c323c",
"`U c #2412ec",
"`V c #ac929c",
"`W c #5c4a3c",
"`X c #846e3c",
"`Y c #3422ec",
"`Z c #f4f5fa",
"`0 c #acb2ac",
"`1 c #e44634",
"`2 c #e41624",
"`3 c #14f21c",
"`4 c #e4fdf9",
"`5 c #919691",
"`6 c #84027c",
"`7 c #445ed4",
"`8 c #fc9684",
".` c #e4dedc",
".. c #8cf68c",
".# c #7c869c",
".a c #1403f9",
".b c #64e67c",
".c c #fcecef",
".d c #444c40",
".e c #5c595c",
".f c #343830",
".g c #fcfdfb",
".h c #3c32cc",
".i c #ecfdf1",
".j c #0cbe54",
".k c #943614",
".l c #d4caf4",
".m c #e4eaec",
".n c #fcfdea",
".o c #f40414",
".p c #c0bccc",
".q c #04fe05",
".r c #fcf5fb",
".s c #e45a3c",
".t c #7068fc",
".u c #f4defc",
".v c #dccabc",
".w c #0452ac",
".x c #dce6f4",
".y c #a44e64",
".z c #fc827c",
".A c #746e94",
".B c #bcf9bf",
".C c #dcf2e4",
".D c #7c7e99",
".E c #9c9e8c",
".F c #fcecfc",
".G c #645a74",
".H c #e4eaf4",
".I c #b4c69c",
".J c #cccacc",
".K c #44763c",
".L c #a4aeb4",
".M c #4cca4c",
".N c #8cfd7f",
".O c #646a74",
".P c #acb6fc",
".Q c #24322c",
".R c #040cf0",
".S c #ec323c",
".T c #30fe30",
".U c #d4d6fc",
".V c #bc762c",
".W c #bcbabc",
".X c #f4d6d4",
".Y c #7c82e4",
".Z c #64f65c",
".0 c #6c5a54",
".1 c #ecfefc",
".2 c #b82434",
".3 c #fc062c",
".4 c #7771fc",
".5 c #4c0e74",
".6 c #c4c2c4",
".7 c #d4eee4",
".8 c #4c4648",
"#` c #dc8e94",
"#. c #448664",
"## c #3cae94",
"#a c #34428c",
"#b c #8c22cc",
"#c c #34aa14",
"#d c #ec6254",
"#e c #7c8684",
"#f c #148e7c",
"#g c #b4caf4",
"#h c #ac726c",
"#i c #f4b29c",
"#j c #5c4efc",
"#k c #6cca64",
"#l c #6c9e0c",
"#m c #34be4c",
"#n c #cc5254",
"#o c #fc7674",
"#p c #e49abc",
"#q c #1c16d4",
"#r c #bc463c",
"#s c #2426fc",
"#t c #a45a54",
"#u c #383cfc",
"#v c #5c6250",
"#w c #847a74",
"#x c #344ec4",
"#y c #ecbec4",
"#z c #fc5244",
"#A c #7cfe7c",
"#B c #7c9a8c",
"#C c #64da4c",
"#D c #f44654",
"#E c #b4a6c4",
"#F c #342a3c",
"#G c #84e2bc",
"#H c #ac4244",
"#I c #9c86fc",
"#J c #949ebc",
"#K c #c49a94",
"#L c #fc0e1c",
"#M c #049a64",
"#N c #1c2624",
"#O c #5462fc",
"#P c #48fa50",
"#Q c #bcd6d4",
"#R c #bc4a6c",
"#S c #8c323c",
"#T c #443c40",
"#U c #fc3644",
"#V c #dcdefc",
"#W c #dcdedc",
"#X c #d9fed1",
"#Y c #3c2eb4",
"#Z c #ecfee4",
"#0 c #1402d4",
"#1 c #fc6a64",
"#2 c #b4b2f4",
"#3 c #dc4a4c",
"#4 c #14fe1c",
"#5 c #1c0efc",
"#6 c #fcc6bc",
"#7 c #4436fc",
"#8 c #342df9",
"a` c #ac064c",
"a. c #f4364c",
"a# c #6cd66c",
"aa c #54fe44",
"ab c #94fe90",
"ac c #2c3e1c",
"ad c #ccdee4",
"ae c #bcaeac",
"af c #ec5a5c",
"ag c #fcbeb4",
"ah c #ec8684",
"ai c #746a6c",
"aj c #543a44",
"ak c #7c86fc",
"al c #fceadc",
"am c #5c6a64",
"an c #54524c",
"ao c #1c1afc",
"ap c #b4baac",
"aq c #5c5e5c",
"ar c #04f61c",
"as c #574d54",
"at c #444a54",
"au c #9c9a9c",
"av c #a47684",
"aw c #d4eefc",
"ax c #8c9294",
"ay c #2c4634",
"az c #bcfecc",
"aA c #b4befc",
"aB c #64fe68",
"aC c #2c2efc",
"aD c #fce6e4",
"aE c #fc9a9c",
"aF c #747777",
"aG c #64564c",
"aH c #fc0210",
"aI c #fcdaec",
"aJ c #f4362c",
"aK c #fcd7cc",
"aL c #fc4a48",
"aM c #3c2c3c",
"aN c #24f624",
"aO c #fc8a74",
"aP c #8c3a34",
"aQ c #a4a6a4",
"aR c #045aac",
"aS c #fc161c",
"aT c #94fea4",
"aU c #b4b2b8",
"aV c #0cfe14",
"aW c #242634",
"aX c #0cf808",
"aY c #1cf614",
"aZ c #ecede9",
"a0 c #eceef9",
"a1 c #6c6c70",
"a2 c #ccc4cc",
"a3 c #dceadc",
"a4 c #4c4e4c",
"a5 c #a49ea4",
"a6 c #acaefc",
"a7 c #0c02fc",
"a8 c #2416fc",
/* pixels */
".g.g.g.g.g.g.g.g.g.g.g.g.g.n.n.g.g.g.g.r.g.g`F.g.g.g.g.g.g.g",
".g.g.g.g.g.g.g.g.n`F`F.g.g`F`F.g.g.g`F.g.g.n.g.r.g.g.g.g.g.g",
".g.g.g.g.g.g.g.g.1.g.F.n.g`t.g.n`n.n.n.g`F`F.g.g.g.g.g.g.g.g",
".g.g.g.g.g.g.g.g.g.g.g.x#2`L.D`o.Da5a2.c.g.g.g.g.g.g.g.g.g.g",
".g.g.g.g.g.g.g.g.F`O#J`N`E`E`l.5#S.k#H#R`maK.g.g.g.g.g.g.g.g",
".g.g.g.g.g.g.g.ga3aGaW#x.4#b`ba``6#n.s#3#r#t`M.g.g.g.g.g.g.g",
".g.g.g.g.g.g.g`OaFat.paD#d`uaL`m#s.h.u.g#yav`Tae.r.g.g.g.g.g",
".g.g.g.g.g.g.6.e`#`4.raJ#L`8.r.gawaC#j#V.g.r.E.daZ.g.g.g.g.g",
".g.g.g.c.gadas#w.g`xaL#UaK`F.g.r.ga3#5#u`F.n.g#E.d`0.g.g.g.g",
".g.g.g.g`Z.Oas.CaDa..SaK.g.r.F.g.r.g`A.a.Y.n.g.ga1`z`f.g.g.g",
".g`F`F.g.L```5.g#1.3aE.g.n.g.g.1.g.g.i#8`Ya0.g.g.6an.p.g.g.g",
".g.1.g.gai.8.g#6aH#o.n.r.r.1`F.g.g.g.g.P.a.t.g.n.gan.e`O.g.r",
".g.g.g#Waj`#.n#D#L`x.g.r.g.g.r.g.g.g`F.g#7.a.U`t.ga5#T.J.g.g",
".g.g.gaUaM`cagaH.z.n.g`F.g.r.g`Z.g.g.r.gaAa7.4.g.g.J.faQ.g.g",
".g.g.g`5ay.vaf.oaD.g.g`F.g`O.g.g.g.g.g`F.1#8a8.1`F`R`h`S`R.g",
".g.g.g#B#.`v`2#z`F.r.g.g.g`F`F.g.g.g.r.n`Fak.aa6.g`F`y`S.g`F",
".g.g.ga#.MaO`u#i.g`F.g.g.g.g.g.g.r.g`F.g.n.l.a#O.g#Z.q.T.g.r",
".n.g.g.b`j`1aHaI.g.g.r.g.g.g`F.i.g.g.g.n.n`4aoaC.r#Xar#P.g.g",
".g.g.r`a#m`i#L.F.g.g.g.g.r.r.r.g`F.g.g.F.g.g#u`E`F`w`I#k.g.i",
".g.g.g`P.K`C.V`t.g.g`F.n.g.g.g.g.g.g.g`R.g.g.t`E#G`I#c.I.g#Z",
"`F.g.g.7.0`X`q`w`Z.g.g.g.g.g.g.1.g.g.g.g.g.n.Y.R.j`.ac`O`4.g",
".g`F.g`4axaP#l`3.Zab`Q`F.r.r.g.g.i.g.g.iaz.N##.w#f`daF.g.1.g",
".g.g.g.g#Q.y`s#C`DaXaN#PaB#A.N.N..`waB.T.q#4#M.w#a`W#W.r.g`F",
".n`F.g.g.g#p.2`m#Xab`JaV.q.q.q.q.q.qar`3aaaT`7a7aM`p.g.g.1.r",
".g.g.g.g.g`Z#``GaK.r.g`R`Q`H.B`H`H.B#X.i.g.x`U`r`5.g.g.g.g.g",
".g.g.r.g.g.gal`K.2#K`F.g.n.n.g.g`t`F`F.ga0.4#q#g.g.g.g.g.g.g",
".g.g.g.g.g.g.gaD#h.8`h`V.`.i`F.g.gaZ`gap#Y#0.#`F.g.g.g.g.g.g",
".g.g.g.g.g`F`F.g.gaU.G#F.Qanaiam.A#v.f`B`k#I.r.g.g.g.g.g.g.g",
".g.g.g.g.g`F`F.g.r.g.r.p#e.e#T#N#T#v.D.W`Z.r.g.r.g.g.g.g.g.g",
".g.g.g.g.g.g.g.r`n.g.g.r.g.i.m.r`n`t.g.n.n`F`F`F.g.g.g.g.g.g"
};
