/* XPM */
static char *scaleJoint_xpm[] = {
/* width height num_colors chars_per_pixel */
"    21    22      256            2",
/* colors */
"`` c #042a34",
"`. c #3c9a14",
"`# c #ac2a04",
"`a c #9ca2a4",
"`b c #b4cecc",
"`c c #1c622c",
"`d c #044e14",
"`e c #e4eaf4",
"`f c #d4927c",
"`g c #7c868c",
"`h c #4c665c",
"`i c #74928c",
"`j c #ecfafc",
"`k c #244244",
"`l c #9c4624",
"`m c #043a1c",
"`n c #24761c",
"`o c #e4b6b4",
"`p c #244a34",
"`q c #ec9684",
"`r c #fcf6ec",
"`s c #d41e0c",
"`t c #0c522c",
"`u c #74aa7c",
"`v c #dc9a7c",
"`w c #acb6a4",
"`x c #dcdaec",
"`y c #346a3c",
"`z c #ac3214",
"`A c #8c9a84",
"`B c #143a2c",
"`C c #3caa1c",
"`D c #142a24",
"`E c #246e24",
"`F c #144a1c",
"`G c #cccedc",
"`H c #fce6d4",
"`I c #c45a3c",
"`J c #34862c",
"`K c #fcfee4",
"`L c #4ca62c",
"`M c #dc9a8c",
"`N c #c4cacc",
"`O c #ecfef4",
"`P c #bc360c",
"`Q c #a4c6b4",
"`R c #bc2e0c",
"`S c #144224",
"`T c #144634",
"`U c #fceafc",
"`V c #043234",
"`W c #34a234",
"`X c #c4a294",
"`Y c #e49284",
"`Z c #849a9c",
"`0 c #fcf6f4",
"`1 c #647e84",
"`2 c #245a2c",
"`3 c #1c5224",
"`4 c #8c969c",
"`5 c #2c7224",
"`6 c #fceee4",
"`7 c #bc8e7c",
"`8 c #b4361c",
".` c #bc260c",
".. c #9caeac",
".# c #2c6234",
".a c #043a2c",
".b c #34762c",
".c c #ecc6ac",
".d c #fcdad4",
".e c #b43224",
".f c #3c862c",
".g c #e49a8c",
".h c #144e34",
".i c #1c5a2c",
".j c #bccacc",
".k c #dc927c",
".l c #a47a64",
".m c #7c9e94",
".n c #f4f6fc",
".o c #34525c",
".p c #c42e04",
".q c #8ca68c",
".r c #e49a84",
".s c #b4babc",
".t c #b42e0c",
".u c #1c3a34",
".v c #143224",
".w c #2c6a2c",
".x c #c4d2cc",
".y c #f4fef4",
".z c #c4360c",
".A c #bcc2bc",
".B c #1c4234",
".C c #1c4634",
".D c #0c322c",
".E c #44a234",
".F c #fcfaf4",
".G c #dc866c",
".H c #acb2bc",
".I c #0c2e3c",
".J c #3c9a24",
".K c #246634",
".L c #044e2c",
".M c #7c8e94",
".N c #6c727c",
".O c #0c3a24",
".P c #247a3c",
".Q c #f4beb4",
".R c #245234",
".S c #ec9e8c",
".T c #fcfae4",
".U c #a4b6b4",
".V c #e4dedc",
".W c #3c6254",
".X c #94968c",
".Y c #3cb224",
".Z c #1c4e2c",
".0 c #fceae4",
".1 c #fcfef4",
".2 c #dc9e8c",
".3 c #c4cecc",
".4 c #bc321c",
".5 c #144234",
".6 c #e4968c",
".7 c #849aac",
".8 c #6c8a7c",
"#` c #1c5234",
"#. c #d48674",
"## c #ac3e34",
"#a c #94a2a4",
"#b c #d4dad4",
"#c c #343e54",
"#d c #748a9c",
"#e c #849694",
"#f c #ec8a74",
"#g c #fca28c",
"#h c #bc624c",
"#i c #bc3e2c",
"#j c #446a64",
"#k c #cc2e1c",
"#l c #3cae34",
"#m c #1c462c",
"#n c #54a23c",
"#o c #a4b2ac",
"#p c #849a84",
"#q c #fcf2f4",
"#r c #f4c6bc",
"#s c #0c4a1c",
"#t c #1c2e2c",
"#u c #acc2bc",
"#v c #cc9e8c",
"#w c #245e2c",
"#x c #84828c",
"#y c #244e44",
"#z c #347a3c",
"#A c #3c8a3c",
"#B c #2c7e3c",
"#C c #a4aebc",
"#D c #0c3a34",
"#E c #fcbeac",
"#F c #b42a04",
"#G c #245a3c",
"#H c #143234",
"#I c #e4eeec",
"#J c #348a34",
"#K c #bc3204",
"#L c #8c9a9c",
"#M c #fcf2dc",
"#N c #bc2a04",
"#O c #2c663c",
"#P c #3c8a34",
"#Q c #bccec4",
"#R c #dc9684",
"#S c #f4faf4",
"#T c #8caa84",
"#U c #e49e7c",
"#V c #b4320c",
"#W c #2c6e2c",
"#X c #c43a04",
"#Y c #bcc6c4",
"#Z c #0c3634",
"#0 c #44a62c",
"#1 c #3c9e2c",
"#2 c #cc3214",
"#3 c #d4967c",
"#4 c #dcdeec",
"#5 c #143e2c",
"#6 c #bc3a0c",
"#7 c #849e9c",
"#8 c #fcded4",
"a` c #e49e8c",
"a. c #1c3e34",
"a# c #1c4a34",
"aa c #6c767c",
"ab c #043a24",
"ac c #dc9a84",
"ad c #fce6dc",
"ae c #dc9a94",
"af c #ecfefc",
"ag c #14422c",
"ah c #14463c",
"ai c #04323c",
"aj c #e4928c",
"ak c #fcf6fc",
"al c #1c522c",
"am c #2c722c",
"an c #1c5a34",
"ao c #2c6a34",
"ap c #f4fefc",
"aq c #fcfafc",
"ar c #0c2e44",
"as c #fcfaec",
"at c #a4b6bc",
"au c #949694",
"av c #fcfefc",
"aw c #c4ced4",
"ax c #8c9aa4",
"ay c #fcf2e4",
"az c #bc2a0c",
"aA c #bccecc",
"aB c #f4fafc",
"aC c #b43214",
"aD c #44a634",
"aE c #000000",
"aF c #000000",
"aG c #000000",
"aH c #000000",
"aI c #000000",
"aJ c #000000",
"aK c #000000",
"aL c #000000",
"aM c #000000",
"aN c #000000",
"aO c #000000",
"aP c #000000",
"aQ c #000000",
"aR c #000000",
"aS c #000000",
"aT c #000000",
"aU c #000000",
"aV c #000000",
"aW c #000000",
"aX c #000000",
"aY c #000000",
"aZ c #000000",
"a0 c #000000",
"a1 c #000000",
"a2 c #000000",
"a3 c #000000",
"a4 c #000000",
"a5 c #000000",
"a6 c #000000",
"a7 c #000000",
"a8 c #000000",
/* pixels */
"avavavavavaqavaqaqaqavaqavavafaq`g`V#Z#xav",
"avavavavavaqavavaqapavaqaqavav`w.5.J.J.B`Q",
"avaqavaqavavaqavavafavavavaqaq#p#O.Y`C.#`u",
"avavaqaqavavapav.T.Q#8av.navav`w.u#J#P.u#u",
"avavavavapapavas#g#i#h`KaqavaBav`Aar``.X.1",
"avakakavafav#M.2#k#FaC.Gasavavapaw`Tagavav",
"avaqaqavav`6#.`z.`#K`R#V#E#qavav#Q.hag#bav",
".1avavaqav#r`8`s`I#6#X.z##adap.1aw#`.h`G.n",
"`i.a`m`iav.1`X`oaj#2#f.l`7#qavaq.j`2.Z`Nav",
".B#P#n#5#Cavav`U.6`R.S`H#qavaqav.x#`al`Nav",
"#O`L`.`yaxavavak.g`##R.1avaqapav#Y.h`2.sav",
".O#A`J.Z..ap.1av.r#V.2avavapavav..#w.K`a`j",
".m.O.a.8avavav.1`q#Faeavaqavavaq`Z.w.w`4ap",
"ap.Iaravasavaqaq`q.`.gavaqavavav#e#W#W`4av",
"av#H#H#I#qavaqav.k.tacav.Favavaq`Z`E#W.Mav",
"ap.v`p`Navavav.1ac#6#3.1.1avapav#7#W.baa`j",
"av`D#y.3av#qavav`v.4.6apavakaqav#L`n.f#j.n",
"#4.Dah`baqavavaq.r`z`Yavavavavav.N`cao`hav",
"`1.L`d.W`eav.1av`f`la`aq.1.1avaf#c.L`t.o`x",
"`F.E#0.iaxavavaq.0.c.daq.1.yap.U.C`W#1an.q",
"`3.E.E`2#aavavavaqavavakavavaqau.R#l#0.i#T",
"`k`c#Ba#.H.n.1avavay#qavavavav.V#t.P#z`B.A"
};
