/* XPM */
static char *sdkAuto_xpm[] = {
/* width height num_colors chars_per_pixel */
"    30    30      256            2",
/* colors */
"`` c #040204",
"`. c #7c8284",
"`# c #3c4244",
"`a c #bcc2c4",
"`b c #1c2224",
"`c c #dce2dc",
"`d c #5c6264",
"`e c #a4a2a4",
"`f c #ecf2ec",
"`g c #2c3234",
"`h c #0c1214",
"`i c #4c5254",
"`j c #8c928c",
"`k c #e4eae4",
"`l c #6c7274",
"`m c #acb2b4",
"`n c #242a2c",
"`o c #d4d2d4",
"`p c #444a4c",
"`q c #f4fafc",
"`r c #343a3c",
"`s c #141a1c",
"`t c #949a9c",
"`u c #040a0c",
"`v c #eceae4",
"`w c #747a7c",
"`x c #b4babc",
"`y c #848a8c",
"`z c #fcf6fc",
"`A c #2c2a2c",
"`B c #cccacc",
"`C c #242224",
"`D c #ece6e4",
"`E c #6c6a6c",
"`F c #a4aaac",
"`G c #f4f2ec",
"`H c #343234",
"`I c #545a5c",
"`J c #444244",
"`K c #141214",
"`L c #dcdadc",
"`M c #4c4a4c",
"`N c #e4e2e4",
"`O c #949294",
"`P c #7c7674",
"`Q c #3c3a3c",
"`R c #1c1a1c",
"`S c #9c9a9c",
"`T c #0c0a0c",
"`U c #eceef4",
"`V c #bcbab4",
"`W c #2c2e3c",
"`X c #0c060c",
"`Y c #848284",
"`Z c #c4c2bc",
"`0 c #646264",
"`1 c #a4a6b4",
"`2 c #545254",
"`3 c #e4eaf4",
"`4 c #747274",
"`5 c #b4b2b4",
"`6 c #fcfaf4",
"`7 c #eceee4",
"`8 c #7c7a7c",
".` c #8c8a8c",
".. c #2c2e2c",
".# c #242624",
".a c #f4f6fc",
".b c #343644",
".c c #bcbec4",
".d c #040604",
".e c #3c464c",
".f c #1c262c",
".g c #a4a6a4",
".h c #ecf6fc",
".i c #2c3634",
".j c #0c161c",
".k c #e4eeec",
".l c #242e34",
".m c #d4d6d4",
".n c #444e54",
".o c #d4cecc",
".p c #6c6e6c",
".q c #acaaac",
".r c #f4f6f4",
".s c #343634",
".t c #5c5a5c",
".u c #444644",
".v c #141614",
".w c #dcdedc",
".x c #4c4e4c",
".y c #e4e6e4",
".z c #949694",
".A c #3c3e3c",
".B c #1c1e1c",
".C c #9c9e9c",
".D c #0c0e0c",
".E c #bcbebc",
".F c #848684",
".G c #c4c6c4",
".H c #646664",
".I c #54565c",
".J c #747674",
".K c #b4b6b4",
".L c #fcfefc",
".M c #7c7e7c",
".N c #8c8e8c",
".O c #3c424c",
".P c #1c222c",
".Q c #dce2e4",
".R c #ecf2f4",
".S c #0c121c",
".T c #8c9294",
".U c #e4eaec",
".V c #242a34",
".W c #444a54",
".X c #343e3c",
".Y c #141a24",
".Z c #949ea4",
".0 c #040a14",
".1 c #eceaec",
".2 c #2c2a34",
".3 c #cccecc",
".4 c #24222c",
".5 c #ece6ec",
".6 c #f4f2f4",
".7 c #bcbabc",
".8 c #c4c2c4",
"#` c #54525c",
"#. c #5c5e64",
"## c #acaeac",
"#a c #fcfafc",
"#b c #eceeec",
"#c c #2c2e34",
"#d c #24262c",
"#e c #04060c",
"#f c #a4a6ac",
"#g c #2c363c",
"#h c #d4d6dc",
"#i c #6c6e74",
"#j c #34363c",
"#k c #44464c",
"#l c #14161c",
"#m c #dcdee4",
"#n c #4c4e54",
"#o c #e4e6ec",
"#p c #94969c",
"#q c #3c3e44",
"#r c #1c1e24",
"#s c #9c9ea4",
"#t c #0c0e14",
"#u c #84868c",
"#v c #64666c",
"#w c #74767c",
"#x c #b4b6bc",
"#y c #7c7e84",
"#z c #8c8e94",
"#A c #000000",
"#B c #000000",
"#C c #000000",
"#D c #000000",
"#E c #000000",
"#F c #000000",
"#G c #000000",
"#H c #000000",
"#I c #000000",
"#J c #000000",
"#K c #000000",
"#L c #000000",
"#M c #000000",
"#N c #000000",
"#O c #000000",
"#P c #000000",
"#Q c #000000",
"#R c #000000",
"#S c #000000",
"#T c #000000",
"#U c #000000",
"#V c #000000",
"#W c #000000",
"#X c #000000",
"#Y c #000000",
"#Z c #000000",
"#0 c #000000",
"#1 c #000000",
"#2 c #000000",
"#3 c #000000",
"#4 c #000000",
"#5 c #000000",
"#6 c #000000",
"#7 c #000000",
"#8 c #000000",
"a` c #000000",
"a. c #000000",
"a# c #000000",
"aa c #000000",
"ab c #000000",
"ac c #000000",
"ad c #000000",
"ae c #000000",
"af c #000000",
"ag c #000000",
"ah c #000000",
"ai c #000000",
"aj c #000000",
"ak c #000000",
"al c #000000",
"am c #000000",
"an c #000000",
"ao c #000000",
"ap c #000000",
"aq c #000000",
"ar c #000000",
"as c #000000",
"at c #000000",
"au c #000000",
"av c #000000",
"aw c #000000",
"ax c #000000",
"ay c #000000",
"az c #000000",
"aA c #000000",
"aB c #000000",
"aC c #000000",
"aD c #000000",
"aE c #000000",
"aF c #000000",
"aG c #000000",
"aH c #000000",
"aI c #000000",
"aJ c #000000",
"aK c #000000",
"aL c #000000",
"aM c #000000",
"aN c #000000",
"aO c #000000",
"aP c #000000",
"aQ c #000000",
"aR c #000000",
"aS c #000000",
"aT c #000000",
"aU c #000000",
"aV c #000000",
"aW c #000000",
"aX c #000000",
"aY c #000000",
"aZ c #000000",
"a0 c #000000",
"a1 c #000000",
"a2 c #000000",
"a3 c #000000",
"a4 c #000000",
"a5 c #000000",
"a6 c #000000",
"a7 c #000000",
"a8 c #000000",
/* pixels */
".1.6#b.1.6#b#b.6#b.6.1.r.1.1`f#b.6.6`U.r.1.a.U`U`f#b#b.r#b.r",
".6#b`N.r.y.1.1.y.`.`.G.H#b.6.5.1.y#b`U.5`x.T`4`l`S#b.y#b#b`c",
"#b`N#b.5#b.6.y.6.M`8##`H.6`L.r.y#b.5#b`S#q`A`i#n`p#n.q#o#a#o",
".1.r.E##.1#b`B.K.F.J##`M#b.m.K`z#b.6#x.A`b`J#r`s.V#``i#f`U.U",
"#b`O.A`8#b`e`H.z`R`Y.K`Q.K`H.K#b#b#a`E`T#.`r#u#n#r`T.O.I#x.6",
".6`4.B.M.m.A`e#b.M`8.g`C.s.o.1.1`U.w`H`H#j#f#o.a#p.0`s#``w`3",
".1.m.M`R`Y.u.z.y`8.`.g..`C.T#b.y`N.8#t`##..R#o`3#b.T.d.l#j.E",
"#b`e`Y`2`S.C`H`e.B.J.K`Q.8.v`O`G`U`e`X`Q#..1.h#b.k`a`g`h`#`.",
"#b.w`5.G.1#a.K##.o.o.m`B.y`o#x.6`v`Z#e#j#`#b`z.y.6`N.H`h.s.`",
".1.1.1#b.L.w`G.5.y`G.6.w#b.6.y#b.R.U`C.4.2`0#b.r#b.R.N.D`H`0",
"#b.y.6`v.Q.1.6.y.1`D.1.1#b`N.R#o.y`t#r.0.W#j.T.k#b`N.g`T`g.x",
".6.1#b.U.6.R#b.6.y.r.6.1.1`U#b`S.X.P.b#d.f#d.T.h.R`U.T`u`A.p",
"#b.a`U.R.y.H.C.U.r.6.1.r.U###i`s.l.e`r.j#t.l.n`1`U`q#.#l`g`e",
".U.U.U#b.c`H`d`U.1#b.U`m#.`s.f`p#q#r#n`..0#r#k.b`l#.`s.A`I`F",
"#f.p`E#w`I#j`r.q#o`5#i`s.B`r#c.P`W.7#m`q`j`b#r#q`#`2`i.e#y`q",
"`a.x`g`n#j..`g`p#..v`b`H#j`s`n`F`z#o.r`7`G.q`J.4#l.f#k#p.R`U",
"`q#p.i#c.l#d`g`K`n#r`r`K`g`y.7.h.1#b.6.y#b`G#b.7`e`e.L.1.y#a",
".Q.h#y`b#d.Y#l.V#d..#r`d.c`U`U.U.1.1.6#b`N`U.1.1#b`k`L#b.6.w",
".U.E.J`n`K.f.P#d.B.I`m.1.w.R.y#o#b`N.1.1`N`N.w.6#b.5.y.1#b#b",
".6.A`h`b.4`n#r#`.C#b.L`q.a#b.Q.r#b#b.6.y.6#b#b.y.6#b.6.r.r.6",
".Q.I`n.#`g.J#x.R.R.6.Q`L.R#b#a.1.1.r.1.y#b#b.5.y.5#b.1.1`N.y",
".L.z.B`i`o#o#h.y#m.y.r`D`N`L#b#b.y.1.y.1.1.G.C#b.y`N.m.y#b.y",
".y.w.K.3.1`L#o#o.1`N.w`N`F`5`o`N`B.E.6.K`L.g`M.3.w.G##.8#b.w",
".6`f.y`N.U.y.y`N.y.y`N.K`Y.J`H`N`8.J`D#j.q.M`K.``4`0`S`M.N.5",
"`f.6.1.y`N.y#o.y`N.1`N`N`V`4.d.w.J.M.w`J.g.g`J`N``.m.y`O`Q.w",
".5.1.1.y.y.5.y`N.y.w`D`w`A##``#b`Y.J#o`Q##.g`H.1``.m`N.z.u.y",
"`k.1`k#o.y.y`N`N.1`N.w.M`2.J```Z`Y`A`O``.q.E.B`e`E`d`e.A.F.y",
".6#b.1`D`N.y.y.y`N`N.1.w##`5`5.3`N.E.C.E`o`L.E.q.w.8`5.7.1`L",
"#b.6.1.y`N.y.5.y.w.w`D.w.y`D`N.w.1`L.y`D#b`v.w`N`v`c`N.y.1.w",
".1.1.U.y.y.y.y`N.y.5.y#o`N`c`N#b`N`k#o`L.y`N.w.1.U`N.y.w.1.y"
};
