/* XPM */
static char *sdkLength_xpm[] = {
/* width height num_colors chars_per_pixel */
"    30    30      256            2",
/* colors */
"`` c #040204",
"`. c #7c8284",
"`# c #3c4244",
"`a c #bcc2c4",
"`b c #1c2224",
"`c c #dce2e4",
"`d c #5c6264",
"`e c #a4a2a4",
"`f c #ecf2ec",
"`g c #2c3234",
"`h c #4c5254",
"`i c #0c1214",
"`j c #8c928c",
"`k c #242a2c",
"`l c #6c7274",
"`m c #d4d2cc",
"`n c #ece6e4",
"`o c #b4b2b4",
"`p c #f4faf4",
"`q c #444a4c",
"`r c #141a1c",
"`s c #949a9c",
"`t c #040a0c",
"`u c #fcf6fc",
"`v c #343a3c",
"`w c #545a5c",
"`x c #cccacc",
"`y c #242224",
"`z c #a4aaac",
"`A c #f4f2ec",
"`B c #747a7c",
"`C c #eceee4",
"`D c #8c8a8c",
"`E c #6c6a6c",
"`F c #2c2a2c",
"`G c #444244",
"`H c #e4eaec",
"`I c #141214",
"`J c #dcdadc",
"`K c #bcbabc",
"`L c #4c4a4c",
"`M c #c4cacc",
"`N c #343234",
"`O c #545254",
"`P c #949294",
"`Q c #fcfaf4",
"`R c #9c9a9c",
"`S c #0c0a0c",
"`T c #2c2e3c",
"`U c #0c060c",
"`V c #848284",
"`W c #c4c2bc",
"`X c #1c2624",
"`Y c #e4e2e4",
"`Z c #646264",
"`0 c #a4a6b4",
"`1 c #ecf6fc",
"`2 c #747274",
"`3 c #eceaf4",
"`4 c #1c1a1c",
"`5 c #3c3a3c",
"`6 c #5c5a5c",
"`7 c #242624",
"`8 c #b4aeac",
".` c #f4f6fc",
".. c #7c7a7c",
".# c #f4eeec",
".a c #2c2e2c",
".b c #343644",
".c c #545654",
".d c #040604",
".e c #3c464c",
".f c #a4a6a4",
".g c #ecf6f4",
".h c #0c161c",
".i c #d4d6d4",
".j c #eceae4",
".k c #b4b6b4",
".l c #444e54",
".m c #d4cecc",
".n c #acaaac",
".o c #f4f6f4",
".p c #eceef4",
".q c #8c8e8c",
".r c #6c6e6c",
".s c #444644",
".t c #141614",
".u c #dcdedc",
".v c #bcbebc",
".w c #4c4e4c",
".x c #343634",
".y c #949694",
".z c #fcfefc",
".A c #9c9e9c",
".B c #0c0e0c",
".C c #848684",
".D c #c4c6c4",
".E c #e4e6e4",
".F c #646664",
".G c #747674",
".H c #1c1e1c",
".I c #3c3e3c",
".J c #5c5e5c",
".K c #7c7e7c",
".L c #3c424c",
".M c #1c222c",
".N c #ecf2f4",
".O c #0c121c",
".P c #8c9294",
".Q c #242e34",
".R c #d4d2d4",
".S c #f4fafc",
".T c #444a54",
".U c #949ea4",
".V c #040a14",
".W c #cccecc",
".X c #24222c",
".Y c #f4f2f4",
".Z c #eceeec",
".0 c #2c2a34",
".1 c #e4eeec",
".2 c #54525c",
".3 c #fcfafc",
".4 c #c4c2c4",
".5 c #1c262c",
".6 c #24262c",
".7 c #2c2e34",
".8 c #54565c",
"#` c #04060c",
"#. c #acaeac",
"## c #a4a6ac",
"#a c #eceaec",
"#b c #b4b6bc",
"#c c #8c8e94",
"#d c #6c6e74",
"#e c #44464c",
"#f c #14161c",
"#g c #dcdee4",
"#h c #bcbec4",
"#i c #4c4e54",
"#j c #34363c",
"#k c #94969c",
"#l c #9c9ea4",
"#m c #0c0e14",
"#n c #84868c",
"#o c #e4e6ec",
"#p c #64666c",
"#q c #74767c",
"#r c #1c1e24",
"#s c #3c3e44",
"#t c #5c5e64",
"#u c #7c7e84",
"#v c #000000",
"#w c #000000",
"#x c #000000",
"#y c #000000",
"#z c #000000",
"#A c #000000",
"#B c #000000",
"#C c #000000",
"#D c #000000",
"#E c #000000",
"#F c #000000",
"#G c #000000",
"#H c #000000",
"#I c #000000",
"#J c #000000",
"#K c #000000",
"#L c #000000",
"#M c #000000",
"#N c #000000",
"#O c #000000",
"#P c #000000",
"#Q c #000000",
"#R c #000000",
"#S c #000000",
"#T c #000000",
"#U c #000000",
"#V c #000000",
"#W c #000000",
"#X c #000000",
"#Y c #000000",
"#Z c #000000",
"#0 c #000000",
"#1 c #000000",
"#2 c #000000",
"#3 c #000000",
"#4 c #000000",
"#5 c #000000",
"#6 c #000000",
"#7 c #000000",
"#8 c #000000",
"a` c #000000",
"a. c #000000",
"a# c #000000",
"aa c #000000",
"ab c #000000",
"ac c #000000",
"ad c #000000",
"ae c #000000",
"af c #000000",
"ag c #000000",
"ah c #000000",
"ai c #000000",
"aj c #000000",
"ak c #000000",
"al c #000000",
"am c #000000",
"an c #000000",
"ao c #000000",
"ap c #000000",
"aq c #000000",
"ar c #000000",
"as c #000000",
"at c #000000",
"au c #000000",
"av c #000000",
"aw c #000000",
"ax c #000000",
"ay c #000000",
"az c #000000",
"aA c #000000",
"aB c #000000",
"aC c #000000",
"aD c #000000",
"aE c #000000",
"aF c #000000",
"aG c #000000",
"aH c #000000",
"aI c #000000",
"aJ c #000000",
"aK c #000000",
"aL c #000000",
"aM c #000000",
"aN c #000000",
"aO c #000000",
"aP c #000000",
"aQ c #000000",
"aR c #000000",
"aS c #000000",
"aT c #000000",
"aU c #000000",
"aV c #000000",
"aW c #000000",
"aX c #000000",
"aY c #000000",
"aZ c #000000",
"a0 c #000000",
"a1 c #000000",
"a2 c #000000",
"a3 c #000000",
"a4 c #000000",
"a5 c #000000",
"a6 c #000000",
"a7 c #000000",
"a8 c #000000",
/* pixels */
"#a.Y.Z#a.Y.Z.Z.Y.Z.Y#a.o#a#a.Y.Z.p.o.#.`#a.`.p.p`A.Z`f.o.Z.o",
".Y`f`Y.o#a#a#a#a`D.q.D`E.Z.Y`H#a.j.p.p#a#b.P`l`l.A.Z.E.Y.Z`c",
".Z.E.Z#a.Z.Y.E.Z`...#.`N.o`J`Q.E.##o.#`s`#.7`O#i#e`O`z#o.3`H",
"#a`u.v#.#a.Z`x`K.C..#.`L.Z.i.k.`.#.N`K.I`y`G#r`r`k.2.2##.p#a",
".Z`P`#..`A`e`N.y`4`V.k`5.k`N.k.Z.p.3`E`S#t`v#n`h#r.V`#.8#b.`",
".Y`2.H.K.i.I`e.Z.K..`z`y`5.W.Z.#.Z`J#j`N`v###o.`#k#m#f.8`B`H",
"#a`J.K`4`V.s#k`n.K`D.n`F`7`P.Z#o`Y.D`I#s`d.Y`H`3.p.P#``g#j#h",
".Z.f`.`O`R`e`g`e.H.G.k`5.v.t`P`A.#`e#`.I`6`3`1.Z.N`a`g`i`#`.",
".Z.u`o`x.j`Q`K#.`m.m.i`x.j.R#b.o.j`a`U#j.8`3`Q.E.o`c`E`i.x.C",
".Z#a#a.Z.3.u`A#a.E`A.o`Y.Z.Y.E.p`f#a`b.X.0`Z.Z.o.Z`f.q.B`N.F",
".Z.E.o#a`Y.Z.Y.E#a`n#a#a.Z.E.Y.E#o.U#r`S.T.b.P.1.p`Y##`S`g.w",
".Y.Z.Z#a.N.Y.Z.Y`H.o`A#a#a.N.Z.U#s`b.b.5.5.5.P`1.p.N.q`t`F#d",
".Z.`.p.N.j#p.A`H`u.#.Z.``H#.#d#f.Q.e#j.h#m.Q.l`0.p.S`d#f`g`e",
"`H#a`H.Z#h`g`d.p.j.p`H`o`d`r.6`q#s#r#i`.#m`4#e.b`l.J`r`5`w`z",
"###d.r#q`w`5`v#.`H`o`l`r.H`5.Q.6`T#b`c.o`j`b.M#s`#`h#i.e#u.S",
"`a.w`g.0#j.a`g`q`Z`I`b`N#j`r`k`z`u#o.o.#`C.n`G.X#f.M#e#k.N.p",
".o.U`g.7.Q.7#j.O.5`7.7`r.6.P`a.N.Z.Y.Z.Z.Z.3`A.v.f`e.o.Y`Y`p",
"`H`H#u`k`b`r.O.7`y.7`k.8`M`H#a`H.p.E.Y#a.E.Z#o#a.Z`n#a.Z#a.Z",
"`H`a.K`X#f`k.5#r#r`h.k.Z#g.Y.1`n.p.E.Y.E.E#a`Y.Z.p`H`Y.Z.o`Y",
".Y`##m`b.6`4`4.8.A.p.Y.S.`.N#g.Y.Z.o.##a.o.Y.Y.j.Z#a.z`A.N.o",
"`H`h`7`y#f`w.P.`.S.Z.Z.u.Z.Z.z.p#a.Y.Z#a.Z`Y`f.p#a`u.u.Y#a.o",
"`p`R.H.a#.#o`h#g`Y#g.z.E#g#a.E.Z.Y.u.p.Z.Y`Y.Z.j#a`H.w`Y.E`J",
".j.u.n#h.N#o``#a.Y`A.W.Z#a#a.o`J.Z#a.o.j#o.Z.##..R`Y``.Z.Z.E",
".N.o.Z`f`n.p``.Z#a.k`o`J#a`W`x#..i.3`Y.v.n`o.D`G.n.Z```x`8#a",
".Z.o.#.p.Y#a`t.E`E`Z.A`S`J`G`G...H#a.r`Z.G.H`V`b`6.W``.G`w`E",
".##a.Z.p.E.Y``#a.d.F`V`7.f.I#.#a.d.E.I`R`Y``.Z`G`o`H```Y.k`G",
"`H`n`H#a.Z.Z``.Z```Y#a`A.Y`N.k.Z``#a`D`y`d.C.Z.I.n.j`S.Z`e.s",
".Y.N`Y.#.Z#a``.E.G.s`o`#.Z`G.n#a```A`.`5...C.R`O.K.i``.Z`o.x",
".Y.Z.o.E`n`H`K#a.Z.W.n`Y.E.v.u.Z#.#a`G`V.k`y.C.i.n`x.n.E.u`W",
".E`n.o.E.##a`Y.Y`H.#.N`Y.o`n#a.E.##o```J`c.F`V.Y.E.Z.j.3#g.#"
};
