/* XPM */
static char *splitJoint_xpm[] = {
/* width height num_colors chars_per_pixel */
"    25    22      256            2",
/* colors */
"`` c #0c2e2c",
"`. c #3c8e14",
"`# c #a4ae9c",
"`a c #942a1c",
"`b c #c4ced4",
"`c c #145e14",
"`d c #d4e6e4",
"`e c #7c3e3c",
"`f c #0c4a14",
"`g c #845a24",
"`h c #6c923c",
"`i c #f4e6dc",
"`j c #54721c",
"`k c #ec9684",
"`l c #3caa2c",
"`m c #e41e1c",
"`n c #ecf6e4",
"`o c #2c4e4c",
"`p c #44923c",
"`q c #d4c2b4",
"`r c #dc361c",
"`s c #0c561c",
"`t c #fcf6ec",
"`u c #247a24",
"`v c #243e34",
"`w c #349a24",
"`x c #4c6264",
"`y c #ec1a04",
"`z c #fca28c",
"`A c #0c3a1c",
"`B c #346a24",
"`C c #4c8684",
"`D c #e4d2dc",
"`E c #044624",
"`F c #f42204",
"`G c #ec5a4c",
"`H c #eceee4",
"`I c #f48e8c",
"`J c #f4fee4",
"`K c #fcfeec",
"`L c #1c3e2c",
"`M c #449634",
"`N c #bcbacc",
"`O c #dcfefc",
"`P c #74929c",
"`Q c #548e44",
"`R c #f4ae9c",
"`S c #1c5224",
"`T c #acbacc",
"`U c #bc1e2c",
"`V c #ec3a44",
"`W c #fc1604",
"`X c #0c421c",
"`Y c #144634",
"`Z c #fc765c",
"`0 c #8cb6b4",
"`1 c #348e2c",
"`2 c #2c622c",
"`3 c #3cb61c",
"`4 c #24522c",
"`5 c #fcf6fc",
"`6 c #2c823c",
"`7 c #6c7a7c",
"`8 c #fceeec",
".` c #ecfef4",
".. c #8c9aac",
".# c #fcbebc",
".a c #c4dad4",
".b c #dceeec",
".c c #449a14",
".d c #54725c",
".e c #3c666c",
".f c #fce2e4",
".g c #fc6e54",
".h c #fc8e94",
".i c #c42e04",
".j c #fc1e04",
".k c #1c4e2c",
".l c #6c8a84",
".m c #9cbaac",
".n c #fc8e74",
".o c #349e3c",
".p c #145a1c",
".q c #fcfaec",
".r c #347244",
".s c #143a24",
".t c #f4cecc",
".u c #ec624c",
".v c #4ca244",
".w c #1c5234",
".x c #fc4a3c",
".y c #1c462c",
".z c #3c962c",
".A c #246a44",
".B c #34564c",
".C c #fceefc",
".D c #f4fef4",
".E c #fcc6bc",
".F c #b4321c",
".G c #dcd2d4",
".H c #dce6f4",
".I c #6c4634",
".J c #1c4a1c",
".K c #fce6e4",
".L c #4cae34",
".M c #cc2e1c",
".N c #ecfafc",
".O c #f43e1c",
".P c #14562c",
".Q c #2c7634",
".R c #f4aa9c",
".S c #0c3e1c",
".T c #446e24",
".U c #fc2214",
".V c #f48e9c",
".W c #fcfefc",
".X c #e4feec",
".Y c #7ca2a4",
".Z c #1c562c",
".0 c #acbed4",
".1 c #dc4644",
".2 c #fc1614",
".3 c #144224",
".4 c #2c6a24",
".5 c #4cb22c",
".6 c #245a24",
".7 c #6c7e8c",
".8 c #8ca2ac",
"#` c #fcc2b4",
"#. c #7c720c",
"## c #f48a7c",
"#a c #846264",
"#b c #943a24",
"#c c #3c4634",
"#d c #5c7274",
"#e c #bc3a04",
"#f c #4c727c",
"#g c #349624",
"#h c #849294",
"#i c #dc2e24",
"#j c #449e3c",
"#k c #44b234",
"#l c #4c963c",
"#m c #a4b2b4",
"#n c #449e2c",
"#o c #4c9e5c",
"#p c #144e04",
"#q c #2c4244",
"#r c #f45e3c",
"#s c #dc465c",
"#t c #44aa3c",
"#u c #4c9624",
"#v c #34822c",
"#w c #3c9e2c",
"#x c #f45644",
"#y c #fccecc",
"#z c #fc4214",
"#A c #cccad4",
"#B c #146224",
"#C c #448e4c",
"#D c #0c522c",
"#E c #1c423c",
"#F c #fcb29c",
"#G c #446a6c",
"#H c #1c4a3c",
"#I c #b42e2c",
"#J c #f4eeec",
"#K c #748a8c",
"#L c #a4bab4",
"#M c #f4faf4",
"#N c #94a2a4",
"#O c #f41a04",
"#P c #fca29c",
"#Q c #3c6a24",
"#R c #0c4624",
"#S c #0c422c",
"#T c #3c8e2c",
"#U c #fc8e84",
"#V c #e4fefc",
"#W c #d4c6bc",
"#X c #4c665c",
"#Y c #f4260c",
"#Z c #acbec4",
"#0 c #6c7e84",
"#1 c #fcf2f4",
"#2 c #dcf2f4",
"#3 c #fc928c",
"#4 c #2c7a2c",
"#5 c #fcd2c4",
"#6 c #0c322c",
"#7 c #144a34",
"#8 c #24562c",
"a` c #fcfafc",
"a. c #c4ded4",
"a# c #fcf2fc",
"aa c #dceaf4",
"ab c #6c4a34",
"ac c #fceae4",
"ad c #f4929c",
"ae c #fcf6f4",
"af c #0c3a24",
"ag c #f4feec",
"ah c #fcfef4",
"ai c #1c522c",
"aj c #fc160c",
"ak c #2c6234",
"al c #ecfefc",
"am c #449a1c",
"an c #fc1e0c",
"ao c #fc8e7c",
"ap c #fcfaf4",
"aq c #3c9634",
"ar c #f4fefc",
"as c #fcc2bc",
"at c #000000",
"au c #000000",
"av c #000000",
"aw c #000000",
"ax c #000000",
"ay c #000000",
"az c #000000",
"aA c #000000",
"aB c #000000",
"aC c #000000",
"aD c #000000",
"aE c #000000",
"aF c #000000",
"aG c #000000",
"aH c #000000",
"aI c #000000",
"aJ c #000000",
"aK c #000000",
"aL c #000000",
"aM c #000000",
"aN c #000000",
"aO c #000000",
"aP c #000000",
"aQ c #000000",
"aR c #000000",
"aS c #000000",
"aT c #000000",
"aU c #000000",
"aV c #000000",
"aW c #000000",
"aX c #000000",
"aY c #000000",
"aZ c #000000",
"a0 c #000000",
"a1 c #000000",
"a2 c #000000",
"a3 c #000000",
"a4 c #000000",
"a5 c #000000",
"a6 c #000000",
"a7 c #000000",
"a8 c #000000",
/* pixels */
"`D#d.e`T#1ahap.Wa`.W.W.W`5ar.W.W.W.W.W.W.W.W.W.W.W",
".y.Q`6`A#N.W.W.W.W.W.N.W.Wa`a`.W.W.W.W.W.W.W.W.W.W",
".P.o`l.Q``.7ar.Wa`#M.W.W.W.Wa`ar.W.W.W.W.W.W.W.W.W",
"af#o#j`cai`Y.laa.W`Oa`a`al.Warar.W.W.W.W.W.W.W.W.W",
"`7.s#R#p#l.z`s#G`n.W`5.W.W.W.W`5.W.W.W.W.W.W.W.W.W",
".W#Z`vak#j`3#t.Zab#s#y.Wa#.Wa`.W.W.W.W.W.W.W.W.W.W",
".W.W.b.B.p#g#u`h.F#I`q.W.W.W#Mar.W.W.W.W.W.W.W.W.W",
".W.W.Wa``P`X`j#.`r#Q#8#L.Wa#.Wap.W.W.W.W.W.W.W.W.W",
".W.War.W.W`q`a.M.c#k#Q.3`0`5a`.W.W.W.W.W.Warar.W.W",
"#1ahapa#al#y.1`g#H#v#k#j`A...W.Wae.Wa`.W.Wah.Wa#.W",
"al.Waral.W.W#1ah.Y`v`uam`p`E`7ah`K.D.W`5a`#J.Wa`.W",
"ar.W.W.Waealal.War`b#q.6#w`w.6`C#5`ia`.Wa`.Wal.W.W",
".Wa``8#P`kac`5a`.Wap.H#f.J`..z#c`Uada#.W.W.X.Wa#.W",
".`.Wah`G`m.#.W.W.Wa`.W#V#h.w.4#e#b.I`Har.W.Wa`.W.W",
"ah.W.q#x.U#`.Waeag.W.Cah.W`N`e.i`Q#B#D.a.Wa`.W.W.W",
"#F.V.h#z`F`Z`I.h.Kaha``5.W`z`V#a`f#C.A`v.Ga`.W.W.W",
"#r`W#O#Y.j.j`W`F.tae.W.W.Wa`#Jah`##6.r.Q#E.0`b`d.W",
".R#U.n.O`y.g.n##.Ka`.War.W.Wap.W`J.a`4`2#S.y.w.S#m",
".W.W.q.u#ias.W.Wa`.W.W.W.W.W.W.W.W.W#M#X#R#C#w`1`o",
"a`.W.q.x.2.#.Wag.W.W.W.Wa`a`.W.W.Wa`a#a`af#T.5.z#E",
"ap.War#F#3.far`K.W.War.Wa``5.W.Wah.Wa`.W`x`S.4`Y#K",
".Wa`#Var#1.W.W.Wah.W.W.W.W.W.W.Wag.Wa`.W#2.m.d.8ar"
};
