/* XPM */
static char *suffix_xpm[] = {
/* width height num_colors chars_per_pixel */
"    30    30      256            2",
/* colors */
"`` c #ffffff",
"`. c #fefefe",
"`# c #bbbbbb",
"`a c #dbdbdb",
"`b c #fbfbfb",
"`c c #fcfcfc",
"`d c #dadada",
"`e c #bababa",
"`f c #242424",
"`g c #858585",
"`h c #fafafa",
"`i c #fdfdfd",
"`j c #bcbcbc",
"`k c #000000",
"`l c #3a3a3a",
"`m c #1f1f1f",
"`n c #434343",
"`o c #030303",
"`p c #dddddd",
"`q c #010101",
"`r c #848484",
"`s c #222222",
"`t c #0f0f0f",
"`u c #686868",
"`v c #999999",
"`w c #636363",
"`x c #121212",
"`y c #b9b9b9",
"`z c #131313",
"`A c #020202",
"`B c #979797",
"`C c #464646",
"`D c #787878",
"`E c #454545",
"`F c #101010",
"`G c #404040",
"`H c #474747",
"`I c #878787",
"`J c #767676",
"`K c #040404",
"`L c #f9f9f9",
"`M c #444444",
"`N c #353535",
"`O c #111111",
"`P c #e0e0e0",
"`Q c #dcdcdc",
"`R c #666666",
"`S c #323232",
"`T c #888888",
"`U c #656565",
"`V c #414141",
"`W c #545454",
"`X c #9a9a9a",
"`Y c #bdbdbd",
"`Z c #898989",
"`0 c #424242",
"`1 c #484848",
"`2 c #d8d8d8",
"`3 c #8a8a8a",
"`4 c #b7b7b7",
"`5 c #868686",
"`6 c #555555",
"`7 c #f8f8f8",
"`8 c #151515",
".` c #696969",
".. c #000000",
".# c #000000",
".a c #000000",
".b c #000000",
".c c #000000",
".d c #000000",
".e c #000000",
".f c #000000",
".g c #000000",
".h c #000000",
".i c #000000",
".j c #000000",
".k c #000000",
".l c #000000",
".m c #000000",
".n c #000000",
".o c #000000",
".p c #000000",
".q c #000000",
".r c #000000",
".s c #000000",
".t c #000000",
".u c #000000",
".v c #000000",
".w c #000000",
".x c #000000",
".y c #000000",
".z c #000000",
".A c #000000",
".B c #000000",
".C c #000000",
".D c #000000",
".E c #000000",
".F c #000000",
".G c #000000",
".H c #000000",
".I c #000000",
".J c #000000",
".K c #000000",
".L c #000000",
".M c #000000",
".N c #000000",
".O c #000000",
".P c #000000",
".Q c #000000",
".R c #000000",
".S c #000000",
".T c #000000",
".U c #000000",
".V c #000000",
".W c #000000",
".X c #000000",
".Y c #000000",
".Z c #000000",
".0 c #000000",
".1 c #000000",
".2 c #000000",
".3 c #000000",
".4 c #000000",
".5 c #000000",
".6 c #000000",
".7 c #000000",
".8 c #000000",
"#` c #000000",
"#. c #000000",
"## c #000000",
"#a c #000000",
"#b c #000000",
"#c c #000000",
"#d c #000000",
"#e c #000000",
"#f c #000000",
"#g c #000000",
"#h c #000000",
"#i c #000000",
"#j c #000000",
"#k c #000000",
"#l c #000000",
"#m c #000000",
"#n c #000000",
"#o c #000000",
"#p c #000000",
"#q c #000000",
"#r c #000000",
"#s c #000000",
"#t c #000000",
"#u c #000000",
"#v c #000000",
"#w c #000000",
"#x c #000000",
"#y c #000000",
"#z c #000000",
"#A c #000000",
"#B c #000000",
"#C c #000000",
"#D c #000000",
"#E c #000000",
"#F c #000000",
"#G c #000000",
"#H c #000000",
"#I c #000000",
"#J c #000000",
"#K c #000000",
"#L c #000000",
"#M c #000000",
"#N c #000000",
"#O c #000000",
"#P c #000000",
"#Q c #000000",
"#R c #000000",
"#S c #000000",
"#T c #000000",
"#U c #000000",
"#V c #000000",
"#W c #000000",
"#X c #000000",
"#Y c #000000",
"#Z c #000000",
"#0 c #000000",
"#1 c #000000",
"#2 c #000000",
"#3 c #000000",
"#4 c #000000",
"#5 c #000000",
"#6 c #000000",
"#7 c #000000",
"#8 c #000000",
"a` c #000000",
"a. c #000000",
"a# c #000000",
"aa c #000000",
"ab c #000000",
"ac c #000000",
"ad c #000000",
"ae c #000000",
"af c #000000",
"ag c #000000",
"ah c #000000",
"ai c #000000",
"aj c #000000",
"ak c #000000",
"al c #000000",
"am c #000000",
"an c #000000",
"ao c #000000",
"ap c #000000",
"aq c #000000",
"ar c #000000",
"as c #000000",
"at c #000000",
"au c #000000",
"av c #000000",
"aw c #000000",
"ax c #000000",
"ay c #000000",
"az c #000000",
"aA c #000000",
"aB c #000000",
"aC c #000000",
"aD c #000000",
"aE c #000000",
"aF c #000000",
"aG c #000000",
"aH c #000000",
"aI c #000000",
"aJ c #000000",
"aK c #000000",
"aL c #000000",
"aM c #000000",
"aN c #000000",
"aO c #000000",
"aP c #000000",
"aQ c #000000",
"aR c #000000",
"aS c #000000",
"aT c #000000",
"aU c #000000",
"aV c #000000",
"aW c #000000",
"aX c #000000",
"aY c #000000",
"aZ c #000000",
"a0 c #000000",
"a1 c #000000",
"a2 c #000000",
"a3 c #000000",
"a4 c #000000",
"a5 c #000000",
"a6 c #000000",
"a7 c #000000",
"a8 c #000000",
/* pixels */
"````````````````````````````````````````````````````````````",
"````````````````````````````````````````````````````````````",
"````````````````````````````````````````````````````````````",
"````````````````````````````````````````````````````````````",
"````````````````````````````````````````````````````````````",
"````````````````````````````````````````````````````````````",
"````````````````````````````````````````````````````````````",
"````````````````````````````````````````````````````````````",
"`.`.```#`a```b```.```.`.`.```c```````c`````c`c`````.```c```c",
"```d`e`f`g`c```c```````.```h`````b`.`````c`````c`i```````.``",
"`.`j`k`k`l`m```````.`h```h```i`i```i```h`````c`````.`````i`c",
"`i```n`o`k`p`i```c```.```.`i`````h```````b```c```.`h```.`.``",
"`.`#`q`r`q`````c```c`c`````a`s`t`u`v```w`o`x`y```v`z`A`B```i",
"```````.```c`i`````.```i`c`k`C`D`k`n`E`F`j`G`H`a`k`I`J`k`i``",
"`.```b`.`.`````.`.`.```.```K`L`i`M`M`k`N`O`o`B`D`N`i```k`.`.",
"```````i```i```i`.```c```c`k`P`.`M`M`O`z`g`Q`v`R`S`.`T`q```.",
"```.`````.```i```.```i```c`U`q`k`q`V`B`A`k`q`W`Q`q`s`k`X`i``",
"`i```.`h```#`q`k`q`k`A`k`H`c`Y`Z`0`1```c`g```i`.`2`3`4`.```b",
"```.```.```b`T`Z`T`I`T`5`#`6`J`T`k`U`.`````7```i```````i`c``",
"```c`.```7`````i```````````B`8`k.``.```7`````b```.`i`h`````c",
"`.`i```````b```````i`i`c`````7`````.`i```c```.```c```````h`.",
"`i`i```i`i```.```i`````.`i`b```c`.`.`.`i`````c`.`i```i`b````",
"`````b`````.`i`````i`i`.```````b`.```i```i`.```````b```i`i`i",
"```.`````i`.```c```i```.`````b```.`i`````i```.```i`````.```i",
"````````````````````````````````````````````````````````````",
"````````````````````````````````````````````````````````````",
"````````````````````````````````````````````````````````````",
"````````````````````````````````````````````````````````````",
"````````````````````````````````````````````````````````````",
"````````````````````````````````````````````````````````````"
};
