/* XPM */
static char *toRef_xpm[] = {
/* width height num_colors chars_per_pixel */
"    32    32      256            2",
/* colors */
"`` c #ffffff",
"`. c #feffff",
"`# c #ccdafc",
"`a c #8facf7",
"`b c #6f95f5",
"`c c #638cf4",
"`d c #f6f8fe",
"`e c #9ab4f8",
"`f c #648cf4",
"`g c #8caaf7",
"`h c #becffb",
"`i c #dae4fc",
"`j c #fefeff",
"`k c #6d93f5",
"`l c #cfdcfc",
"`m c #cddafc",
"`n c #6089f4",
"`o c #d0dcfc",
"`p c #8eabf7",
"`q c #8baaf7",
"`r c #b0b0b0",
"`s c #484848",
"`t c #181818",
"`u c #020202",
"`v c #6e94f5",
"`w c #bfcffb",
"`x c #f6f6f6",
"`y c #5b5b5b",
"`z c #080808",
"`A c #555555",
"`B c #a6a6a6",
"`C c #d6d6d6",
"`D c #f2f2f2",
"`E c #eaeaea",
"`F c #efefef",
"`G c #f3f3f3",
"`H c #f7f7f7",
"`I c #fbfbfb",
"`J c #d7e1f9",
"`K c #628bf2",
"`L c #fefefe",
"`M c #fcfcfc",
"`N c #171717",
"`O c #c4c4c4",
"`P c #fdfdfd",
"`Q c #d1d1d1",
"`R c #cbcbcb",
"`S c #cdcdcd",
"`T c #cccfd6",
"`U c #91a6db",
"`V c #eeeeee",
"`W c #ababab",
"`X c #000000",
"`Y c #c7c7c7",
"`Z c #f4f4f4",
"`0 c #c9c9c9",
"`1 c #afafaf",
"`2 c #f9f9f9",
"`3 c #b4b4b4",
"`4 c #a7a7a7",
"`5 c #a0a0a0",
"`6 c #8b8b8b",
"`7 c #d3d3d3",
"`8 c #c2c2c2",
".` c #e9e9e9",
".. c #535353",
".# c #454545",
".a c #f8f8f8",
".b c #e6e6e6",
".c c #c3c3c3",
".d c #a2a2a2",
".e c #8a8a8a",
".f c #808080",
".g c #999999",
".h c #fafafa",
".i c #a8a8a8",
".j c #ececec",
".k c #dedede",
".l c #cecece",
".m c #c1c1c1",
".n c #8f97ab",
".o c #4c5e8c",
".p c #6c6f77",
".q c #616161",
".r c #585858",
".s c #aeaeae",
".t c #e3e3e3",
".u c #ebebeb",
".v c #d5d5d5",
".w c #f5f5f5",
".x c #dadada",
".y c #c8c8c8",
".z c #959eb5",
".A c #4a63a5",
".B c #63749f",
".C c #a2a2a3",
".D c #090909",
".E c #6b6b6b",
".F c #515151",
".G c #363636",
".H c #6d6d6d",
".I c #bebebe",
".J c #d0d0d0",
".K c #dcdcdc",
".L c #e8e8e8",
".M c #f1f1f1",
".N c #bccdf8",
".O c #d1dbf2",
".P c #c9d2e8",
".Q c #a4b3d9",
".R c #6f87c4",
".S c #4966b1",
".T c #6879a7",
".U c #9d9fa2",
".V c #9e9e9e",
".W c #9d9d9d",
".X c #0f0f0f",
".Y c #696969",
".Z c #595959",
".0 c #a9a9a9",
".1 c #b2b2b2",
".2 c #bdbdbd",
".3 c #dddddd",
".4 c #6e94f3",
".5 c #6088ed",
".6 c #5d83e5",
".7 c #6385db",
".8 c #778fcd",
"#` c #9ea9c4",
"#. c #b8b9b9",
"## c #a4a4a4",
"#a c #2b2b2b",
"#b c #333333",
"#c c #9b9b9b",
"#d c #9a9a9a",
"#e c #e2e2e2",
"#f c #d7d7d7",
"#g c #c5c5c5",
"#h c #b6b6b6",
"#i c #797979",
"#j c #818181",
"#k c #bfbfbf",
"#l c #d4d4d4",
"#m c #e5e5e5",
"#n c #c6c6c6",
"#o c #dbdbdb",
"#p c #111111",
"#q c #b9b9b9",
"#r c #d8d8d8",
"#s c #bcbcbc",
"#t c #e4e4e4",
"#u c #dfdfdf",
"#v c #4b4b4b",
"#w c #060606",
"#x c #424242",
"#y c #aaaaaa",
"#z c #b3b3b3",
"#A c #939393",
"#B c #4f4f4f",
"#C c #5a5a5a",
"#D c #e7e7e7",
"#E c #9c9c9c",
"#F c #3f3f3f",
"#G c #151515",
"#H c #161616",
"#I c #adadad",
"#J c #f0f0f0",
"#K c #000000",
"#L c #000000",
"#M c #000000",
"#N c #000000",
"#O c #000000",
"#P c #000000",
"#Q c #000000",
"#R c #000000",
"#S c #000000",
"#T c #000000",
"#U c #000000",
"#V c #000000",
"#W c #000000",
"#X c #000000",
"#Y c #000000",
"#Z c #000000",
"#0 c #000000",
"#1 c #000000",
"#2 c #000000",
"#3 c #000000",
"#4 c #000000",
"#5 c #000000",
"#6 c #000000",
"#7 c #000000",
"#8 c #000000",
"a` c #000000",
"a. c #000000",
"a# c #000000",
"aa c #000000",
"ab c #000000",
"ac c #000000",
"ad c #000000",
"ae c #000000",
"af c #000000",
"ag c #000000",
"ah c #000000",
"ai c #000000",
"aj c #000000",
"ak c #000000",
"al c #000000",
"am c #000000",
"an c #000000",
"ao c #000000",
"ap c #000000",
"aq c #000000",
"ar c #000000",
"as c #000000",
"at c #000000",
"au c #000000",
"av c #000000",
"aw c #000000",
"ax c #000000",
"ay c #000000",
"az c #000000",
"aA c #000000",
"aB c #000000",
"aC c #000000",
"aD c #000000",
"aE c #000000",
"aF c #000000",
"aG c #000000",
"aH c #000000",
"aI c #000000",
"aJ c #000000",
"aK c #000000",
"aL c #000000",
"aM c #000000",
"aN c #000000",
"aO c #000000",
"aP c #000000",
"aQ c #000000",
"aR c #000000",
"aS c #000000",
"aT c #000000",
"aU c #000000",
"aV c #000000",
"aW c #000000",
"aX c #000000",
"aY c #000000",
"aZ c #000000",
"a0 c #000000",
"a1 c #000000",
"a2 c #000000",
"a3 c #000000",
"a4 c #000000",
"a5 c #000000",
"a6 c #000000",
"a7 c #000000",
"a8 c #000000",
/* pixels */
"````````````````````````````````````````````````````````````````",
"````````````````````````````````````````````````````````````````",
"````````````````````````````````````````````````````````````````",
"````````````````````````````````````````````````````````````````",
"````````````````````````````````````````````````````````````````",
"````````````````````````````````````````````````````````````````",
"````````````````````````````````````````````````````````````````",
"````````````````````````````````````````````````````````````````",
"```````.`#`a`b`c`c`b`a`#`.``````````````````````````````````````",
"`````d`e`f`g`h`i`i`h`g`f`e`d````````````````````````````````````",
"```j`e`k`l`````````````l`k`e`j``````````````````````````````````",
"```m`n`o`````````````````o`n`m``````````````````````````````````",
"```p`q`````````````````````q`p`````````r`s`t`u`u`t`s`r``````````",
"```v`w`````````````````````w`v`````x`y`z`A`B`C`C`B`A`z`y`x``````",
"```c`i`````````D`E`F`G`H`I`J`K`L`M`y`N`O`````````````O`N`y`P````",
"```c`i`````````Q`R`R`R`R`S`T`U`V`W`X`Y`Z`L`````````````0`X`1````",
"```v`w```````2`3`4`4`4`4`4`4`4`4`5`6`7`8.``I`I`P`L`L````...#````",
"```p`q```````P.a.b.c.d.e.f.f.f.f.f.f.f.f.g`F`D`x.h`M`L``.i`t````",
"```m`n`o`````P`x.j.k.l.m.n.o.p.q.r.r.r.r.r.s.t.u`D.a`I`L.v`u````",
"```j`e`k`l```M.w.`.x.y.z.A.B.C`B.D.E.F.G.H.I.J.K.L.M.a`L.v`u````",
"`````d`e`f`g.N.O.P.Q.R.S.T.U.V.W.X.Y.Z`6.0.1.2`S.3.u.w`M.i`t````",
"```````.`#`a.4.5.6.7.8#`#.`r`4###a#b#c#d.W##`r`8`C.b`G`I...#````",
"`````````````L`I.w.j#e#f.l#g.2#h#i`X#j`5`5##`1#k#l#m`D#n`X`1````",
"`````````````L`P.h.w`F.`#e#o#l.l#n.##p.e`r.1#q.y#r.L#s`N`y`P````",
"```````````````L`L`I`2`x`D`V.`#t#u.J#v#w#x#j#y#z#A#B`z#C`x``````",
"`````````````````````L`L`M.h.a.w.M.j#D#E#F#G`u`u#H.##I`L````````",
"`````````````````````````````L`L`M`2`x`D#J`F`F`D`x`2`P`L````````",
"```````````````````````````````````L`L`M`I.h.h`I`M`L`L``````````",
"`````````````````````````````````````````L`L`L``````````````````",
"````````````````````````````````````````````````````````````````",
"````````````````````````````````````````````````````````````````",
"````````````````````````````````````````````````````````````````"
};
