/* XPM */
static char *twistySeg_xpm[] = {
/* width height num_colors chars_per_pixel */
"    20    28      256            2",
/* colors */
"`` c #fffeff",
"`. c #fdfffe",
"`# c #fefffe",
"`a c #ffffff",
"`b c #fefffd",
"`c c #f6d9ce",
"`d c #feffff",
"`e c #70706f",
"`f c #010000",
"`g c #000000",
"`h c #3f4040",
"`i c #f1f0f1",
"`j c #fffffe",
"`k c #fdffff",
"`l c #fdfffd",
"`m c #f1a193",
"`n c #e24326",
"`o c #a0a09e",
"`p c #1e1f1e",
"`q c #dee0df",
"`r c #efefef",
"`s c #5f605f",
"`t c #5f6060",
"`u c #fffffd",
"`v c #fffdfe",
"`w c #fbffff",
"`x c #fae5e0",
"`y c #e13415",
"`z c #f8cac1",
"`A c #3f3f41",
"`B c #7f807f",
"`C c #dfdedf",
"`D c #120f10",
"`E c #fdfffc",
"`F c #e55e46",
"`G c #ec8674",
"`H c #fefefe",
"`I c #c2c1bf",
"`J c #000002",
"`K c #4e4f4e",
"`L c #9f9f9f",
"`M c #2e3130",
"`N c #fffdff",
"`O c #fffefe",
"`P c #f1a294",
"`Q c #e24321",
"`R c #fff2f1",
"`S c #f2eef2",
"`T c #e1e0df",
"`U c #2f3030",
"`V c #205845",
"`W c #040b09",
"`X c #3e3f3f",
"`Y c #5e605f",
"`Z c #010001",
"`0 c #afb0b0",
"`1 c #fbe4e3",
"`2 c #e13515",
"`3 c #f7cac3",
"`4 c #9ea2a1",
"`5 c #0f1012",
"`6 c #4f514e",
"`7 c #071713",
"`8 c #40b091",
".` c #3da488",
".. c #184234",
".# c #000100",
".a c #e65f45",
".b c #eb8670",
".c c #fffefc",
".d c #b0b2b1",
".e c #092119",
".f c #399a7f",
".g c #3aa684",
".h c #091511",
".i c #7f8180",
".j c #f2a292",
".k c #e34228",
".l c #fef2f0",
".m c #807f81",
".n c #0f2c24",
".o c #1d4c3e",
".p c #071714",
".q c #5f6160",
".r c #fae6e3",
".s c #e13517",
".t c #f8cabf",
".u c #dfe0e0",
".v c #120f11",
".w c #348e74",
".x c #41b191",
".y c #0f2c25",
".z c #404040",
".A c #f0f0f0",
".B c #e65d42",
".C c #ec8675",
".D c #edf2f0",
".E c #606060",
".F c #184337",
".G c #42b18f",
".H c #164136",
".I c #2e3131",
".J c #e1e1e0",
".K c #a0a0a0",
".L c #f1a192",
".M c #e14424",
".N c #fef2ef",
".O c #6f7071",
".P c #a2a0a0",
".Q c #389b7c",
".R c #246351",
".S c #0f1010",
".T c #f2f0f0",
".U c #ee9383",
".V c #fef3f1",
".W c #fce4e3",
".X c #e13416",
".Y c #f6cabf",
".Z c #807f7f",
".0 c #102c24",
".1 c #276e59",
".2 c #0e1212",
".3 c #cfd1cf",
".4 c #fffefd",
".5 c #ee9482",
".6 c #e55e45",
".7 c #e65e43",
".8 c #ec8773",
"#` c #bfc0bf",
"#. c #050b0a",
"## c #0d201c",
"#a c #a19f9f",
"#b c #ec8770",
"#c c #df2706",
"#d c #de2709",
"#e c #f1a093",
"#f c #f9e6e0",
"#g c #20201f",
"#h c #1b4d3e",
"#i c #050b0c",
"#j c #615f60",
"#k c #010100",
"#l c #817e7f",
"#m c #fcffff",
"#n c #e55d47",
"#o c #de2707",
"#p c #df2806",
"#q c #df2a08",
"#r c #e97864",
"#s c #fce5e2",
"#t c #9ea09f",
"#u c #030c09",
"#v c #081612",
"#w c #8f9192",
"#x c #ced0cf",
"#y c #616060",
"#z c #e34224",
"#A c #db2a05",
"#B c #f19384",
"#C c #fef2ec",
"#D c #f1f0ef",
"#E c #0f1210",
"#F c #e65f44",
"#G c #fce4e1",
"#H c #7f8081",
"#I c #4f4f4f",
"#J c #fefeff",
"#K c #d0d0d1",
"#L c #1f211e",
"#M c #020000",
"#N c #000200",
"#O c #302f2f",
"#P c #505050",
"#Q c #6f6f71",
"#R c #8d8f8f",
"#S c #211f20",
"#T c #aeafad",
"#U c #e0dee0",
"#V c #f9a04b",
"#W c #ffdfc5",
"#X c #80807f",
"#Y c #1f2021",
"#Z c #807f7d",
"#0 c #2e2e2d",
"#1 c #6c7271",
"#2 c #fbb979",
"#3 c #fbb778",
"#4 c #fefffc",
"#5 c #9f9792",
"#6 c #7e7f83",
"#7 c #918f93",
"#8 c #ffe8d3",
"a` c #f8881b",
"a. c #fee8d7",
"a# c #f9993d",
"aa c #ffdec6",
"ab c #fbc089",
"ac c #f8881e",
"ad c #ffe0c1",
"ae c #f9b77a",
"af c #f8800e",
"ag c #fab167",
"ah c #fff0e3",
"ai c #fed7b6",
"aj c #f98f2d",
"ak c #f78010",
"al c #f7800e",
"am c #f8800f",
"an c #fba85a",
"ao c #fdf1e2",
"ap c #fcc087",
"aq c #f87f10",
"ar c #f97f11",
"as c #fab067",
"at c #fef0e1",
"au c #f9983b",
"av c #faa04b",
"aw c #fdf0e4",
"ax c #fcc897",
"ay c #000000",
"az c #000000",
"aA c #000000",
"aB c #000000",
"aC c #000000",
"aD c #000000",
"aE c #000000",
"aF c #000000",
"aG c #000000",
"aH c #000000",
"aI c #000000",
"aJ c #000000",
"aK c #000000",
"aL c #000000",
"aM c #000000",
"aN c #000000",
"aO c #000000",
"aP c #000000",
"aQ c #000000",
"aR c #000000",
"aS c #000000",
"aT c #000000",
"aU c #000000",
"aV c #000000",
"aW c #000000",
"aX c #000000",
"aY c #000000",
"aZ c #000000",
"a0 c #000000",
"a1 c #000000",
"a2 c #000000",
"a3 c #000000",
"a4 c #000000",
"a5 c #000000",
"a6 c #000000",
"a7 c #000000",
"a8 c #000000",
/* pixels */
"```.```#`a```a`.`b`a`c`a`a`d```e`f`g`h`i",
"`a`.`#`j`k`l`j`j```m`n`j`a`j`o`p`q`r`s`t",
"`a`d`u```v```w`a`x`y`z`a`a`a`A`B```a`C`D",
"`a`E`j`````a`#`a`F`G`H`a`#`I`J`K`a`a`L`M",
"`k`N`#```#`O`j`P`Q`R`S`T`j`U`V`W`X`Y`Z`0",
"```d`.`a`H`a`1`2`3`j`4`5`6`7`8.`...#`L`a",
"`#`a`j`b`d`a.a.b`a`j.c.d`Z.e.f.g.h.i`a`a",
"`j`d`a```j.j.k.l`a`a`u.m.n.o`W.p.q`a`a`a",
"`a```a`u.r.s.t`````a.u.v.w.x.y.#.z.A`a`a",
"`u`j`d`a.B.C`a.D`k`d.E.F.G.H.I.J.K`a`a`a",
"`a`.`a.L.M.N`..O`U.P`W.Q.R.S.T`d`a`a`a`a",
".U.V.W.X.Y`j`k`a.Z`g.0.1.2.3.4`a`a`a`a`a",
".5.6.7.8`d`H`j`N#`#.##`g#a`#`a`a`a`a`a`a",
"#b#c#d#e#f`a.4`a#g#h#i#j#k#l#m`#`a`a`a`a",
"#n#o#p#q#r#s`a#t#u#v#w`a#x#y```a`H`a`a`a",
"#z#A#B#C`k`u#D#E`Z.q`#```d`a`a`d`a`a`a`a",
"#F#G`.`j```d#H`f#I`a`a`a`a`H`a`a`a`a`a`a",
"#J`a`O#K#L#M#N#O.A`a`a`a`a`a`H`a`a`a`a`a",
"`#`N`a#P#Q`##R#S`a`a`a`a`H`a`a`H`a`a`a`a",
"`a`.`b.z#T`a#U`f`a`a`H`a`a`a`H`a`a`a`a`a",
"#V#W#J#X#Y#Z#0#1`a`a`a`a`a`a`a`a`a`a`a`a",
"#2#3`a#4#5#6#7```a`a`a`a`a`a`a`a`a`a`a`a",
"#8a`a.`#a#aa`u`a`a`a`a`H`a`H`a`a`a`a`a`a",
"`#abacadaeafagah`a`a`a`a`H`a`a`a`a`a`a`a",
"`a`jaiajakafalamanao`a`a`j`a`d`u`a`a`a`a",
"`j`a`#`dapaqarasat`d`a`a`a`#`a`k`a`a`a`a",
"```a`d``auavaw`a`a```a`d`j`d`a`j`a`a`a`a",
"`j`a`a`aax`O`d`a.4`d`d`j`d`a`a`d`a`a`a`a"
};
